ply
format ascii 1.0
element vertex 1859
property float x
property float y
property float z
property uchar red
property uchar green
property uchar blue
end_header
0.347995 0.096484 0.476854 125 127 122
0.347644 0.096717 0.475861 124 126 121
0.347292 0.096950 0.474868 125 127 122
0.346941 0.097183 0.473876 127 129 124
0.346589 0.097416 0.472883 126 128 123
0.347808 0.097503 0.477159 126 129 122
0.347457 0.097736 0.476167 125 128 121
0.347105 0.097969 0.475174 126 128 123
0.346754 0.098202 0.474181 127 129 124
0.346403 0.098435 0.473188 127 129 124
0.345027 0.098414 0.472137 125 127 122
0.344167 0.098944 0.473373 126 128 123
0.347110 0.098821 0.479686 125 127 122
0.346759 0.099054 0.478694 124 126 121
0.346408 0.099286 0.477703 124 126 121
0.345032 0.099263 0.476647 125 127 122
0.344681 0.099496 0.475657 126 128 123
0.344331 0.099728 0.474667 125 127 122
0.345896 0.099583 0.479920 126 128 123
0.345546 0.099815 0.478931 126 128 123
0.345196 0.100047 0.477941 126 128 123
0.344845 0.100279 0.476951 127 129 124
0.345360 0.100831 0.479235 128 130 125
0.344148 0.101588 0.479470 126 131 125
0.342257 0.100167 0.471640 127 129 126
0.341907 0.100399 0.470652 126 128 125
0.341557 0.100631 0.469663 127 129 126
0.341048 0.100923 0.471886 127 129 126
0.340699 0.101155 0.470899 126 128 125
0.340349 0.101386 0.469912 126 128 127
0.340000 0.101618 0.468925 129 131 130
0.339651 0.101849 0.467939 129 131 130
0.339491 0.101907 0.471145 127 129 126
0.339142 0.102138 0.470160 127 129 128
0.337773 0.102108 0.469121 129 131 130
0.337424 0.102339 0.468137 130 132 131
0.336056 0.102307 0.467102 128 130 129
0.338284 0.102656 0.471391 128 130 129
0.337936 0.102887 0.470407 128 130 129
0.337587 0.103118 0.469423 129 131 130
0.337239 0.103349 0.468440 129 131 130
0.338099 0.103666 0.471693 129 131 130
0.336730 0.103632 0.470653 130 132 131
0.336382 0.103863 0.469671 128 130 129
0.343817 0.099176 0.472383 126 128 123
0.343981 0.099960 0.473677 125 127 122
0.343630 0.100193 0.472688 126 128 123
0.343470 0.100254 0.475897 127 129 126
0.343120 0.100486 0.474909 127 129 126
0.342770 0.100718 0.473920 127 129 126
0.342421 0.100950 0.472932 128 130 127
0.343984 0.100805 0.478177 128 130 125
0.343634 0.101037 0.477189 128 130 125
0.342259 0.101010 0.476136 128 130 127
0.341910 0.101241 0.475149 128 130 127
0.341561 0.101473 0.474163 129 131 128
0.341212 0.101705 0.473176 128 130 127
0.339840 0.101676 0.472130 128 130 127
0.343798 0.101820 0.478481 129 131 128
0.342423 0.101791 0.477426 128 130 127
0.342074 0.102023 0.476440 127 129 126
0.341724 0.102254 0.475453 129 131 128
0.340352 0.102225 0.474404 129 131 130
0.340003 0.102456 0.473419 128 130 129
0.338632 0.102425 0.472374 127 129 128
0.342936 0.102341 0.479703 125 130 124
0.342587 0.102573 0.478717 130 132 129
0.342237 0.102804 0.477730 128 130 127
0.340864 0.102774 0.476677 127 129 126
0.340515 0.103005 0.475692 129 131 128
0.339143 0.102973 0.474644 129 131 130
0.338795 0.103204 0.473661 127 129 128
0.338447 0.103435 0.472677 127 129 128
0.341376 0.103323 0.478951 129 134 130
0.341027 0.103554 0.477966 127 132 128
0.339655 0.103522 0.476914 127 129 128
0.339306 0.103752 0.475931 128 130 129
0.338958 0.103983 0.474947 129 131 130
0.343099 0.103123 0.480994 127 132 128
0.342750 0.103354 0.480007 126 131 127
0.343263 0.103904 0.482284 127 132 128
0.341888 0.103872 0.481224 127 132 128
0.340514 0.103839 0.480168 126 131 127
0.336034 0.104094 0.468689 128 130 129
0.336892 0.104410 0.471937 127 129 128
0.336545 0.104641 0.470955 132 134 133
0.336197 0.104871 0.469973 130 132 131
0.338610 0.104214 0.473963 129 131 130
0.338262 0.104445 0.472979 128 130 129
0.340166 0.104070 0.479184 126 131 127
0.339818 0.104301 0.478201 125 130 126
0.338446 0.104266 0.477150 126 128 127
0.338098 0.104497 0.476168 127 129 128
0.336728 0.104461 0.475122 129 131 130
0.336381 0.104691 0.474142 130 132 131
0.336034 0.104922 0.473161 130 132 131
0.339981 0.105080 0.479487 127 131 130
0.337585 0.104778 0.478366 126 130 129
0.337238 0.105008 0.477385 126 130 129
0.336891 0.105238 0.476405 126 130 129
0.336544 0.105468 0.475424 129 131 130
0.336197 0.105698 0.474443 130 132 131
0.337748 0.105554 0.479648 127 131 130
0.337400 0.105784 0.478668 127 131 130
0.337053 0.106015 0.477687 127 131 130
0.337563 0.106561 0.479950 125 129 128
0.336193 0.106522 0.478900 125 129 128
0.343776 0.104454 0.484561 127 132 128
0.343427 0.104686 0.483574 127 132 128
0.342051 0.104652 0.482513 126 131 127
0.340677 0.104618 0.481454 126 131 127
0.340329 0.104849 0.480471 126 131 127
0.343939 0.105236 0.485851 125 130 126
0.343590 0.105467 0.484864 127 132 128
0.341188 0.105166 0.483724 127 132 128
0.340840 0.105397 0.482741 125 130 126
0.339467 0.105361 0.481683 125 130 126
0.339119 0.105591 0.480701 126 131 127
0.342727 0.105981 0.486074 127 129 126
0.341352 0.105945 0.485010 129 131 128
0.341003 0.106176 0.484027 129 131 128
0.340655 0.106407 0.483043 127 129 126
0.339282 0.106369 0.481985 127 129 126
0.338934 0.106600 0.481003 128 130 127
0.341863 0.106493 0.487280 128 130 127
0.341515 0.106724 0.486297 129 131 128
0.341166 0.106955 0.485313 129 131 128
0.339793 0.106917 0.484252 129 131 128
0.339445 0.107147 0.483270 128 130 127
0.337048 0.106837 0.482138 127 129 126
0.336702 0.107067 0.481159 128 130 127
0.340651 0.107233 0.487500 128 130 127
0.339277 0.107194 0.486437 129 131 128
0.338930 0.107424 0.485456 129 131 128
0.338582 0.107654 0.484476 128 130 127
0.337211 0.107613 0.483419 128 130 127
0.340466 0.108242 0.487803 128 130 127
0.339092 0.108201 0.486739 129 131 128
0.337719 0.108159 0.485678 126 131 127
0.337373 0.108388 0.484699 128 130 127
0.336002 0.108345 0.483643 127 132 128
0.338228 0.108704 0.487938 124 129 125
0.337882 0.108934 0.486958 124 129 125
0.337535 0.109164 0.485979 127 133 129
0.336164 0.109120 0.484921 130 135 131
0.336672 0.109664 0.487177 124 130 126
0.336326 0.109894 0.486199 126 132 128
0.336488 0.110668 0.487478 127 132 126
0.336142 0.110898 0.486500 126 131 125
0.344676 0.098647 0.471146 125 127 124
0.344490 0.099664 0.471451 127 129 126
0.349543 0.098143 0.483727 125 127 122
0.349192 0.098376 0.482734 126 128 123
0.348840 0.098610 0.481741 127 129 124
0.347461 0.098588 0.480677 127 129 124
0.348327 0.098908 0.483956 127 129 124
0.347976 0.099141 0.482965 128 130 125
0.347625 0.099373 0.481973 128 130 125
0.347274 0.099606 0.480982 127 129 124
0.350224 0.099483 0.487316 127 129 126
0.349872 0.099716 0.486323 124 126 123
0.348491 0.099693 0.485252 125 127 124
0.348141 0.099926 0.484261 126 128 123
0.347790 0.100158 0.483269 127 129 124
0.347439 0.100391 0.482278 128 130 125
0.346061 0.100366 0.481215 128 130 125
0.345710 0.100599 0.480225 128 130 125
0.349007 0.100246 0.487539 127 129 126
0.348656 0.100478 0.486548 125 127 124
0.348305 0.100711 0.485557 124 126 123
0.346925 0.100686 0.484488 124 126 121
0.346575 0.100918 0.483498 125 127 122
0.346225 0.101150 0.482509 124 129 123
0.345874 0.101383 0.481519 126 131 125
0.345524 0.101615 0.480529 126 131 125
0.348820 0.101263 0.487844 127 129 126
0.348469 0.101496 0.486853 128 130 127
0.348118 0.101729 0.485862 125 127 124
0.346739 0.101702 0.484793 123 125 120
0.346389 0.101934 0.483803 124 126 121
0.346038 0.102167 0.482813 124 129 123
0.344661 0.102138 0.481750 126 131 125
0.344311 0.102370 0.480762 126 131 125
0.347253 0.102254 0.487077 124 129 125
0.346903 0.102486 0.486087 125 130 126
0.346553 0.102718 0.485097 125 130 126
0.346202 0.102950 0.484107 124 129 125
0.345852 0.103183 0.483118 125 130 126
0.344475 0.103153 0.482054 127 132 128
0.347067 0.103270 0.487381 126 131 127
0.346717 0.103502 0.486391 126 131 127
0.345339 0.103472 0.485323 126 131 127
0.344989 0.103704 0.484335 125 130 126
0.344639 0.103936 0.483346 126 131 127
0.345852 0.104023 0.487603 127 132 128
0.345502 0.104255 0.486615 126 131 127
0.345153 0.104486 0.485627 126 131 127
0.345666 0.105037 0.487907 127 132 128
0.345316 0.105269 0.486919 125 130 126
0.344103 0.106017 0.487141 127 129 126
0.331083 0.103671 0.462361 128 130 129
0.330737 0.103901 0.461384 129 131 130
0.335709 0.102538 0.466120 126 130 129
0.335872 0.103316 0.467404 129 131 130
0.335524 0.103546 0.466422 129 131 130
0.330390 0.104130 0.460406 130 132 131
0.330044 0.104360 0.459428 130 132 131
0.332262 0.104712 0.463686 128 132 131
0.330899 0.104675 0.462662 129 131 130
0.330553 0.104905 0.461684 130 132 131
0.330206 0.105134 0.460707 131 133 132
0.329860 0.105363 0.459729 130 132 131
0.329514 0.105593 0.458751 130 132 131
0.328154 0.105553 0.457737 131 133 132
0.332077 0.105718 0.463987 132 134 133
0.330715 0.105679 0.462963 128 130 129
0.330369 0.105908 0.461985 130 132 131
0.330022 0.106138 0.461007 130 132 131
0.329676 0.106367 0.460030 130 132 131
0.329330 0.106597 0.459052 131 133 132
0.331547 0.106953 0.463309 130 132 131
0.331200 0.107183 0.462330 132 134 133
0.330853 0.107412 0.461350 132 134 133
0.330507 0.107642 0.460371 131 133 132
0.329146 0.107600 0.459353 132 134 133
0.331362 0.107958 0.463610 130 132 129
0.331016 0.108188 0.462631 132 134 131
0.330669 0.108418 0.461652 132 134 131
0.330322 0.108648 0.460672 132 134 131
0.328962 0.108604 0.459653 132 134 131
0.331178 0.108963 0.463911 129 131 128
0.330831 0.109193 0.462932 131 133 130
0.330485 0.109423 0.461953 132 134 131
0.330138 0.109653 0.460974 131 133 130
0.328432 0.109837 0.458977 131 133 130
0.329632 0.109923 0.463188 131 133 130
0.329286 0.110153 0.462210 131 133 130
0.328940 0.110382 0.461233 131 133 130
0.328248 0.110841 0.459277 131 133 130
0.328434 0.110650 0.463443 132 134 131
0.328089 0.110879 0.462467 131 133 130
0.328756 0.111386 0.461533 130 132 129
0.328250 0.111652 0.463743 129 134 128
0.334667 0.104059 0.467654 129 131 130
0.334320 0.104289 0.466674 130 132 131
0.333973 0.104519 0.465693 129 131 130
0.332608 0.104483 0.464665 127 131 130
0.334830 0.104835 0.468937 128 130 129
0.334483 0.105065 0.467956 128 130 129
0.334136 0.105296 0.466975 129 131 130
0.333789 0.105526 0.465995 130 132 131
0.332424 0.105488 0.464966 131 133 132
0.335340 0.105382 0.471200 130 132 131
0.334993 0.105612 0.470219 129 131 130
0.334645 0.105842 0.469238 129 131 130
0.333280 0.105804 0.468205 130 132 131
0.332933 0.106034 0.467225 131 133 132
0.333604 0.106533 0.466296 131 133 132
0.332240 0.106493 0.465267 131 133 132
0.331893 0.106723 0.464288 131 133 132
0.334135 0.106120 0.471443 131 133 132
0.333788 0.106349 0.470464 130 132 131
0.333442 0.106579 0.469485 130 132 131
0.333095 0.106809 0.468506 131 133 132
0.332749 0.107039 0.467527 131 133 132
0.332402 0.107269 0.466547 130 132 131
0.332055 0.107499 0.465568 129 131 130
0.331709 0.107728 0.464589 129 131 130
0.333951 0.107125 0.471744 131 133 132
0.332585 0.107084 0.470708 130 132 131
0.332239 0.107313 0.469731 130 132 131
0.331893 0.107543 0.468753 130 132 131
0.331547 0.107772 0.467775 130 132 131
0.331201 0.108002 0.466798 129 131 130
0.330855 0.108231 0.465820 130 132 131
0.331525 0.108734 0.464890 131 133 132
0.332747 0.107858 0.471987 129 131 130
0.332401 0.108088 0.471009 129 131 130
0.332055 0.108317 0.470031 129 131 130
0.331709 0.108546 0.469054 130 132 131
0.331363 0.108776 0.468076 130 132 131
0.331017 0.109005 0.467098 130 132 131
0.330671 0.109235 0.466121 132 134 133
0.330325 0.109464 0.465143 134 136 135
0.329979 0.109694 0.464165 130 132 129
0.332217 0.109091 0.471310 130 132 131
0.330853 0.109046 0.470276 132 134 133
0.330507 0.109275 0.469299 132 134 133
0.330162 0.109505 0.468323 131 133 132
0.329816 0.109734 0.467347 131 133 132
0.329471 0.109963 0.466371 131 133 132
0.330141 0.110468 0.465444 133 135 132
0.329795 0.110697 0.464466 131 133 130
0.331015 0.109819 0.471552 132 134 133
0.330669 0.110049 0.470576 133 135 134
0.330324 0.110278 0.469600 133 135 134
0.329978 0.110507 0.468624 131 133 132
0.329633 0.110736 0.467647 130 132 131
0.329287 0.110965 0.466671 130 132 129
0.328941 0.111194 0.465695 131 133 130
0.328596 0.111423 0.464719 129 134 130
0.330831 0.110822 0.471852 130 132 129
0.330485 0.111051 0.470876 131 133 132
0.330140 0.111280 0.469900 132 134 131
0.329794 0.111509 0.468924 130 132 131
0.329449 0.111738 0.467948 129 131 128
0.329103 0.111967 0.466972 131 133 130
0.329284 0.111774 0.471119 131 131 129
0.335687 0.105152 0.472180 130 132 131
0.335849 0.105928 0.473463 130 132 131
0.334482 0.105890 0.472422 130 132 131
0.335684 0.105976 0.476640 128 132 131
0.335337 0.106206 0.475661 130 132 131
0.334991 0.106436 0.474682 129 131 130
0.334644 0.106665 0.473703 129 131 130
0.334297 0.106895 0.472723 130 132 131
0.334823 0.106481 0.477852 126 130 129
0.334477 0.106711 0.476875 128 132 131
0.334131 0.106940 0.475897 130 132 131
0.333785 0.107170 0.474919 130 132 131
0.333439 0.107399 0.473942 130 132 131
0.333093 0.107629 0.472964 131 133 132
0.334986 0.107256 0.479131 125 129 128
0.334639 0.107485 0.478153 126 130 129
0.334293 0.107715 0.477175 127 131 130
0.333947 0.107944 0.476198 130 132 131
0.333601 0.108174 0.475220 129 131 130
0.333255 0.108403 0.474243 129 131 130
0.332909 0.108632 0.473265 130 132 131
0.332563 0.108862 0.472287 130 132 131
0.334801 0.108259 0.479431 127 131 130
0.334455 0.108489 0.478454 127 131 130
0.334109 0.108718 0.477476 127 131 130
0.332742 0.108674 0.476433 130 132 131
0.332397 0.108903 0.475456 129 131 130
0.333071 0.109407 0.474543 129 131 130
0.332725 0.109636 0.473566 129 131 130
0.332379 0.109866 0.472588 131 133 132
0.333595 0.108989 0.479661 127 131 130
0.333250 0.109218 0.478685 127 131 130
0.332904 0.109447 0.477709 128 132 131
0.332559 0.109676 0.476733 130 132 131
0.332213 0.109905 0.475757 131 133 132
0.331868 0.110134 0.474781 131 133 132
0.331522 0.110363 0.473804 132 134 131
0.331176 0.110593 0.472828 129 131 130
0.333411 0.109991 0.479961 130 132 129
0.333066 0.110220 0.478985 128 130 127
0.332720 0.110449 0.478009 129 131 128
0.332375 0.110678 0.477033 132 134 131
0.332029 0.110907 0.476057 133 135 132
0.331684 0.111137 0.475081 132 134 131
0.331338 0.111366 0.474105 129 131 126
0.330993 0.111595 0.473129 130 130 128
0.329629 0.111545 0.472093 131 132 127
0.331861 0.110945 0.479215 132 134 131
0.331516 0.111173 0.478241 131 133 130
0.331171 0.111402 0.477266 130 132 129
0.330826 0.111631 0.476291 130 132 129
0.331678 0.111945 0.479515 131 133 130
0.335332 0.107026 0.480108 124 128 127
0.335840 0.107571 0.482364 128 130 127
0.335494 0.107801 0.481387 128 130 127
0.335148 0.108030 0.480409 127 131 130
0.335656 0.108575 0.482665 129 131 128
0.335310 0.108804 0.481687 126 131 127
0.334964 0.109034 0.480710 128 132 131
0.335818 0.109349 0.483943 126 132 128
0.335472 0.109579 0.482966 126 131 127
0.335126 0.109808 0.481988 128 133 129
0.333757 0.109762 0.480938 131 136 132
0.335980 0.110123 0.485222 126 132 128
0.335634 0.110353 0.484244 125 131 127
0.334264 0.110306 0.483190 125 131 127
0.333919 0.110535 0.482214 127 132 128
0.333573 0.110764 0.481238 129 131 128
0.333228 0.110993 0.480262 130 132 129
0.335796 0.111127 0.485522 125 130 124
0.334426 0.111079 0.484466 126 131 125
0.334081 0.111308 0.483490 126 131 125
0.333735 0.111537 0.482514 127 132 126
0.333390 0.111766 0.481538 129 131 128
0.333044 0.111995 0.480562 130 132 129
0.335279 0.111394 0.487695 127 132 126
0.335958 0.111901 0.486801 127 132 126
0.335624 0.111165 0.488671 126 131 125
0.335786 0.111938 0.489948 128 133 127
0.342211 0.106263 0.488264 128 130 127
0.340998 0.107003 0.488483 127 129 126
0.340814 0.108011 0.488785 125 127 124
0.338575 0.108474 0.488917 127 132 128
0.337364 0.109206 0.489132 124 129 125
0.337018 0.109435 0.488155 124 129 125
0.337526 0.109980 0.490411 126 131 125
0.337180 0.110209 0.489433 123 128 122
0.336834 0.110439 0.488455 125 130 124
0.337342 0.110984 0.490711 126 131 125
0.336996 0.111213 0.489734 125 130 124
0.336132 0.111709 0.490924 126 131 125
0.349358 0.100013 0.488531 125 127 124
0.349171 0.101031 0.488836 125 127 124
0.347954 0.101789 0.489056 129 131 128
0.347604 0.102021 0.488066 129 131 128
0.347768 0.102805 0.489361 128 130 127
0.347417 0.103037 0.488371 128 130 127
0.347582 0.103821 0.489665 126 131 127
0.347231 0.104054 0.488675 125 130 126
0.347746 0.104605 0.490959 127 129 126
0.346366 0.104573 0.489884 126 131 127
0.346016 0.104805 0.488895 125 130 126
0.346530 0.105356 0.491176 127 129 124
0.345151 0.105322 0.490101 129 131 128
0.344801 0.105554 0.489115 127 129 126
0.344452 0.105785 0.488128 128 130 127
0.346344 0.106371 0.491480 127 129 124
0.344965 0.106335 0.490405 128 130 127
0.344616 0.106567 0.489418 126 128 125
0.328939 0.112003 0.470144 130 131 126
0.328594 0.112231 0.469169 129 131 128
0.328249 0.112460 0.468195 130 132 127
0.329101 0.112774 0.471418 133 134 129
0.328756 0.113003 0.470444 132 133 128
0.328411 0.113232 0.469469 131 133 128
0.328066 0.113461 0.468495 132 134 129
0.331500 0.112139 0.475381 131 133 128
0.330136 0.112088 0.474342 132 134 129
0.329791 0.112317 0.473368 132 133 128
0.329446 0.112546 0.472393 133 134 129
0.331333 0.112174 0.478540 131 133 130
0.330988 0.112403 0.477566 131 133 130
0.330643 0.112631 0.476591 130 132 129
0.330298 0.112860 0.475617 132 132 130
0.329953 0.113089 0.474642 132 132 130
0.329608 0.113318 0.473667 131 132 127
0.329263 0.113546 0.472693 131 132 127
0.331494 0.112946 0.479815 130 132 129
0.331149 0.113175 0.478840 130 132 129
0.330804 0.113403 0.477866 130 132 129
0.330459 0.113632 0.476891 130 132 129
0.330114 0.113861 0.475916 131 131 129
0.329769 0.114089 0.474942 131 131 129
0.328407 0.114035 0.473905 133 134 129
0.328062 0.114264 0.472932 133 134 129
0.330966 0.114175 0.479140 132 134 131
0.329601 0.114121 0.478097 130 130 128
0.329257 0.114349 0.477123 130 130 128
0.328912 0.114577 0.476150 131 131 129
0.328568 0.114806 0.475177 133 133 131
0.328224 0.115034 0.474204 134 135 130
0.329763 0.114891 0.479369 131 133 130
0.329418 0.115120 0.478396 132 132 130
0.329074 0.115348 0.477423 132 132 130
0.328729 0.115577 0.476450 132 132 130
0.328385 0.115805 0.475477 132 132 130
0.329579 0.115890 0.479668 130 132 129
0.329235 0.116119 0.478695 134 134 132
0.328891 0.116347 0.477722 135 135 133
0.328546 0.116576 0.476749 133 133 131
0.329396 0.116890 0.479968 132 134 131
0.329052 0.117118 0.478994 132 132 130
0.328707 0.117346 0.478021 132 132 130
0.328869 0.118117 0.479294 131 131 129
0.335612 0.112131 0.485823 126 131 125
0.334242 0.112081 0.484767 125 130 124
0.333897 0.112310 0.483791 126 131 125
0.333551 0.112539 0.482814 127 132 126
0.332184 0.112488 0.481764 129 131 128
0.331839 0.112717 0.480789 130 132 129
0.335095 0.112396 0.487995 127 132 126
0.334750 0.112625 0.487019 128 133 127
0.334404 0.112854 0.486043 128 133 127
0.333036 0.112803 0.484988 125 130 124
0.332691 0.113031 0.484013 125 130 124
0.332346 0.113260 0.483038 128 133 127
0.332001 0.113489 0.482064 130 132 129
0.331656 0.113718 0.481089 131 133 130
0.331311 0.113946 0.480115 133 135 132
0.333542 0.113346 0.487237 129 134 128
0.333197 0.113575 0.486262 129 134 128
0.332852 0.113803 0.485287 127 132 126
0.332507 0.114032 0.484313 126 131 125
0.332162 0.114261 0.483338 129 134 128
0.331817 0.114490 0.482364 132 134 131
0.331472 0.114718 0.481389 132 134 131
0.330107 0.114663 0.480342 132 134 131
0.333359 0.114346 0.487536 131 133 130
0.333014 0.114575 0.486562 131 133 130
0.332669 0.114804 0.485587 130 132 129
0.332324 0.115033 0.484613 130 132 129
0.331979 0.115261 0.483638 131 133 130
0.331634 0.115490 0.482663 132 134 131
0.331289 0.115719 0.481689 131 133 130
0.329924 0.115662 0.480641 129 131 128
0.333175 0.115347 0.487836 129 131 128
0.332830 0.115576 0.486861 129 131 128
0.332485 0.115805 0.485887 130 132 129
0.332140 0.116033 0.484912 131 133 130
0.331795 0.116262 0.483938 131 133 130
0.331450 0.116491 0.482963 128 130 127
0.331105 0.116719 0.481988 129 131 128
0.329741 0.116661 0.480941 131 133 130
0.332647 0.116576 0.487161 129 131 130
0.332302 0.116805 0.486187 131 133 132
0.331957 0.117034 0.485212 132 134 133
0.330591 0.116975 0.484159 131 133 132
0.330247 0.117203 0.483186 130 132 129
0.329902 0.117432 0.482213 131 133 130
0.329558 0.117660 0.481240 129 131 128
0.329213 0.117889 0.480267 132 134 131
0.332463 0.117577 0.487461 129 131 130
0.331097 0.117517 0.486405 130 132 131
0.330752 0.117746 0.485432 131 133 132
0.330408 0.117974 0.484459 131 133 132
0.330063 0.118202 0.483485 131 133 130
0.329719 0.118431 0.482512 131 133 130
0.329374 0.118659 0.481539 129 131 128
0.329030 0.118888 0.480566 132 134 131
0.330914 0.118516 0.486704 131 133 132
0.330569 0.118745 0.485731 131 133 132
0.330225 0.118973 0.484758 130 132 131
0.329880 0.119202 0.483785 131 133 130
0.329536 0.119430 0.482812 131 133 130
0.329191 0.119658 0.481839 130 132 129
0.328847 0.119887 0.480866 132 134 131
0.335441 0.112167 0.488971 126 131 125
0.335948 0.112711 0.491224 128 133 127
0.335603 0.112940 0.490248 129 134 128
0.335257 0.113169 0.489272 127 132 126
0.334912 0.113398 0.488296 126 131 125
0.335419 0.113942 0.490548 130 132 129
0.335073 0.114171 0.489572 129 131 128
0.334728 0.114400 0.488596 129 131 128
0.335235 0.114944 0.490848 127 129 126
0.333865 0.114890 0.489785 128 130 127
0.333520 0.115118 0.488811 129 131 128
0.335051 0.115947 0.491148 130 132 131
0.333682 0.115890 0.490085 130 132 131
0.333337 0.116119 0.489110 129 131 130
0.332992 0.116348 0.488136 129 131 130
0.333498 0.116891 0.490385 129 131 130
0.333153 0.117120 0.489410 129 131 130
0.332808 0.117348 0.488436 128 130 129
0.327463 0.106012 0.455785 132 134 133
0.325922 0.106971 0.455076 131 133 132
0.325739 0.107972 0.455376 131 133 132
0.325555 0.108973 0.455675 131 133 130
0.325372 0.109973 0.455975 132 134 131
0.325027 0.110202 0.455001 131 133 130
0.324843 0.111202 0.455300 132 134 131
0.324498 0.111431 0.454326 132 134 131
0.327809 0.105783 0.456761 132 134 133
0.327971 0.106556 0.458037 131 133 132
0.327625 0.106785 0.457061 131 133 132
0.326267 0.106743 0.456050 134 136 135
0.327787 0.107558 0.458337 131 133 132
0.327441 0.107787 0.457361 130 132 131
0.326084 0.107743 0.456350 132 134 133
0.327603 0.108560 0.458638 131 133 130
0.326245 0.108515 0.457625 129 131 128
0.325900 0.108744 0.456650 130 132 129
0.326062 0.109516 0.457924 130 132 129
0.325717 0.109744 0.456950 131 133 130
0.325878 0.110516 0.458224 130 132 129
0.325533 0.110745 0.457250 131 133 130
0.325188 0.110974 0.456275 132 134 131
0.327398 0.111337 0.460514 131 133 130
0.327052 0.111566 0.459538 131 133 130
0.325695 0.111517 0.458524 131 133 130
0.325350 0.111746 0.457549 132 134 131
0.325005 0.111974 0.456575 131 133 130
0.327905 0.111881 0.462767 128 133 127
0.327743 0.111917 0.465946 133 135 132
0.324660 0.112203 0.455600 132 134 131
0.323305 0.112152 0.454593 133 135 132
0.322961 0.112380 0.453620 133 135 132
0.322616 0.112609 0.452647 134 136 133
0.324476 0.113204 0.455900 130 135 129
0.323122 0.113151 0.454893 131 136 130
0.322778 0.113379 0.453920 132 137 131
0.322433 0.113608 0.452946 132 137 131
0.322939 0.114150 0.455192 132 137 131
0.322595 0.114378 0.454219 132 137 131
0.322250 0.114607 0.453246 131 136 130
0.321906 0.114835 0.452273 131 136 130
0.322756 0.115149 0.455491 134 136 133
0.322411 0.115377 0.454518 132 134 131
0.322067 0.115606 0.453545 132 134 131
0.321723 0.115834 0.452572 132 134 131
0.321564 0.115862 0.455757 132 134 131
0.322228 0.116376 0.454818 133 135 132
0.321884 0.116605 0.453844 133 135 134
0.322045 0.117375 0.455117 133 135 134
0.321701 0.117604 0.454144 134 136 135
0.321356 0.117832 0.453171 135 137 136
0.322018 0.118350 0.452226 136 138 137
0.321862 0.118374 0.455416 133 135 134
0.321518 0.118603 0.454443 133 135 134
0.321173 0.118831 0.453470 135 137 136
0.321834 0.119350 0.452526 137 139 138
0.321489 0.119579 0.451551 138 140 139
0.321679 0.119374 0.455715 131 135 134
0.321334 0.119602 0.454742 131 135 136
0.327559 0.112110 0.461791 128 133 127
0.327214 0.112339 0.460815 129 134 128
0.325856 0.112289 0.459798 129 134 128
0.325511 0.112517 0.458824 128 133 127
0.325166 0.112746 0.457849 129 134 128
0.324821 0.112975 0.456874 129 134 128
0.327053 0.112374 0.463997 128 133 127
0.326708 0.112603 0.463022 129 131 126
0.326363 0.112832 0.462047 127 132 126
0.326018 0.113061 0.461073 130 132 127
0.325673 0.113289 0.460098 128 133 127
0.325328 0.113518 0.459123 127 132 126
0.323972 0.113465 0.458111 128 133 127
0.323628 0.113693 0.457138 129 134 128
0.323284 0.113921 0.456165 131 136 130
0.326525 0.113604 0.463322 132 133 128
0.326180 0.113832 0.462347 133 135 130
0.325835 0.114061 0.461372 130 130 128
0.325490 0.114290 0.460398 132 134 131
0.324134 0.114235 0.459384 132 134 131
0.323789 0.114464 0.458411 132 134 131
0.323445 0.114692 0.457437 133 135 132
0.323100 0.114921 0.456464 134 136 133
0.325328 0.114321 0.463575 131 132 127
0.324984 0.114549 0.462602 134 135 130
0.324640 0.114778 0.461629 131 131 129
0.324295 0.115006 0.460656 133 133 131
0.323951 0.115234 0.459683 132 134 131
0.323606 0.115463 0.458710 131 133 130
0.322252 0.115406 0.457700 129 131 128
0.321908 0.115634 0.456728 130 132 129
0.324133 0.115035 0.463828 131 131 129
0.323789 0.115263 0.462856 135 135 133
0.323445 0.115491 0.461885 131 133 130
0.323101 0.115719 0.460913 132 134 131
0.322757 0.115947 0.459942 131 133 130
0.322413 0.116175 0.458970 132 134 131
0.322069 0.116403 0.457999 130 132 131
0.321725 0.116631 0.457027 132 134 133
0.321382 0.116859 0.456055 133 135 134
0.323606 0.116261 0.463155 136 136 134
0.323262 0.116489 0.462184 131 133 130
0.322918 0.116717 0.461212 132 134 131
0.322574 0.116945 0.460241 132 134 131
0.322230 0.117173 0.459269 134 136 133
0.321887 0.117401 0.458297 135 137 136
0.321543 0.117629 0.457326 135 137 136
0.321199 0.117857 0.456354 134 136 135
0.321401 0.116681 0.463362 136 136 134
0.322069 0.117197 0.462438 131 133 132
0.321725 0.117425 0.461468 131 133 132
0.321382 0.117653 0.460498 132 134 133
0.322048 0.118170 0.459568 135 137 136
0.321704 0.118398 0.458596 133 137 136
0.321360 0.118626 0.457625 133 137 136
0.321016 0.118854 0.456653 132 136 135
0.321218 0.117675 0.463660 136 136 134
0.320876 0.117903 0.462692 130 132 131
0.320533 0.118130 0.461723 131 133 132
0.320190 0.118357 0.460754 132 134 133
0.320856 0.118876 0.459826 134 136 135
0.321521 0.119396 0.458895 131 135 134
0.321177 0.119624 0.457924 132 136 135
0.320833 0.119852 0.456952 132 136 135
0.321036 0.118670 0.463958 133 135 132
0.320693 0.118897 0.462989 130 132 129
0.320350 0.119124 0.462021 132 134 131
0.320008 0.119352 0.461052 130 135 131
0.320673 0.119872 0.460125 130 135 131
0.320511 0.119892 0.463287 130 132 129
0.327398 0.112146 0.464971 129 131 126
0.327904 0.112689 0.467220 131 133 128
0.327559 0.112918 0.466246 130 132 127
0.327214 0.113146 0.465271 129 131 126
0.326870 0.113375 0.464296 130 132 127
0.326706 0.113407 0.467468 133 135 130
0.326362 0.113636 0.466495 132 134 129
0.326017 0.113864 0.465522 132 133 128
0.325673 0.114093 0.464548 132 133 128
0.327901 0.113493 0.471659 132 133 128
0.327556 0.113721 0.470686 131 132 127
0.327212 0.113950 0.469713 131 132 127
0.326868 0.114178 0.468740 132 133 128
0.326523 0.114406 0.467767 131 133 128
0.325165 0.114351 0.466743 130 132 127
0.324821 0.114579 0.465771 133 133 131
0.324477 0.114807 0.464800 131 131 129
0.327718 0.114492 0.471959 133 134 129
0.326357 0.114436 0.470928 132 133 128
0.326014 0.114664 0.469956 132 133 128
0.325670 0.114892 0.468985 131 132 127
0.325326 0.115120 0.468013 130 132 127
0.324982 0.115348 0.467042 130 132 127
0.324638 0.115576 0.466070 132 132 130
0.324294 0.115804 0.465098 131 131 129
0.323950 0.116032 0.464127 131 131 129
0.326175 0.115434 0.471227 131 132 127
0.325831 0.115662 0.470255 131 132 127
0.325487 0.115890 0.469284 131 132 127
0.324129 0.115831 0.468258 131 132 127
0.323786 0.116059 0.467288 131 132 127
0.323442 0.116287 0.466318 132 132 130
0.323099 0.116514 0.465348 131 131 129
0.321744 0.116454 0.464331 132 132 130
0.325992 0.116431 0.471526 130 131 126
0.325648 0.116659 0.470554 130 131 126
0.324290 0.116599 0.469527 130 131 126
0.323946 0.116827 0.468557 130 131 126
0.322590 0.116766 0.467534 131 132 127
0.322247 0.116994 0.466566 132 132 130
0.321904 0.117221 0.465597 132 132 130
0.321561 0.117448 0.464629 132 132 130
0.324794 0.117140 0.471765 132 133 128
0.324451 0.117368 0.470795 132 133 128
0.324107 0.117595 0.469825 131 132 127
0.322750 0.117533 0.468801 132 133 128
0.322408 0.117761 0.467832 133 134 129
0.322065 0.117988 0.466864 132 132 130
0.321722 0.118215 0.465895 132 132 130
0.321379 0.118443 0.464927 131 133 130
0.324268 0.118364 0.471094 131 132 127
0.322911 0.118300 0.470067 130 131 126
0.322568 0.118528 0.469099 130 131 126
0.322225 0.118755 0.468130 131 132 127
0.320870 0.118690 0.467110 131 132 127
0.320528 0.118917 0.466143 131 131 129
0.321197 0.119437 0.465224 129 131 128
0.320854 0.119664 0.464256 132 134 131
0.324085 0.119360 0.471392 132 132 130
0.322729 0.119295 0.470365 132 132 130
0.322386 0.119522 0.469397 133 134 129
0.322043 0.119749 0.468428 133 134 129
0.320688 0.119683 0.467407 130 132 127
0.320346 0.119910 0.466440 131 133 128
0.326862 0.114978 0.473170 133 134 129
0.326519 0.115206 0.472198 132 133 128
0.327024 0.115747 0.474440 132 133 128
0.326680 0.115975 0.473469 131 132 127
0.326336 0.116203 0.472497 130 131 126
0.327185 0.116517 0.475711 131 131 129
0.326841 0.116745 0.474739 134 134 132
0.326497 0.116973 0.473768 132 132 130
0.326153 0.117201 0.472796 132 133 128
0.327346 0.117286 0.476981 132 132 130
0.327002 0.117514 0.476010 133 133 131
0.326658 0.117742 0.475038 132 132 130
0.326314 0.117970 0.474066 131 131 129
0.324955 0.117908 0.473034 131 132 127
0.324611 0.118136 0.472064 131 132 127
0.327507 0.118056 0.478252 133 133 131
0.327163 0.118284 0.477280 131 131 129
0.326819 0.118512 0.476308 132 132 130
0.326475 0.118740 0.475337 130 130 128
0.326131 0.118968 0.474365 130 130 128
0.324772 0.118904 0.473332 131 131 129
0.324429 0.119132 0.472362 131 131 129
0.327668 0.118825 0.479522 131 131 129
0.327324 0.119053 0.478550 132 132 130
0.326980 0.119281 0.477579 130 130 128
0.326636 0.119509 0.476607 132 132 130
0.326292 0.119737 0.475636 129 129 127
0.325948 0.119965 0.474664 130 130 128
0.324590 0.119900 0.473631 131 131 129
0.327485 0.119823 0.479821 131 131 129
0.321496 0.120373 0.456015 132 136 135
0.321338 0.120393 0.459194 131 136 132
0.320994 0.120621 0.458222 132 137 133
0.320650 0.120849 0.457251 133 137 136
0.321313 0.121372 0.456314 132 136 135
0.320168 0.120119 0.462319 134 136 133
0.320491 0.120868 0.460423 130 135 131
0.321155 0.121391 0.459493 132 137 133
0.320811 0.121619 0.458521 133 138 134
0.320467 0.121847 0.457550 133 137 136
0.321129 0.122371 0.456613 132 136 135
0.320329 0.120886 0.463585 132 134 129
0.320628 0.122616 0.458820 132 137 131
0.320284 0.122844 0.457848 132 137 133
0.320946 0.123370 0.456913 133 138 134
0.320146 0.121880 0.463883 132 134 129
0.320101 0.123842 0.458147 133 138 134
0.320763 0.124369 0.457212 134 139 135
0.320419 0.124597 0.456239 134 139 135
0.320004 0.120137 0.465473 132 134 129
0.322889 0.120062 0.471632 132 132 130
0.322546 0.120289 0.470663 132 132 130
0.322204 0.120516 0.469694 132 133 128
0.320849 0.120449 0.468671 132 133 128
0.320506 0.120676 0.467704 130 133 126
0.320164 0.120903 0.466737 132 135 128
0.322707 0.121056 0.471929 134 134 132
0.322364 0.121283 0.470961 133 133 131
0.321009 0.121215 0.469936 132 132 130
0.320667 0.121442 0.468969 132 133 128
0.320324 0.121669 0.468002 131 134 127
0.321169 0.121981 0.471200 134 134 132
0.320827 0.122208 0.470233 133 133 131
0.320485 0.122435 0.469266 132 132 130
0.320142 0.122662 0.468299 131 133 128
0.320987 0.122973 0.471498 132 132 130
0.320645 0.123200 0.470531 130 132 129
0.320303 0.123427 0.469564 130 132 129
0.320805 0.123966 0.471795 133 133 131
0.320463 0.124193 0.470828 131 133 130
0.320121 0.124420 0.469861 131 133 130
0.320281 0.125186 0.471126 133 135 132
0.320099 0.126179 0.471423 132 134 131
0.324246 0.120128 0.472661 131 131 129
0.327141 0.120051 0.478849 132 132 130
0.326797 0.120279 0.477878 130 130 128
0.326453 0.120507 0.476906 131 131 129
0.326109 0.120735 0.475935 130 130 128
0.325765 0.120963 0.474963 131 131 129
0.324407 0.120896 0.473929 132 132 130
0.324064 0.121124 0.472959 133 133 131
0.326958 0.121048 0.479148 132 132 130
0.326614 0.121276 0.478177 130 130 128
0.326270 0.121504 0.477205 130 130 128
0.325926 0.121732 0.476233 131 131 129
0.324568 0.121664 0.475197 132 132 130
0.323210 0.121596 0.474164 133 133 131
0.322867 0.121823 0.473196 134 134 132
0.322525 0.122051 0.472227 134 134 132
0.326431 0.122274 0.478475 129 129 127
0.326087 0.122502 0.477504 130 130 128
0.324729 0.122433 0.476466 131 131 129
0.324385 0.122660 0.475496 131 131 129
0.323028 0.122590 0.474462 131 131 129
0.322685 0.122818 0.473494 131 131 129
0.322342 0.123045 0.472525 132 132 130
0.326248 0.123271 0.478774 130 130 128
0.325904 0.123499 0.477803 131 131 129
0.324546 0.123429 0.476764 132 132 130
0.324203 0.123656 0.475794 131 131 129
0.322846 0.123585 0.474760 131 131 129
0.322503 0.123812 0.473792 131 131 129
0.322160 0.124039 0.472823 132 132 130
0.325722 0.124497 0.478102 131 133 130
0.325378 0.124725 0.477130 133 133 131
0.324020 0.124652 0.476093 132 132 130
0.323677 0.124880 0.475122 132 132 130
0.322321 0.124806 0.474090 132 132 130
0.321978 0.125034 0.473121 132 134 131
0.320623 0.124959 0.472093 133 135 132
0.324868 0.124965 0.479301 128 130 127
0.324524 0.125193 0.478331 130 132 129
0.323837 0.125648 0.476391 131 131 129
0.323494 0.125876 0.475421 131 131 129
0.322138 0.125801 0.474388 131 131 129
0.321795 0.126028 0.473419 132 134 131
0.321453 0.126255 0.472450 133 135 132
0.324685 0.125961 0.479599 131 132 127
0.324342 0.126189 0.478629 130 131 126
0.323998 0.126416 0.477659 130 131 126
0.323655 0.126644 0.476689 133 134 129
0.322299 0.126568 0.475654 132 133 128
0.321956 0.126795 0.474685 129 130 125
0.321613 0.127022 0.473717 130 131 126
0.321270 0.127250 0.472748 135 136 131
0.324502 0.126957 0.479898 130 131 126
0.323145 0.126880 0.478858 130 131 126
0.322802 0.127108 0.477889 130 131 126
0.323472 0.127640 0.476988 131 132 127
0.322117 0.127562 0.475952 131 132 127
0.321774 0.127790 0.474983 131 132 127
0.320077 0.127938 0.472985 135 136 131
0.322963 0.127875 0.479155 129 130 125
0.318135 0.127956 0.447802 135 140 136
0.319664 0.127029 0.448499 137 139 136
0.319891 0.125825 0.455565 134 139 133
0.318825 0.127498 0.449751 135 140 136
0.318480 0.127727 0.448776 135 140 136
0.318704 0.126521 0.455830 134 139 133
0.319363 0.127052 0.454891 134 139 135
0.319019 0.127280 0.453918 134 139 135
0.319677 0.127813 0.452975 134 139 135
0.318177 0.127746 0.455158 136 141 137
0.317833 0.127974 0.454186 135 140 136
0.319825 0.120346 0.461350 131 136 132
0.319986 0.121113 0.462617 132 134 129
0.319643 0.121341 0.461648 131 136 130
0.319300 0.121568 0.460680 132 137 131
0.319965 0.122092 0.459751 134 139 133
0.319804 0.122108 0.462915 132 134 129
0.319461 0.122335 0.461946 132 137 131
0.319118 0.122562 0.460978 134 139 133
0.319782 0.123088 0.460050 134 139 133
0.319439 0.123315 0.459080 133 138 132
0.318613 0.122804 0.463167 133 136 129
0.319278 0.123329 0.462244 133 138 132
0.318936 0.123557 0.461275 135 140 134
0.318593 0.123784 0.460307 133 138 132
0.319256 0.124311 0.459378 132 137 131
0.318913 0.124539 0.458408 131 136 130
0.319575 0.125067 0.457475 132 137 131
0.319231 0.125295 0.456503 133 138 132
0.318431 0.123796 0.463464 134 137 130
0.318088 0.124023 0.462497 133 138 132
0.317746 0.124250 0.461530 135 140 134
0.318410 0.124778 0.460605 132 137 131
0.318068 0.125006 0.459636 131 136 130
0.318730 0.125535 0.458706 130 135 129
0.318387 0.125762 0.457736 130 135 129
0.318043 0.125990 0.456766 132 137 131
0.318249 0.124789 0.463762 135 137 132
0.317906 0.125016 0.462795 133 138 134
0.317564 0.125243 0.461828 133 138 134
0.317222 0.125470 0.460861 131 136 132
0.317885 0.126000 0.459934 132 137 133
0.317542 0.126227 0.458966 132 137 133
0.317200 0.126455 0.457997 133 138 134
0.316857 0.126682 0.457029 134 139 135
0.318521 0.127518 0.456129 136 141 137
0.317724 0.126009 0.463092 132 137 133
0.317382 0.126236 0.462125 132 137 133
0.317040 0.126463 0.461158 129 134 130
0.317703 0.126994 0.460232 131 136 132
0.317360 0.127222 0.459264 133 138 134
0.317017 0.127449 0.458295 135 140 136
0.316674 0.127676 0.457326 136 141 137
0.316536 0.126697 0.463343 133 135 134
0.317200 0.127229 0.462422 134 136 135
0.316858 0.127456 0.461455 129 133 132
0.317521 0.127989 0.460530 132 136 135
0.316354 0.127688 0.463640 132 134 133
0.322403 0.123612 0.447340 137 139 138
0.321217 0.124320 0.447620 136 138 135
0.320871 0.124549 0.446642 136 138 135
0.321033 0.125324 0.447920 135 137 134
0.320687 0.125553 0.446943 135 137 134
0.320503 0.126557 0.447243 137 139 136
0.322149 0.120099 0.450602 134 138 137
0.321996 0.120122 0.453800 133 137 138
0.321651 0.120351 0.452825 135 139 140
0.321306 0.120580 0.451851 136 140 141
0.321965 0.121102 0.450903 136 138 137
0.322623 0.121624 0.449951 137 139 138
0.322277 0.121854 0.448974 135 137 136
0.322157 0.120894 0.455074 132 136 137
0.321812 0.121123 0.454100 132 136 137
0.321467 0.121352 0.453125 132 136 137
0.322127 0.121875 0.452179 132 136 135
0.322785 0.122398 0.451230 136 138 137
0.322439 0.122628 0.450252 135 137 136
0.322093 0.122857 0.449274 135 137 136
0.322750 0.123382 0.448319 135 137 136
0.320968 0.121600 0.455341 132 136 135
0.321629 0.122124 0.454400 132 136 135
0.321284 0.122352 0.453425 131 135 134
0.321943 0.122877 0.452479 131 135 134
0.321598 0.123106 0.451503 135 137 136
0.322255 0.123632 0.450553 134 136 133
0.321909 0.123861 0.449575 136 138 135
0.321563 0.124090 0.448597 137 139 136
0.320785 0.122599 0.455640 132 136 135
0.321446 0.123124 0.454699 133 137 136
0.321101 0.123353 0.453725 134 138 137
0.321759 0.123879 0.452779 134 138 137
0.321414 0.124108 0.451803 135 137 134
0.322071 0.124635 0.450853 135 137 134
0.321725 0.124865 0.449876 138 140 137
0.321379 0.125094 0.448898 139 141 138
0.320602 0.123598 0.455940 133 138 134
0.321262 0.124125 0.454999 133 138 134
0.320917 0.124353 0.454025 133 138 134
0.321576 0.124881 0.453080 133 138 134
0.321230 0.125110 0.452104 135 137 134
0.320885 0.125339 0.451127 137 139 136
0.321541 0.125868 0.450176 138 140 137
0.321195 0.126098 0.449199 137 139 136
0.320849 0.126327 0.448221 136 138 135
0.321079 0.125125 0.455299 134 139 135
0.320734 0.125354 0.454324 134 139 135
0.321392 0.125883 0.453380 133 138 134
0.321047 0.126112 0.452404 134 136 133
0.320701 0.126342 0.451428 136 138 135
0.320355 0.126571 0.450452 138 140 137
0.320010 0.126800 0.449475 137 139 136
0.320550 0.126355 0.454624 134 139 135
0.320205 0.126583 0.453650 133 138 134
0.320863 0.127115 0.452704 132 137 133
0.320517 0.127344 0.451728 134 139 135
0.320172 0.127573 0.450752 136 141 137
0.319661 0.120364 0.464506 132 134 129
0.319822 0.121130 0.465770 133 135 130
0.319479 0.121357 0.464803 133 135 130
0.319982 0.121896 0.467035 132 135 128
0.319640 0.122123 0.466068 134 137 130
0.319297 0.122350 0.465101 134 137 130
0.318955 0.122577 0.464134 133 136 129
0.319800 0.122888 0.467332 132 135 128
0.319458 0.123115 0.466365 134 137 130
0.319115 0.123342 0.465398 134 137 130
0.318773 0.123569 0.464431 134 137 130
0.318950 0.123355 0.468543 133 134 129
0.318608 0.123581 0.467577 133 134 129
0.318266 0.123808 0.466611 134 136 131
0.317924 0.124034 0.465646 135 137 132
0.317583 0.124261 0.464680 135 137 132
0.318768 0.124346 0.468839 133 134 129
0.318426 0.124572 0.467874 134 135 130
0.318084 0.124799 0.466908 134 136 131
0.317743 0.125026 0.465943 135 137 132
0.317401 0.125252 0.464977 135 137 132
0.317059 0.125479 0.464012 135 137 132
0.319939 0.125413 0.470159 132 134 131
0.318586 0.125337 0.469136 133 133 131
0.318245 0.125564 0.468171 134 134 132
0.317903 0.125790 0.467205 135 137 134
0.317561 0.126017 0.466240 134 136 133
0.317219 0.126243 0.465274 133 135 132
0.316877 0.126470 0.464309 132 134 131
0.319757 0.126406 0.470456 132 134 131
0.319414 0.126633 0.469489 133 133 131
0.318063 0.126555 0.468468 135 135 133
0.317721 0.126782 0.467502 135 137 134
0.317379 0.127008 0.466537 134 136 133
0.317037 0.127235 0.465571 131 133 130
0.316696 0.127461 0.464606 130 132 129
0.319917 0.127172 0.471721 137 138 133
0.319575 0.127399 0.470754 134 135 130
0.318223 0.127320 0.469730 132 134 131
0.317881 0.127546 0.468765 134 136 133
0.317539 0.127773 0.467799 135 137 134
0.317198 0.127999 0.466834 133 135 132
0.319332 0.128042 0.452000 135 140 136
0.318987 0.128270 0.451025 136 141 137
0.318642 0.128499 0.450051 136 141 137
0.317297 0.128422 0.449053 135 140 136
0.316952 0.128651 0.448080 134 139 135
0.317489 0.128202 0.453214 134 139 135
0.319148 0.129042 0.452300 134 139 135
0.318803 0.129271 0.451325 135 140 136
0.317458 0.129193 0.450325 135 140 136
0.317114 0.129421 0.449352 134 139 135
0.316769 0.129650 0.448379 134 139 135
0.316992 0.128437 0.455423 135 140 136
0.316648 0.128665 0.454453 132 137 133
0.317306 0.129200 0.453513 133 138 134
0.316963 0.129428 0.452542 133 138 134
0.316619 0.129656 0.451570 133 138 134
0.317275 0.130192 0.450624 134 139 135
0.316930 0.130420 0.449651 134 139 135
0.316586 0.130649 0.448678 134 139 135
0.316809 0.129433 0.455721 133 137 136
0.316466 0.129661 0.454751 131 135 134
0.317124 0.130197 0.453812 131 137 133
0.316780 0.130425 0.452841 131 137 133
0.316436 0.130653 0.451869 131 137 133
0.316092 0.130881 0.450897 133 139 135
0.315748 0.131109 0.449926 135 140 136
0.315404 0.131337 0.448954 135 140 136
0.315624 0.130120 0.455985 134 138 137
0.315281 0.130347 0.455017 133 137 136
0.314938 0.130574 0.454048 133 138 134
0.315596 0.131112 0.453109 131 137 133
0.315253 0.131340 0.452139 133 138 134
0.314909 0.131568 0.451169 135 140 136
0.314566 0.131795 0.450199 136 141 137
0.314223 0.132023 0.449229 136 141 137
0.314877 0.132563 0.448281 136 141 137
0.315099 0.131341 0.455315 131 135 134
0.314756 0.131569 0.454346 132 137 133
0.314413 0.131796 0.453377 132 137 131
0.315070 0.132336 0.452438 136 138 133
0.314727 0.132564 0.451468 139 141 136
0.314383 0.132791 0.450498 138 140 137
0.314040 0.133019 0.449528 136 138 135
0.314694 0.133560 0.448580 134 139 135
0.313916 0.132023 0.455579 133 138 134
0.314574 0.132563 0.454644 135 137 132
0.314231 0.132790 0.453675 135 137 132
0.313888 0.133018 0.452707 136 138 133
0.313545 0.133245 0.451738 138 140 135
0.313202 0.133472 0.450770 137 139 136
0.313858 0.134015 0.449826 135 137 134
0.313514 0.134243 0.448856 133 138 134
0.313734 0.133016 0.455876 134 139 135
0.313391 0.133243 0.454909 136 138 133
0.314049 0.133785 0.453973 135 137 132
0.313706 0.134012 0.453005 136 138 135
0.313363 0.134240 0.452036 137 139 136
0.313020 0.134467 0.451068 134 139 135
0.312677 0.134694 0.450099 133 138 134
0.313332 0.135238 0.449154 133 137 136
0.312988 0.135466 0.448184 135 139 138
0.313209 0.134236 0.455206 136 138 133
0.313866 0.134779 0.454271 136 138 133
0.313524 0.135007 0.453303 136 138 135
0.313181 0.135234 0.452334 137 139 136
0.312838 0.135461 0.451366 135 140 136
0.312495 0.135689 0.450397 134 139 135
0.313027 0.135228 0.455504 136 138 135
0.313684 0.135774 0.454569 136 138 135
0.317335 0.128210 0.456393 136 141 137
0.317178 0.128216 0.459561 134 138 137
0.316835 0.128443 0.458593 134 138 137
0.316492 0.128671 0.457624 134 138 137
0.317152 0.129206 0.456691 134 138 137
0.317018 0.128222 0.462720 134 136 135
0.316676 0.128449 0.461753 133 137 136
0.316334 0.128675 0.460786 135 139 138
0.315991 0.128902 0.459819 135 139 138
0.315649 0.129129 0.458852 133 137 136
0.315307 0.129356 0.457885 132 136 135
0.315967 0.129892 0.456954 133 137 136
0.316172 0.128679 0.463937 130 132 129
0.315830 0.128906 0.462972 131 133 130
0.316494 0.129441 0.462050 134 136 133
0.316152 0.129668 0.461083 134 136 133
0.315809 0.129895 0.460116 135 137 134
0.315467 0.130122 0.459149 136 138 135
0.315125 0.130349 0.458182 135 140 136
0.315785 0.130887 0.457252 135 140 136
0.315442 0.131114 0.456283 133 137 136
0.315649 0.129897 0.463269 132 134 131
0.316312 0.130434 0.462348 136 138 135
0.315969 0.130661 0.461381 135 137 134
0.315627 0.130888 0.460414 135 137 134
0.315285 0.131115 0.459447 136 138 135
0.314943 0.131342 0.458480 135 140 136
0.314600 0.131569 0.457513 135 140 136
0.314258 0.131796 0.456546 134 138 137
0.315467 0.130888 0.463566 135 137 132
0.315125 0.131115 0.462600 135 140 136
0.315787 0.131654 0.461678 134 139 135
0.315445 0.131881 0.460711 133 138 134
0.315103 0.132108 0.459744 132 137 133
0.314761 0.132335 0.458777 133 138 134
0.314418 0.132562 0.457810 134 139 135
0.314076 0.132789 0.456843 134 139 135
0.315285 0.131880 0.463863 137 139 134
0.314943 0.132106 0.462897 134 139 135
0.315605 0.132647 0.461976 133 138 134
0.315263 0.132874 0.461009 132 137 133
0.314921 0.133101 0.460042 132 137 133
0.314579 0.133328 0.459075 132 137 133
0.314236 0.133555 0.458108 133 138 134
0.313894 0.133782 0.457140 134 139 135
0.313552 0.134009 0.456173 135 140 136
0.314762 0.133098 0.463194 133 138 132
0.315423 0.133640 0.462273 133 138 132
0.315081 0.133867 0.461306 133 138 132
0.314739 0.134094 0.460339 133 138 132
0.314397 0.134321 0.459372 133 138 132
0.314054 0.134547 0.458405 133 138 132
0.313712 0.134774 0.457438 135 140 134
0.313370 0.135001 0.456471 135 140 134
0.315584 0.134406 0.463538 132 137 131
0.315241 0.134632 0.462571 132 137 131
0.314899 0.134859 0.461603 133 138 132
0.314557 0.135086 0.460636 133 138 132
0.314215 0.135313 0.459669 132 137 131
0.313872 0.135540 0.458702 133 138 132
0.313530 0.135767 0.457735 133 138 132
0.313188 0.135994 0.456768 134 139 133
0.315402 0.135398 0.463835 131 136 132
0.315059 0.135625 0.462868 132 137 133
0.314717 0.135852 0.461901 133 138 134
0.316856 0.128226 0.465868 130 132 129
0.316514 0.128453 0.464903 129 131 128
0.319393 0.128392 0.471051 135 136 131
0.318041 0.128311 0.470027 132 134 131
0.317699 0.128537 0.469062 133 135 132
0.317358 0.128764 0.468096 133 135 132
0.317016 0.128991 0.467131 133 135 132
0.316674 0.129217 0.466165 133 135 132
0.316332 0.129444 0.465200 133 135 132
0.315990 0.129671 0.464234 133 135 132
0.319211 0.129384 0.471348 136 137 132
0.317859 0.129302 0.470324 131 133 128
0.317518 0.129529 0.469359 132 134 129
0.317176 0.129755 0.468393 133 135 130
0.316834 0.129982 0.467428 133 135 130
0.316492 0.130209 0.466462 133 135 130
0.316151 0.130435 0.465497 134 136 131
0.315809 0.130662 0.464531 135 137 132
0.319029 0.130377 0.471646 134 135 130
0.317678 0.130293 0.470621 131 133 128
0.317336 0.130520 0.469656 133 135 130
0.316994 0.130747 0.468690 135 137 132
0.316652 0.130973 0.467725 133 135 130
0.316311 0.131200 0.466759 131 133 128
0.315969 0.131426 0.465794 131 133 128
0.315627 0.131653 0.464828 134 136 131
0.318847 0.131370 0.471943 132 133 128
0.317496 0.131285 0.470918 131 133 128
0.317154 0.131511 0.469953 133 135 130
0.316812 0.131738 0.468987 133 135 130
0.316471 0.131965 0.468022 131 133 128
0.316129 0.132191 0.467056 129 131 126
0.315787 0.132418 0.466091 130 132 127
0.315445 0.132644 0.465125 134 136 131
0.315104 0.132871 0.464160 137 139 134
0.318322 0.132590 0.471274 131 133 128
0.316972 0.132503 0.470250 131 133 128
0.316631 0.132729 0.469284 130 132 127
0.316289 0.132956 0.468319 130 132 127
0.315947 0.133182 0.467353 132 134 129
0.315605 0.133409 0.466388 134 136 131
0.315264 0.133636 0.465422 135 137 132
0.314922 0.133862 0.464457 136 138 133
0.318140 0.133583 0.471571 130 132 127
0.316791 0.133494 0.470547 131 133 128
0.316449 0.133720 0.469581 131 133 128
0.316107 0.133947 0.468616 133 135 130
0.315765 0.134174 0.467650 135 137 132
0.315424 0.134400 0.466685 137 139 134
0.315082 0.134627 0.465719 136 138 135
0.315744 0.135171 0.464802 135 137 134
0.316247 0.135710 0.467034 136 138 133
0.315904 0.135937 0.466066 135 137 134
0.319735 0.128165 0.472018 136 137 132
0.319895 0.128930 0.473283 135 136 131
0.319553 0.129157 0.472316 135 136 131
0.319713 0.129923 0.473580 134 135 130
0.319371 0.130150 0.472613 133 134 129
0.319873 0.130689 0.474844 135 136 131
0.319531 0.130916 0.473877 135 136 131
0.319189 0.131143 0.472910 134 135 130
0.319349 0.131909 0.474175 136 137 132
0.319007 0.132136 0.473208 135 136 131
0.318665 0.132363 0.472241 133 134 129
0.318825 0.133129 0.473505 134 136 131
0.318483 0.133356 0.472538 132 134 129
0.321431 0.128017 0.474015 133 134 129
0.322620 0.128102 0.478187 131 132 127
0.322277 0.128329 0.477218 130 131 126
0.321934 0.128557 0.476250 131 132 127
0.321591 0.128784 0.475281 135 136 131
0.321249 0.129011 0.474313 136 137 132
0.322780 0.128869 0.479453 129 130 125
0.322438 0.129096 0.478485 132 133 128
0.322095 0.129324 0.477516 131 132 127
0.321752 0.129551 0.476548 132 133 128
0.321409 0.129778 0.475579 135 136 131
0.320055 0.129696 0.474547 136 137 132
0.322255 0.130091 0.478783 131 132 127
0.321912 0.130318 0.477814 132 133 128
0.321570 0.130545 0.476846 133 134 129
0.321227 0.130773 0.475877 134 135 130
0.321730 0.131312 0.478112 133 134 129
0.321387 0.131540 0.477144 134 135 130
0.321044 0.131767 0.476175 133 134 129
0.320702 0.131994 0.475206 134 135 130
0.321205 0.132534 0.477441 133 135 130
0.320862 0.132761 0.476473 133 135 130
0.320519 0.132989 0.475504 133 135 130
0.320176 0.133216 0.474536 135 137 132
0.314663 0.132016 0.439630 139 141 138
0.314480 0.133016 0.439930 139 141 138
0.313952 0.134246 0.439255 139 141 138
0.313607 0.134474 0.438280 138 140 139
0.314254 0.135018 0.437311 139 141 140
0.314900 0.135562 0.436338 139 143 142
0.314554 0.135791 0.435361 139 143 142
0.313768 0.135246 0.439555 139 141 138
0.313423 0.135475 0.438580 139 141 140
0.317790 0.128185 0.446827 135 140 136
0.317445 0.128413 0.445853 134 139 135
0.317100 0.128642 0.444878 133 138 134
0.315413 0.128794 0.442915 136 141 137
0.315069 0.129022 0.441942 136 141 137
0.314724 0.129250 0.440969 135 140 136
0.316608 0.128879 0.447107 134 139 135
0.316263 0.129107 0.446133 134 139 135
0.316917 0.129643 0.445178 135 140 136
0.315230 0.129793 0.443214 138 143 139
0.314885 0.130021 0.442241 136 141 137
0.314541 0.130249 0.441268 136 141 137
0.316425 0.129878 0.447406 134 139 135
0.315082 0.129799 0.446413 135 140 136
0.314738 0.130027 0.445442 136 141 137
0.314394 0.130255 0.444470 137 142 138
0.315047 0.130792 0.443514 139 141 138
0.314702 0.131020 0.442540 138 140 137
0.314358 0.131248 0.441567 138 140 137
0.315008 0.131787 0.440605 139 141 138
0.316241 0.130877 0.447705 135 140 136
0.314899 0.130796 0.446712 136 141 137
0.314555 0.131024 0.445741 137 142 138
0.314211 0.131252 0.444769 137 142 138
0.314864 0.131791 0.443813 138 140 137
0.314519 0.132019 0.442840 138 140 137
0.314175 0.132248 0.441867 139 141 138
0.314825 0.132788 0.440904 140 142 139
0.315060 0.131565 0.447983 135 140 136
0.314716 0.131794 0.447011 136 141 137
0.314372 0.132022 0.446039 136 141 137
0.314028 0.132250 0.445068 136 141 137
0.313684 0.132478 0.444096 138 140 137
0.314336 0.133018 0.443139 139 141 138
0.313992 0.133247 0.442166 139 141 138
0.314642 0.133788 0.441204 138 140 137
0.314297 0.134017 0.440229 138 140 137
0.314533 0.132791 0.447310 137 142 138
0.314189 0.133019 0.446338 135 140 136
0.313845 0.133247 0.445367 134 139 135
0.313502 0.133475 0.444395 137 139 136
0.313158 0.133703 0.443424 138 140 137
0.312814 0.133931 0.442452 138 140 137
0.313464 0.134474 0.441492 136 138 135
0.313120 0.134702 0.440519 137 139 136
0.314350 0.133789 0.447609 135 140 136
0.314007 0.134017 0.446637 136 140 139
0.313663 0.134245 0.445666 136 140 139
0.313319 0.134473 0.444694 138 140 139
0.312975 0.134701 0.443722 138 140 139
0.312631 0.134929 0.442751 137 139 138
0.313281 0.135473 0.441791 137 139 138
0.312936 0.135701 0.440818 139 141 140
0.313171 0.134470 0.447886 135 140 136
0.313824 0.135014 0.446936 136 140 139
0.313480 0.135242 0.445964 135 139 138
0.313136 0.135470 0.444993 137 139 138
0.312792 0.135698 0.444021 137 139 138
0.312448 0.135926 0.443050 138 140 139
0.311921 0.137152 0.442377 140 142 141
0.311577 0.137380 0.441405 141 143 142
0.311738 0.138149 0.442676 141 143 142
0.311394 0.138377 0.441704 141 143 142
0.311899 0.138919 0.443946 139 141 140
0.311555 0.139147 0.442975 139 141 140
0.311859 0.139926 0.441043 138 140 139
0.311717 0.139916 0.444245 138 140 139
0.311373 0.140144 0.443273 139 141 140
0.311878 0.140686 0.445515 136 140 139
0.311837 0.141696 0.442614 139 141 140
0.311695 0.141683 0.445814 134 138 137
0.311999 0.142466 0.443887 137 141 140
0.311956 0.143480 0.440978 136 138 137
0.311856 0.142453 0.447085 135 139 138
0.311512 0.142681 0.446113 136 140 139
0.311816 0.143465 0.444186 136 140 139
0.311673 0.143450 0.447384 136 140 139
0.311329 0.143678 0.446412 136 140 139
0.311948 0.138672 0.451291 135 139 138
0.311914 0.139678 0.448408 135 139 138
0.311766 0.139666 0.451589 135 139 138
0.311732 0.140674 0.448706 135 139 138
0.311893 0.141442 0.449974 135 139 138
0.311549 0.141669 0.449004 136 140 139
0.311710 0.142438 0.450273 136 140 139
0.311367 0.142665 0.449303 138 142 141
0.313098 0.136472 0.442091 138 140 139
0.312753 0.136700 0.441118 139 141 140
0.312409 0.136929 0.440145 141 143 142
0.313641 0.136012 0.447235 137 141 140
0.313297 0.136240 0.446263 136 140 139
0.312953 0.136468 0.445292 135 139 138
0.312609 0.136696 0.444320 135 139 138
0.312265 0.136924 0.443349 139 141 140
0.312226 0.137928 0.440444 141 143 142
0.313458 0.137009 0.447534 137 141 140
0.313114 0.137237 0.446562 137 141 140
0.312770 0.137465 0.445591 136 140 139
0.312426 0.137693 0.444619 136 140 139
0.312082 0.137921 0.443647 140 142 141
0.312042 0.138927 0.440743 140 142 141
0.312280 0.137686 0.447811 135 139 138
0.312931 0.138235 0.446861 136 140 139
0.312587 0.138463 0.445889 137 141 140
0.312243 0.138691 0.444918 137 141 140
0.312204 0.139698 0.442016 139 141 140
0.312506 0.140478 0.440079 138 140 139
0.312748 0.139232 0.447160 137 141 140
0.312404 0.139460 0.446188 138 142 141
0.312060 0.139688 0.445217 137 141 140
0.312021 0.140697 0.442315 139 141 140
0.312667 0.141250 0.441353 138 140 139
0.312322 0.141479 0.440379 138 140 139
0.312565 0.140230 0.447459 137 141 140
0.312221 0.140458 0.446487 137 141 140
0.312526 0.141239 0.444560 136 140 139
0.312182 0.141467 0.443587 137 141 140
0.312484 0.142251 0.441653 138 140 139
0.312139 0.142479 0.440678 137 139 138
0.312383 0.141227 0.447757 136 140 139
0.312039 0.141455 0.446786 136 140 139
0.312343 0.142238 0.444860 135 139 138
0.312646 0.143022 0.442927 139 141 140
0.312301 0.143251 0.441953 138 140 139
0.312160 0.143237 0.445159 136 140 139
0.313149 0.136234 0.449453 135 139 138
0.312806 0.136462 0.448483 137 141 140
0.313341 0.136001 0.453601 137 139 136
0.312998 0.136228 0.452632 137 139 136
0.312656 0.136456 0.451663 135 140 136
0.312313 0.136683 0.450695 135 140 136
0.312966 0.137230 0.449751 135 139 138
0.312623 0.137458 0.448781 136 140 139
0.312845 0.136221 0.455801 136 138 135
0.313502 0.136768 0.454867 137 139 136
0.313159 0.136995 0.453898 137 139 136
0.312816 0.137223 0.452930 137 139 136
0.312473 0.137450 0.451961 135 140 136
0.313127 0.137999 0.451019 135 140 136
0.312784 0.138226 0.450049 134 138 137
0.312440 0.138454 0.449079 134 138 137
0.312097 0.138682 0.448109 135 139 138
0.313320 0.137762 0.455165 137 139 136
0.312977 0.137990 0.454196 135 139 138
0.312634 0.138217 0.453228 135 139 138
0.312291 0.138444 0.452259 135 139 138
0.312601 0.139222 0.450348 134 138 137
0.312258 0.139450 0.449378 134 138 137
0.312109 0.139439 0.452557 135 139 138
0.312419 0.140218 0.450646 135 139 138
0.312075 0.140446 0.449676 135 139 138
0.312579 0.140986 0.451915 136 140 139
0.312236 0.141214 0.450945 135 139 138
0.312200 0.142225 0.448056 135 139 138
0.312397 0.141982 0.452213 134 138 137
0.312053 0.142210 0.451243 134 138 137
0.312017 0.143222 0.448355 137 141 140
0.313554 0.143079 0.453512 136 140 139
0.313210 0.143307 0.452540 134 138 137
0.312866 0.143535 0.451569 135 139 138
0.312522 0.143763 0.450597 137 141 140
0.312178 0.143992 0.449626 137 141 140
0.313715 0.143849 0.454782 138 140 139
0.314375 0.136079 0.460934 132 137 133
0.314032 0.136306 0.459967 130 136 132
0.313690 0.136533 0.459000 130 136 132
0.313348 0.136760 0.458033 131 137 133
0.313006 0.136987 0.457066 133 138 134
0.312663 0.137214 0.456099 136 138 135
0.311999 0.139935 0.437830 137 139 138
0.311978 0.141707 0.439404 137 139 138
0.311794 0.142708 0.439704 136 138 137
0.313259 0.140272 0.431371 136 137 139
0.312859 0.141514 0.427444 135 139 138
0.312511 0.141744 0.426463 135 139 138
0.313075 0.141277 0.431672 136 137 139
0.313715 0.141831 0.430688 137 138 140
0.313368 0.142061 0.429707 138 140 139
0.313021 0.142291 0.428726 137 139 138
0.312674 0.142521 0.427746 134 138 137
0.312327 0.142751 0.426765 134 138 137
0.312964 0.143307 0.425772 136 140 139
0.313878 0.142607 0.431970 137 138 140
0.313531 0.142837 0.430989 138 139 141
0.313184 0.143068 0.430009 138 140 139
0.312836 0.143298 0.429028 137 139 138
0.312489 0.143528 0.428047 134 138 137
0.312142 0.143758 0.427067 135 139 138
0.313346 0.143844 0.431291 138 139 141
0.314070 0.136020 0.437611 138 140 139
0.313725 0.136249 0.436635 137 141 140
0.314370 0.136795 0.435661 140 144 143
0.314024 0.137025 0.434684 139 143 142
0.314668 0.137572 0.433706 136 140 139
0.314321 0.137802 0.432727 135 139 138
0.313585 0.136247 0.439854 141 143 142
0.313240 0.136476 0.438880 140 142 141
0.313886 0.137022 0.437911 139 141 140
0.313541 0.137251 0.436935 139 141 140
0.314186 0.137799 0.435962 139 141 140
0.313840 0.138028 0.434985 138 140 139
0.314483 0.138577 0.434007 137 139 138
0.314137 0.138807 0.433028 137 138 140
0.313790 0.139037 0.432049 138 139 141
0.313056 0.137476 0.439180 140 142 141
0.312711 0.137705 0.438205 139 141 140
0.314348 0.138573 0.437241 139 141 140
0.314002 0.138803 0.436263 138 140 139
0.313656 0.139032 0.435285 138 140 139
0.314299 0.139582 0.434308 137 139 138
0.313953 0.139812 0.433329 137 138 140
0.313606 0.140042 0.432350 138 139 141
0.312873 0.138477 0.439479 139 141 140
0.312528 0.138706 0.438505 139 141 140
0.312183 0.138934 0.437530 138 140 139
0.313818 0.139806 0.436564 138 140 139
0.313472 0.140036 0.435586 137 139 138
0.314115 0.140588 0.434609 136 138 137
0.313768 0.140817 0.433630 137 138 140
0.313422 0.141047 0.432651 138 139 141
0.312689 0.139477 0.439779 138 140 139
0.312344 0.139706 0.438805 138 140 139
0.313634 0.140810 0.436864 137 139 138
0.313288 0.141040 0.435887 136 138 137
0.313931 0.141593 0.434910 136 138 137
0.313584 0.141823 0.433931 137 138 140
0.314225 0.142377 0.432951 138 139 141
0.313152 0.141031 0.439112 137 139 138
0.312806 0.141260 0.438136 137 139 138
0.313450 0.141814 0.437165 137 139 138
0.314040 0.143384 0.433252 138 138 140
0.313693 0.143614 0.432272 138 139 141
0.312622 0.142262 0.438436 137 139 138
0.313266 0.142818 0.437466 136 138 137
0.313909 0.143374 0.436492 136 138 137
0.312439 0.143264 0.438737 135 137 136
0.313082 0.143821 0.437766 136 138 137
0.311807 0.146533 0.432199 137 137 137
0.311969 0.147309 0.433479 137 137 137
0.311623 0.147538 0.432500 138 138 138
0.311838 0.147291 0.436713 138 138 138
0.311492 0.147521 0.435736 136 136 136
0.311146 0.147750 0.434758 137 137 137
0.310800 0.147980 0.433780 139 139 139
0.310454 0.148209 0.432803 140 140 140
0.312000 0.148066 0.437992 138 138 138
0.311654 0.148295 0.437014 136 136 136
0.311308 0.148524 0.436036 135 135 135
0.310962 0.148754 0.435059 137 137 137
0.310616 0.148983 0.434081 140 140 140
0.310270 0.149213 0.433103 141 141 141
0.309923 0.149442 0.432126 139 139 139
0.311816 0.149069 0.438292 137 137 137
0.311470 0.149299 0.437315 135 135 135
0.311124 0.149528 0.436337 135 135 135
0.310778 0.149758 0.435359 138 138 138
0.310432 0.149987 0.434382 139 139 139
0.308756 0.150108 0.432429 138 138 138
0.311978 0.149844 0.439571 136 138 137
0.311632 0.150073 0.438593 136 138 137
0.311286 0.150302 0.437615 136 138 137
0.310940 0.150532 0.436638 137 137 137
0.309609 0.150423 0.435657 140 140 140
0.309263 0.150652 0.434681 139 139 139
0.308918 0.150881 0.433705 139 139 139
0.308572 0.151110 0.432729 138 138 138
0.311794 0.150847 0.439871 136 138 137
0.311448 0.151077 0.438894 138 140 139
0.311102 0.151306 0.437916 137 139 138
0.310756 0.151536 0.436938 138 138 138
0.309425 0.151425 0.435958 140 140 140
0.309079 0.151654 0.434982 140 140 140
0.308734 0.151883 0.434005 140 140 140
0.311772 0.144481 0.441278 138 140 139
0.311977 0.144236 0.445458 136 140 139
0.311632 0.144465 0.444485 135 139 138
0.311934 0.145252 0.442552 137 139 136
0.311490 0.144448 0.447682 136 141 137
0.311146 0.144676 0.446711 134 139 135
0.311794 0.145235 0.445758 136 138 135
0.311449 0.145464 0.444785 137 139 136
0.311750 0.146253 0.442852 135 137 134
0.311307 0.145445 0.447981 136 141 137
0.310963 0.145673 0.447010 133 138 134
0.311611 0.146234 0.446057 135 137 134
0.311266 0.146463 0.445084 136 138 135
0.311912 0.147025 0.444127 136 138 135
0.311567 0.147254 0.443152 134 136 133
0.311865 0.148046 0.441214 137 139 136
0.311772 0.147005 0.447329 134 139 135
0.311427 0.147233 0.446356 136 138 135
0.311728 0.148025 0.444426 137 139 134
0.310597 0.147668 0.447607 135 140 136
0.311244 0.148232 0.446656 137 139 136
0.311890 0.148797 0.445701 138 140 137
0.311545 0.149026 0.444726 138 140 135
0.310415 0.148666 0.447906 136 138 135
0.311061 0.149231 0.446955 137 139 134
0.311707 0.149798 0.446000 137 139 134
0.311362 0.150027 0.445026 138 140 135
0.311956 0.151622 0.441150 134 136 135
0.311610 0.151851 0.440172 135 137 136
0.310878 0.150230 0.447254 135 137 132
0.311822 0.151597 0.444367 138 140 135
0.311834 0.144220 0.448654 137 141 140
0.311995 0.144989 0.449924 136 140 139
0.311651 0.145217 0.448953 137 141 140
0.311812 0.145987 0.450223 136 140 139
0.311468 0.146215 0.449252 137 141 140
0.311124 0.146443 0.448280 136 141 137
0.311973 0.146756 0.451494 135 139 138
0.311629 0.146984 0.450522 137 141 140
0.311285 0.147212 0.449551 137 141 140
0.310941 0.147440 0.448579 136 141 137
0.311790 0.147753 0.451793 134 138 137
0.311446 0.147981 0.450821 136 141 137
0.311102 0.148210 0.449849 135 140 136
0.310759 0.148438 0.448878 136 138 135
0.311951 0.148523 0.453063 137 139 138
0.311607 0.148751 0.452091 134 138 137
0.311263 0.148979 0.451120 134 136 133
0.310920 0.149207 0.450148 133 135 132
0.310576 0.149435 0.449177 133 135 132
0.310232 0.149663 0.448205 134 136 133
0.311768 0.149520 0.453362 138 140 137
0.311425 0.149748 0.452390 138 140 137
0.312736 0.144051 0.436789 137 137 137
0.313378 0.144609 0.435814 137 137 137
0.313031 0.144839 0.434835 136 136 136
0.312685 0.145068 0.433856 136 136 136
0.312338 0.145298 0.432877 138 138 138
0.312255 0.144266 0.439037 134 136 135
0.312898 0.144825 0.438067 136 138 137
0.312552 0.145054 0.437090 138 138 138
0.313193 0.145614 0.436115 138 138 138
0.312847 0.145844 0.435136 137 137 137
0.312500 0.146074 0.434157 137 137 137
0.312154 0.146303 0.433178 137 137 137
0.313060 0.145599 0.439345 135 137 136
0.312714 0.145829 0.438368 136 138 137
0.313356 0.146389 0.437396 139 139 139
0.313009 0.146619 0.436416 139 139 139
0.312663 0.146849 0.435437 137 137 137
0.312316 0.147079 0.434458 136 136 136
0.312876 0.146603 0.439646 137 139 138
0.312530 0.146832 0.438669 138 140 139
0.313171 0.147395 0.437697 140 140 140
0.312692 0.147607 0.439947 138 140 139
0.312346 0.147836 0.438969 138 140 139
0.312162 0.148840 0.439270 137 139 138
0.312600 0.144037 0.440013 135 137 136
0.312462 0.144023 0.443227 138 140 137
0.312117 0.144252 0.442253 138 140 137
0.312417 0.145040 0.440313 137 139 138
0.312279 0.145024 0.443527 137 139 136
0.312578 0.145813 0.441590 137 139 138
0.313222 0.146374 0.440624 138 140 139
0.312095 0.146024 0.443827 136 138 135
0.312395 0.146815 0.441890 134 136 133
0.312049 0.147044 0.440914 137 139 136
0.312211 0.147817 0.442190 134 136 133
0.312508 0.148610 0.440248 138 140 139
0.312073 0.147797 0.445401 137 139 136
0.312373 0.148590 0.443466 135 137 132
0.312027 0.148819 0.442490 137 139 136
0.312670 0.149385 0.441526 138 140 137
0.312324 0.149614 0.440548 137 139 138
0.312189 0.149592 0.443767 137 139 134
0.312832 0.150159 0.442804 138 140 137
0.312486 0.150388 0.441827 138 140 137
0.312140 0.150618 0.440849 136 138 137
0.312005 0.150594 0.444067 138 140 135
0.312648 0.151163 0.443105 134 139 135
0.312302 0.151392 0.442127 134 139 135
0.312167 0.151367 0.445343 137 139 134
0.313371 0.144077 0.453811 135 139 138
0.313027 0.144305 0.452839 136 140 139
0.312683 0.144533 0.451868 137 141 140
0.312339 0.144761 0.450896 136 140 139
0.313532 0.144846 0.455081 139 141 140
0.313188 0.145074 0.454110 136 140 139
0.312844 0.145302 0.453138 135 139 138
0.312500 0.145530 0.452166 135 139 138
0.312156 0.145758 0.451195 136 140 139
0.313005 0.146072 0.454408 137 141 140
0.312661 0.146300 0.453437 132 136 135
0.312317 0.146528 0.452465 131 135 134
0.312822 0.147069 0.454707 138 140 139
0.312478 0.147297 0.453736 134 136 135
0.312134 0.147525 0.452764 131 135 134
0.312295 0.148295 0.454035 136 138 137
0.311958 0.144765 0.427368 138 140 139
0.311610 0.144995 0.426388 139 141 140
0.311773 0.145772 0.427670 138 140 139
0.311426 0.146002 0.426689 139 141 140
0.311079 0.146232 0.425709 139 141 140
0.311714 0.146793 0.424714 138 140 139
0.311991 0.145528 0.431897 138 138 138
0.311936 0.146548 0.428952 138 140 139
0.311588 0.146779 0.427972 137 139 138
0.311241 0.147009 0.426991 138 140 139
0.310894 0.147239 0.426010 139 141 140
0.310547 0.147469 0.425029 138 140 139
0.311181 0.148032 0.424033 139 141 140
0.311751 0.147555 0.429254 137 139 138
0.311404 0.147785 0.428273 136 138 137
0.311057 0.148016 0.427292 137 139 138
0.310710 0.148246 0.426312 139 141 140
0.310362 0.148476 0.425331 138 140 139
0.310996 0.149040 0.424336 140 142 141
0.311276 0.147768 0.431521 138 138 138
0.310930 0.147998 0.430541 138 138 138
0.310583 0.148228 0.429562 139 139 139
0.311219 0.148792 0.428575 139 139 139
0.310872 0.149022 0.427594 136 138 137
0.310525 0.149253 0.426613 137 139 138
0.310178 0.149483 0.425633 138 140 139
0.310812 0.150049 0.424638 139 141 140
0.310107 0.148439 0.431825 139 139 139
0.309761 0.148668 0.430847 138 138 138
0.310399 0.149233 0.429863 139 139 139
0.310052 0.149463 0.428884 138 138 138
0.309705 0.149693 0.427905 135 137 136
0.310340 0.150259 0.426915 136 138 137
0.309993 0.150490 0.425934 138 140 139
0.309646 0.150720 0.424954 138 140 139
0.309577 0.149672 0.431148 138 138 138
0.309231 0.149901 0.430171 139 139 139
0.308885 0.150131 0.429193 138 138 138
0.308539 0.150360 0.428215 136 136 134
0.309175 0.150928 0.427227 137 137 135
0.309809 0.151496 0.426236 140 140 138
0.309462 0.151727 0.425255 138 138 136
0.309114 0.151957 0.424275 139 141 138
0.308410 0.150337 0.431453 138 138 138
0.309047 0.150905 0.430471 139 139 139
0.308701 0.151134 0.429494 139 139 139
0.308355 0.151364 0.428516 138 138 136
0.308009 0.151593 0.427538 139 139 137
0.308226 0.151339 0.431753 138 138 138
0.307881 0.151568 0.430777 140 140 140
0.312779 0.144315 0.426074 136 140 139
0.312999 0.144074 0.430310 137 139 138
0.312652 0.144305 0.429330 137 139 138
0.312305 0.144535 0.428349 137 139 138
0.313162 0.144851 0.431593 137 138 140
0.312814 0.145081 0.430612 137 139 138
0.312467 0.145311 0.429631 137 139 138
0.312120 0.145542 0.428651 138 140 139
0.312630 0.146088 0.430914 138 138 138
0.312283 0.146318 0.429933 139 139 139
0.312445 0.147095 0.431215 138 138 138
0.312098 0.147325 0.430234 139 139 139
0.311366 0.147024 0.423731 137 139 138
0.312000 0.147586 0.422732 136 138 137
0.311652 0.147817 0.421748 135 137 136
0.310834 0.148263 0.423051 138 140 139
0.311466 0.148827 0.422051 136 138 137
0.311118 0.149057 0.421067 136 138 137
0.311749 0.149623 0.420062 138 140 139
0.311400 0.149854 0.419077 139 141 140
0.310649 0.149271 0.423353 140 142 141
0.311281 0.149837 0.422353 137 139 138
0.310933 0.150067 0.421370 137 139 138
0.310585 0.150298 0.420386 139 141 140
0.311215 0.150865 0.419380 140 142 141
0.310866 0.151097 0.418395 138 140 139
0.310464 0.150279 0.423656 138 140 139
0.310116 0.150510 0.422673 138 140 139
0.310748 0.151077 0.421672 140 142 141
0.310400 0.151308 0.420688 140 142 141
0.310051 0.151539 0.419705 137 139 138
0.309703 0.151770 0.418721 135 137 136
0.310279 0.151288 0.423958 139 141 140
0.309931 0.151518 0.422975 139 141 140
0.309584 0.151749 0.421993 137 139 138
0.308644 0.152163 0.426549 142 142 140
0.309277 0.152733 0.425557 136 136 134
0.308930 0.152964 0.424576 136 138 135
0.308517 0.152138 0.429794 140 140 140
0.308171 0.152368 0.428817 138 140 137
0.307825 0.152597 0.427839 139 141 138
0.308459 0.153168 0.426850 141 141 139
0.309092 0.153740 0.425859 135 135 133
0.308745 0.153970 0.424878 137 137 135
0.307697 0.152570 0.431077 139 139 139
0.307352 0.152799 0.430101 139 139 139
0.307987 0.153371 0.429117 137 139 136
0.307641 0.153601 0.428140 138 140 137
0.307295 0.153830 0.427162 139 139 137
0.307928 0.154403 0.426172 137 137 135
0.308561 0.154977 0.425180 139 139 137
0.308214 0.155207 0.424199 141 141 139
0.307513 0.153573 0.431377 139 139 139
0.307168 0.153802 0.430401 139 139 139
0.307803 0.154375 0.429418 136 138 135
0.307457 0.154604 0.428440 137 139 136
0.307111 0.154834 0.427463 138 138 136
0.307744 0.155409 0.426474 139 139 137
0.308376 0.155984 0.425481 140 140 138
0.308029 0.156214 0.424501 140 140 138
0.307330 0.154575 0.431678 139 139 139
0.306984 0.154804 0.430701 139 139 139
0.307619 0.155379 0.429719 137 139 136
0.307273 0.155608 0.428741 137 139 136
0.306927 0.155838 0.427763 138 138 136
0.307560 0.156414 0.426775 138 138 136
0.307213 0.156644 0.425796 137 137 135
0.307844 0.157221 0.424802 136 136 134
0.307146 0.155577 0.431978 139 139 137
0.306800 0.155806 0.431002 139 139 137
0.307435 0.156382 0.430019 138 138 136
0.307089 0.156612 0.429042 137 137 135
0.306743 0.156841 0.428064 137 137 135
0.307376 0.157419 0.427076 138 138 136
0.307029 0.157649 0.426097 139 139 137
0.307660 0.158228 0.425104 139 139 137
0.307313 0.158458 0.424123 137 137 135
0.307538 0.158195 0.428356 138 138 136
0.307191 0.158424 0.427377 138 138 136
0.306845 0.158654 0.426398 138 138 136
0.307475 0.159235 0.425406 138 138 136
0.307128 0.159465 0.424425 138 138 136
0.308388 0.152112 0.433029 138 138 138
0.308043 0.152341 0.432053 138 138 138
0.311264 0.152080 0.439194 138 140 139
0.310918 0.152310 0.438217 138 140 139
0.310572 0.152539 0.437239 138 138 138
0.309241 0.152427 0.436258 138 138 138
0.308896 0.152656 0.435282 139 139 139
0.308550 0.152885 0.434306 139 139 139
0.308205 0.153114 0.433330 138 138 138
0.307859 0.153343 0.432353 137 137 137
0.311080 0.153084 0.439495 139 141 140
0.310734 0.153314 0.438518 138 140 137
0.310388 0.153543 0.437540 137 137 137
0.307675 0.154346 0.432654 137 137 137
0.310896 0.154088 0.439796 140 140 138
0.309565 0.153973 0.438811 136 137 132
0.309219 0.154202 0.437835 139 139 137
0.307492 0.155348 0.432954 139 139 137
0.309381 0.154975 0.439111 138 139 134
0.309035 0.155204 0.438135 140 141 136
0.311772 0.152625 0.441450 134 136 133
0.311426 0.152855 0.440473 136 138 135
0.310947 0.153057 0.442715 136 137 132
0.310601 0.153286 0.441739 136 137 132
0.311242 0.153858 0.440774 141 142 137
0.310763 0.154059 0.443015 138 139 134
0.310418 0.154288 0.442039 138 139 134
0.311058 0.154862 0.441074 140 141 136
0.310712 0.155092 0.440097 140 141 136
0.312464 0.152166 0.443406 134 136 133
0.312118 0.152396 0.442428 134 136 133
0.310214 0.152318 0.420991 136 138 137
0.309866 0.152549 0.420007 137 139 138
0.309518 0.152780 0.419024 137 139 138
0.309747 0.152527 0.423278 139 141 138
0.309399 0.152757 0.422295 136 138 137
0.310029 0.153328 0.421294 135 137 136
0.309681 0.153559 0.420310 138 140 139
0.309333 0.153790 0.419326 139 141 140
0.308583 0.153194 0.423596 139 141 138
0.309214 0.153766 0.422597 136 138 137
0.308866 0.153996 0.421615 137 139 138
0.308519 0.154227 0.420633 140 142 141
0.309148 0.154800 0.419629 139 141 140
0.308800 0.155031 0.418645 137 139 138
0.308398 0.154201 0.423897 140 140 138
0.309029 0.154774 0.422900 136 138 135
0.308681 0.155004 0.421917 137 139 136
0.308334 0.155235 0.420935 140 142 139
0.308963 0.155810 0.419931 138 140 137
0.308614 0.156041 0.418948 137 139 136
0.308844 0.155782 0.423202 136 138 135
0.308497 0.156013 0.422219 136 138 135
0.308149 0.156243 0.421237 138 140 137
0.307801 0.156474 0.420255 139 141 138
0.307454 0.156704 0.419273 139 141 138
0.308659 0.156791 0.423504 138 138 136
0.308312 0.157021 0.422522 138 138 136
0.307964 0.157252 0.421539 138 140 137
0.307616 0.157482 0.420557 139 141 138
0.307269 0.157713 0.419575 140 142 139
0.307497 0.157451 0.423822 139 139 137
0.306803 0.157912 0.421860 138 140 137
0.306456 0.158142 0.420880 137 139 136
0.306109 0.158372 0.419899 140 142 139
0.306618 0.158918 0.422162 139 140 135
0.306271 0.159149 0.421181 141 142 137
0.305924 0.159379 0.420201 141 142 137
0.306781 0.159695 0.423444 138 138 136
0.306434 0.159925 0.422463 139 140 135
0.306087 0.160155 0.421483 140 141 136
0.306596 0.160702 0.423746 138 139 134
0.306249 0.160932 0.422765 139 140 135
0.307638 0.160011 0.426688 137 137 135
0.307291 0.160242 0.425707 138 138 136
0.306944 0.160472 0.424726 138 139 134
