ply
format ascii 1.0
element vertex 1514
property float x
property float y
property float z
property uchar red
property uchar green
property uchar blue
end_header
0.026583 0.137848 0.398000 183 180 171
0.027235 0.137848 0.398000 183 180 171
0.027887 0.137848 0.398000 183 180 171
0.028539 0.137848 0.398000 184 181 172
0.025279 0.138502 0.398000 185 182 173
0.025931 0.138502 0.398000 184 181 172
0.026583 0.138502 0.398000 184 181 172
0.027235 0.138502 0.398000 184 181 172
0.027887 0.138502 0.398000 184 181 172
0.028539 0.138502 0.398000 185 182 173
0.025279 0.139155 0.398000 186 183 174
0.025931 0.139155 0.398000 185 182 173
0.026583 0.139155 0.398000 185 182 173
0.027235 0.139155 0.398000 185 182 173
0.027887 0.139155 0.398000 185 182 173
0.028539 0.139155 0.398000 185 182 173
0.027887 0.139809 0.398000 185 182 173
0.028539 0.139809 0.398000 186 183 174
0.027887 0.140463 0.398000 185 182 173
0.028539 0.140463 0.398000 185 182 173
0.027887 0.141117 0.398000 185 182 173
0.028539 0.141117 0.398000 185 182 173
0.031183 0.136011 0.397100 163 136 106
0.023774 0.133666 0.391634 153 128 98
0.023566 0.133804 0.391049 162 137 107
0.023359 0.133941 0.390464 159 134 104
0.023152 0.134078 0.389879 160 135 105
0.021652 0.133358 0.391450 159 134 104
0.021446 0.133494 0.390868 159 134 104
0.021240 0.133631 0.390286 161 136 106
0.020640 0.133430 0.391739 156 131 101
0.020435 0.133566 0.391159 158 133 103
0.020229 0.133703 0.390578 160 135 105
0.020531 0.134026 0.391918 159 134 104
0.020326 0.134162 0.391338 158 133 103
0.020120 0.134299 0.390757 159 134 104
0.023981 0.133529 0.392219 151 126 96
0.023380 0.133333 0.393674 155 130 99
0.023174 0.133470 0.393090 154 129 99
0.022967 0.133607 0.392507 154 129 99
0.021858 0.133221 0.392032 156 131 101
0.023684 0.133658 0.395020 163 138 107
0.022573 0.133272 0.394539 158 133 102
0.022366 0.133409 0.393957 153 128 97
0.022160 0.133545 0.393375 153 128 98
0.021954 0.133682 0.392793 157 132 102
0.020846 0.133294 0.392320 157 132 102
0.023987 0.133984 0.396367 159 132 102
0.022875 0.133596 0.395883 161 136 105
0.022669 0.133733 0.395300 159 134 103
0.022463 0.133870 0.394718 151 126 95
0.021353 0.133481 0.394240 153 128 97
0.021148 0.133617 0.393660 155 130 100
0.020942 0.133754 0.393079 157 132 102
0.020737 0.133890 0.392499 158 133 103
0.023877 0.134583 0.396546 157 132 101
0.020050 0.132617 0.396358 158 133 102
0.019846 0.132753 0.395780 156 131 100
0.022353 0.134467 0.394897 149 124 93
0.021244 0.134077 0.394419 156 131 100
0.021038 0.134213 0.393838 157 132 102
0.020833 0.134350 0.393258 157 132 102
0.020627 0.134486 0.392677 158 133 103
0.020422 0.134622 0.392097 161 136 106
0.019942 0.133210 0.396535 156 131 100
0.019737 0.133346 0.395958 158 133 102
0.031883 0.134020 0.390252 164 137 108
0.031461 0.134300 0.389057 160 133 104
0.030346 0.133927 0.388576 159 132 103
0.030135 0.134067 0.387980 160 133 104
0.031077 0.133980 0.391141 166 139 110
0.030866 0.134120 0.390546 165 138 109
0.030655 0.134259 0.389950 158 131 102
0.030444 0.134399 0.389354 160 133 104
0.029330 0.134025 0.388874 160 133 104
0.029120 0.134164 0.388280 161 134 105
0.028909 0.134303 0.387685 160 133 104
0.031176 0.134452 0.391920 161 134 105
0.030060 0.134077 0.391433 164 137 108
0.029849 0.134216 0.390839 163 136 107
0.029639 0.134356 0.390245 156 131 101
0.028525 0.133979 0.389764 157 132 102
0.028315 0.134118 0.389171 159 132 103
0.028105 0.134258 0.388578 160 133 104
0.028798 0.134913 0.387868 159 132 103
0.029043 0.134171 0.391724 163 136 107
0.028833 0.134310 0.391131 162 135 106
0.027719 0.133932 0.390650 157 132 102
0.027510 0.134071 0.390059 155 130 100
0.027301 0.134209 0.389467 158 131 102
0.027092 0.134348 0.388876 159 132 103
0.028686 0.135523 0.388051 159 132 103
0.026913 0.133882 0.391532 160 135 105
0.026704 0.134020 0.390942 157 132 102
0.026496 0.134159 0.390353 156 131 101
0.027190 0.134816 0.389649 158 131 102
0.026980 0.134955 0.389058 158 131 102
0.024995 0.133448 0.391930 153 128 98
0.024787 0.133586 0.391344 153 128 98
0.024579 0.133723 0.390757 160 135 105
0.031386 0.134312 0.392516 161 134 105
0.031907 0.134504 0.394486 163 136 106
0.031696 0.134644 0.393891 163 136 106
0.030579 0.134268 0.393398 154 127 97
0.030368 0.134408 0.392804 164 137 108
0.029253 0.134031 0.392317 162 135 106
0.031098 0.134460 0.395364 165 138 108
0.030887 0.134600 0.394769 165 138 108
0.030677 0.134739 0.394175 161 134 104
0.028654 0.133845 0.393787 160 133 103
0.028445 0.133984 0.393196 163 138 108
0.029141 0.134640 0.392499 158 133 103
0.027122 0.133744 0.392121 161 136 106
0.031196 0.134931 0.396141 161 134 104
0.030078 0.134553 0.395644 164 137 107
0.029869 0.134692 0.395052 163 136 106
0.028752 0.134313 0.394560 165 138 108
0.027637 0.133934 0.394072 160 133 103
0.026523 0.133554 0.393586 161 136 106
0.026315 0.133692 0.392998 158 133 103
0.025202 0.133310 0.392517 159 134 104
0.031505 0.135262 0.397512 159 132 103
0.031295 0.135401 0.396917 165 138 108
0.030177 0.135022 0.396419 163 136 106
0.029967 0.135161 0.395827 164 137 107
0.029757 0.135300 0.395234 163 136 106
0.027735 0.134401 0.394843 163 138 107
0.026620 0.134019 0.394355 159 134 103
0.025507 0.133637 0.393871 160 135 104
0.024395 0.133255 0.393389 157 132 101
0.024188 0.133392 0.392804 156 131 101
0.031393 0.135872 0.397694 163 136 107
0.030065 0.135631 0.396602 162 135 105
0.028041 0.134729 0.396203 162 135 105
0.027833 0.134868 0.395614 164 137 107
0.026718 0.134485 0.395124 160 135 104
0.024699 0.133581 0.394739 162 137 106
0.024492 0.133718 0.394154 160 135 104
0.028139 0.135196 0.396974 160 133 103
0.027930 0.135335 0.396384 160 133 103
0.025909 0.134429 0.395991 162 135 105
0.024796 0.134044 0.395504 161 136 105
0.028028 0.135802 0.397155 161 134 104
0.027819 0.135940 0.396566 161 134 104
0.037280 0.134911 0.391139 162 135 106
0.036159 0.134545 0.390643 163 136 107
0.035945 0.134687 0.390040 160 133 104
0.034444 0.134005 0.391646 159 132 103
0.034232 0.134146 0.391046 163 136 107
0.034019 0.134286 0.390445 159 132 103
0.033807 0.134427 0.389845 162 135 106
0.033424 0.134110 0.391937 159 132 103
0.032306 0.133740 0.391446 163 136 107
0.032095 0.133880 0.390849 164 137 108
0.032194 0.134353 0.391630 161 134 105
0.039955 0.135356 0.393356 165 138 108
0.039740 0.135499 0.392748 164 137 107
0.039306 0.134113 0.397373 158 131 101
0.039092 0.134255 0.396768 155 128 98
0.038878 0.134397 0.396163 157 130 100
0.038664 0.134539 0.395559 161 134 104
0.038450 0.134681 0.394954 164 137 107
0.038236 0.134823 0.394349 164 137 107
0.037113 0.134457 0.393845 163 136 106
0.035990 0.134090 0.393344 161 134 104
0.035777 0.134231 0.392742 160 133 103
0.035564 0.134373 0.392141 161 134 104
0.038707 0.133943 0.398857 159 132 102
0.038494 0.134085 0.398253 160 133 103
0.038280 0.134227 0.397650 158 131 101
0.038067 0.134368 0.397047 157 130 100
0.037853 0.134510 0.396444 160 133 103
0.036729 0.134143 0.395936 164 137 107
0.036516 0.134284 0.395334 165 138 108
0.036303 0.134426 0.394733 164 137 107
0.036090 0.134567 0.394131 162 135 105
0.034969 0.134198 0.393631 160 133 103
0.034756 0.134339 0.393031 161 134 104
0.033636 0.133970 0.392535 164 137 107
0.037894 0.133914 0.399732 160 133 103
0.037681 0.134055 0.399130 161 134 104
0.037468 0.134196 0.398528 161 134 104
0.037255 0.134337 0.397926 160 133 103
0.036131 0.133969 0.397417 159 132 102
0.035918 0.134110 0.396817 161 134 104
0.035706 0.134251 0.396217 163 136 106
0.035493 0.134392 0.395616 163 136 106
0.035281 0.134533 0.395016 162 135 105
0.034159 0.134163 0.394516 162 135 105
0.033948 0.134303 0.393917 161 134 104
0.033736 0.134444 0.393318 160 133 103
0.032617 0.134072 0.392824 162 135 105
0.032405 0.134212 0.392227 159 132 103
0.037781 0.134531 0.399917 160 133 104
0.036655 0.134163 0.399402 161 134 105
0.036442 0.134304 0.398802 160 133 104
0.036230 0.134445 0.398202 160 133 103
0.036018 0.134586 0.397602 160 133 103
0.035805 0.134726 0.397001 161 134 104
0.035593 0.134867 0.396401 162 135 105
0.034471 0.134496 0.395897 160 133 103
0.034259 0.134637 0.395299 162 135 105
0.034047 0.134777 0.394700 163 136 106
0.033835 0.134918 0.394101 162 135 105
0.032716 0.134545 0.393605 160 133 103
0.032504 0.134685 0.393008 157 130 100
0.036542 0.134779 0.399587 160 133 104
0.036330 0.134920 0.398987 158 131 102
0.036117 0.135061 0.398386 159 132 102
0.035905 0.135202 0.397786 160 133 103
0.034782 0.134830 0.397279 161 134 104
0.034570 0.134971 0.396680 161 134 104
0.033449 0.134598 0.396177 161 134 104
0.033237 0.134738 0.395580 163 136 106
0.033026 0.134878 0.394983 165 138 108
0.036429 0.135395 0.399772 158 133 103
0.036217 0.135536 0.399171 159 134 104
0.035093 0.135164 0.398660 161 134 105
0.034881 0.135304 0.398062 162 135 106
0.033759 0.134931 0.397555 161 134 104
0.033548 0.135071 0.396958 154 127 97
0.032427 0.134696 0.396457 162 135 105
0.032217 0.134836 0.395861 158 131 101
0.035192 0.135638 0.399443 161 136 106
0.034980 0.135778 0.398845 161 134 105
0.034768 0.135919 0.398246 159 132 103
0.033647 0.135544 0.397739 156 129 99
0.032526 0.135168 0.397235 154 127 97
0.032315 0.135308 0.396640 164 137 107
0.039875 0.133713 0.402662 159 132 102
0.039662 0.133855 0.402058 156 129 99
0.038533 0.133490 0.401537 154 127 97
0.038320 0.133631 0.400935 155 128 98
0.038107 0.133772 0.400333 158 131 101
0.039762 0.134333 0.402847 158 131 101
0.039548 0.134474 0.402244 157 130 100
0.038420 0.134108 0.401722 156 129 99
0.038207 0.134249 0.401120 156 129 99
0.037994 0.134390 0.400519 158 131 102
0.039648 0.134952 0.403033 158 131 101
0.039435 0.135094 0.402430 159 132 102
0.038306 0.134725 0.401907 159 132 102
0.038093 0.134867 0.401305 157 130 100
0.037880 0.135008 0.400704 158 131 102
0.037667 0.135149 0.400102 160 133 104
0.039535 0.135571 0.403218 156 131 100
0.039321 0.135713 0.402615 158 133 102
0.038193 0.135343 0.402092 157 132 101
0.037980 0.135484 0.401490 153 128 97
0.037767 0.135626 0.400889 157 132 102
0.036641 0.135255 0.400372 160 135 105
0.038080 0.135961 0.402277 157 132 101
0.036528 0.135871 0.400556 161 136 106
0.036316 0.136012 0.399956 157 132 102
0.035080 0.136253 0.399627 160 135 105
0.034868 0.136393 0.399029 162 135 106
0.034656 0.136534 0.398430 160 133 104
0.033534 0.136157 0.397923 155 128 99
0.039207 0.136332 0.402801 157 132 101
0.037867 0.136102 0.401676 153 128 97
0.037654 0.136243 0.401074 156 131 101
0.039094 0.136952 0.402986 155 130 99
0.037967 0.136579 0.402462 158 133 102
0.037754 0.136720 0.401861 154 129 98
0.037541 0.136861 0.401259 157 132 102
0.036416 0.136487 0.400741 161 136 106
0.036203 0.136628 0.400141 157 132 102
0.038980 0.137571 0.403172 155 130 99
0.038767 0.137713 0.402569 157 132 101
0.039995 0.138566 0.403885 153 128 97
0.038867 0.138190 0.403357 157 132 101
0.038653 0.138332 0.402754 157 132 101
0.013469 0.127245 0.405736 161 134 104
0.013270 0.127377 0.405174 161 134 104
0.013071 0.127509 0.404612 162 135 105
0.012871 0.127641 0.404049 157 130 100
0.012473 0.127905 0.402925 160 133 104
0.013363 0.127823 0.405909 161 134 104
0.013164 0.127954 0.405347 160 133 103
0.012274 0.128037 0.402362 161 134 104
0.012965 0.128086 0.404785 159 132 102
0.012766 0.128218 0.404222 157 130 100
0.012567 0.128350 0.403660 160 133 103
0.012368 0.128482 0.403098 160 133 103
0.012168 0.128614 0.402535 162 135 105
0.011969 0.128746 0.401973 161 134 104
0.013257 0.128400 0.406082 159 132 102
0.012147 0.128003 0.405597 157 130 100
0.011949 0.128135 0.405036 156 129 99
0.011750 0.128266 0.404475 158 131 101
0.011552 0.128398 0.403914 162 135 105
0.011353 0.128530 0.403353 162 135 105
0.011155 0.128661 0.402792 162 135 105
0.011864 0.129324 0.402146 161 134 104
0.013151 0.128977 0.406255 158 131 101
0.012042 0.128579 0.405769 157 130 100
0.011843 0.128710 0.405208 157 130 100
0.011645 0.128842 0.404647 160 133 103
0.011446 0.128974 0.404087 163 136 106
0.011248 0.129105 0.403526 162 135 105
0.011049 0.129237 0.402965 159 132 102
0.012135 0.129023 0.406502 157 130 100
0.011936 0.129155 0.405942 159 132 102
0.011738 0.129286 0.405381 158 131 101
0.011539 0.129418 0.404820 161 134 104
0.011341 0.129549 0.404259 160 133 103
0.011142 0.129681 0.403698 157 130 100
0.010944 0.129813 0.403137 157 130 100
0.012029 0.129599 0.406675 155 128 98
0.011831 0.129730 0.406114 159 132 102
0.011632 0.129862 0.405553 158 131 101
0.011434 0.129994 0.404992 161 134 104
0.011235 0.130125 0.404432 157 130 100
0.010129 0.129722 0.403952 155 128 98
0.009931 0.129853 0.403393 159 133 100
0.011924 0.130175 0.406847 154 127 97
0.011725 0.130306 0.406287 159 132 102
0.011527 0.130438 0.405726 158 131 101
0.011328 0.130569 0.405165 161 134 104
0.010024 0.130296 0.404124 156 129 99
0.009826 0.130427 0.403565 158 132 99
0.011818 0.130750 0.407020 159 132 102
0.011619 0.130882 0.406459 159 132 102
0.010512 0.130477 0.405974 158 131 101
0.010314 0.130608 0.405415 158 131 101
0.010116 0.130739 0.404856 158 131 101
0.009011 0.130332 0.404377 156 129 99
0.008814 0.130463 0.403819 162 136 103
0.011712 0.131326 0.407192 160 133 103
0.011514 0.131458 0.406632 159 132 102
0.010407 0.131051 0.406146 155 128 98
0.010209 0.131182 0.405587 155 128 98
0.010011 0.131313 0.405028 157 130 100
0.008906 0.130905 0.404548 158 131 101
0.008709 0.131036 0.403990 157 131 98
0.044635 0.135581 0.398563 159 132 102
0.044418 0.135725 0.397951 158 131 101
0.044201 0.135869 0.397338 158 131 101
0.041512 0.135433 0.395082 160 133 103
0.041296 0.135576 0.394473 161 134 104
0.041080 0.135719 0.393864 163 136 106
0.040863 0.134192 0.399100 158 131 101
0.040648 0.134334 0.398494 157 130 100
0.040434 0.134476 0.397887 158 131 101
0.040749 0.134814 0.399286 158 131 101
0.042661 0.137640 0.390000 184 181 172
0.043300 0.137640 0.390000 183 180 171
0.042661 0.138280 0.390000 184 181 172
0.043300 0.138280 0.390000 183 180 171
0.043601 0.137852 0.387000 185 182 173
0.044235 0.137852 0.387000 185 182 173
0.045268 0.137140 0.385000 184 181 172
0.045779 0.136784 0.384000 186 183 174
0.046408 0.136784 0.384000 186 183 174
0.043601 0.138488 0.387000 186 183 174
0.044006 0.137772 0.385000 186 183 174
0.044637 0.137772 0.385000 185 182 173
0.045268 0.137772 0.385000 184 181 172
0.045779 0.137414 0.384000 185 182 173
0.046408 0.137414 0.384000 186 183 174
0.047037 0.137414 0.384000 187 184 175
0.047666 0.137414 0.384000 187 184 175
0.044006 0.138405 0.385000 186 183 174
0.044637 0.138405 0.385000 184 181 172
0.045150 0.138045 0.384000 182 179 170
0.045779 0.138045 0.384000 183 180 171
0.046408 0.138045 0.384000 184 181 172
0.047037 0.138045 0.384000 186 183 174
0.047666 0.138045 0.384000 188 185 176
0.045150 0.138676 0.384000 185 182 173
0.045779 0.138676 0.384000 186 183 174
0.042989 0.138053 0.393000 182 179 170
0.043633 0.138053 0.393000 182 179 170
0.046839 0.136892 0.396260 161 134 104
0.046620 0.137036 0.395643 161 134 104
0.046402 0.137181 0.395026 162 135 105
0.046184 0.137326 0.394409 162 135 105
0.046723 0.137525 0.396449 160 133 103
0.046504 0.137670 0.395833 158 131 101
0.046286 0.137814 0.395216 158 131 101
0.042580 0.133053 0.403950 158 133 103
0.042365 0.133196 0.403344 157 132 102
0.041019 0.132977 0.402211 160 133 104
0.040805 0.133119 0.401606 158 131 102
0.043753 0.132822 0.407775 157 130 101
0.043539 0.132964 0.407168 157 132 102
0.043109 0.133249 0.405956 153 128 98
0.042895 0.133391 0.405349 156 131 101
0.042680 0.133534 0.404743 160 135 105
0.041548 0.133173 0.404211 158 133 103
0.041333 0.133314 0.403607 156 131 101
0.041119 0.133456 0.403002 156 131 101
0.040905 0.133598 0.402397 160 133 103
0.040691 0.133740 0.401792 157 130 100
0.043639 0.133445 0.407961 156 129 100
0.043425 0.133587 0.407355 156 131 101
0.043210 0.133729 0.406748 154 129 99
0.042995 0.133871 0.406142 153 128 98
0.042781 0.134014 0.405536 155 130 100
0.042566 0.134156 0.404930 158 133 103
0.041434 0.133793 0.404397 156 131 101
0.041220 0.133935 0.403793 153 128 98
0.041006 0.134077 0.403188 153 128 98
0.043310 0.134209 0.407541 154 129 99
0.043096 0.134352 0.406935 154 129 99
0.042881 0.134494 0.406329 154 129 99
0.042667 0.134636 0.405722 154 129 99
0.041534 0.134272 0.405188 155 130 99
0.041320 0.134414 0.404583 153 128 97
0.041106 0.134556 0.403979 152 127 96
0.040892 0.134698 0.403374 153 128 97
0.043196 0.134832 0.407728 153 128 98
0.042982 0.134974 0.407121 156 131 101
0.042767 0.135116 0.406515 156 131 101
0.042553 0.135259 0.405909 154 129 99
0.041420 0.134893 0.405374 154 129 98
0.041206 0.135035 0.404769 153 128 97
0.040992 0.135177 0.404165 153 128 97
0.040778 0.135319 0.403560 156 131 100
0.043082 0.135454 0.407914 158 131 102
0.042868 0.135597 0.407308 157 130 101
0.042653 0.135739 0.406702 153 126 97
0.042438 0.135881 0.406095 154 127 98
0.041092 0.135656 0.404955 155 128 98
0.040878 0.135798 0.404351 154 127 97
0.040664 0.135940 0.403746 159 132 102
0.042224 0.136023 0.405489 157 130 100
0.042754 0.136219 0.407494 158 131 102
0.042539 0.136361 0.406888 155 128 99
0.042324 0.136504 0.406282 155 128 99
0.042110 0.136646 0.405676 156 129 99
0.041895 0.136788 0.405069 154 127 97
0.040764 0.136419 0.404537 153 126 96
0.040550 0.136561 0.403932 156 129 99
0.040336 0.136703 0.403327 158 133 102
0.042639 0.136841 0.407681 154 127 98
0.042425 0.136984 0.407075 154 127 98
0.042210 0.137126 0.406468 156 129 100
0.041996 0.137268 0.405862 156 129 99
0.041781 0.137411 0.405256 156 129 99
0.040650 0.137040 0.404723 158 131 101
0.040436 0.137182 0.404118 159 132 102
0.040222 0.137324 0.403513 157 132 101
0.042525 0.137464 0.407867 155 128 99
0.042311 0.137606 0.407261 155 128 99
0.042096 0.137748 0.406655 157 130 101
0.041881 0.137891 0.406048 156 129 99
0.041667 0.138033 0.405442 156 129 99
0.040537 0.137661 0.404909 158 131 101
0.040323 0.137803 0.404304 157 130 100
0.040108 0.137945 0.403699 154 129 98
0.042197 0.138229 0.407448 155 128 99
0.041982 0.138371 0.406841 157 130 101
0.041767 0.138513 0.406235 155 128 98
0.041553 0.138656 0.405629 156 129 99
0.040423 0.138282 0.405095 157 130 100
0.040209 0.138424 0.404490 156 129 99
0.042082 0.138851 0.407634 154 127 98
0.041868 0.138993 0.407028 155 128 99
0.041653 0.139136 0.406421 155 128 98
0.041439 0.139278 0.405815 156 129 99
0.041224 0.139420 0.405209 157 130 100
0.041009 0.139563 0.404603 157 130 100
0.040795 0.139705 0.403996 156 131 100
0.042885 0.139991 0.407755 155 128 99
0.042670 0.140134 0.407147 154 127 98
0.042455 0.140277 0.406540 155 128 98
0.041324 0.139900 0.406002 155 128 98
0.041110 0.140043 0.405395 155 129 96
0.040895 0.140185 0.404789 156 130 97
0.040681 0.140327 0.404183 158 133 102
0.044331 0.131327 0.412073 154 127 97
0.044116 0.131469 0.411469 157 130 100
0.043902 0.131611 0.410864 157 130 101
0.044397 0.132395 0.409593 158 131 102
0.044183 0.132537 0.408987 158 131 102
0.046000 0.131879 0.414630 160 133 103
0.044859 0.131522 0.414074 157 130 100
0.044645 0.131664 0.413469 155 128 98
0.044431 0.131806 0.412864 151 124 94
0.044217 0.131948 0.412259 153 126 96
0.044003 0.132090 0.411655 159 132 102
0.042865 0.131731 0.411107 158 131 102
0.042651 0.131873 0.410504 157 130 101
0.043360 0.132516 0.409840 156 129 100
0.043146 0.132658 0.409236 158 131 102
0.046100 0.132359 0.415423 157 130 100
0.044959 0.132001 0.414865 159 132 102
0.044745 0.132143 0.414260 156 129 99
0.044531 0.132285 0.413655 154 127 97
0.043392 0.131926 0.413103 151 124 94
0.043178 0.132067 0.412499 153 126 96
0.042965 0.132209 0.411896 159 132 102
0.042751 0.132351 0.411293 158 131 102
0.042538 0.132492 0.410690 156 129 100
0.042324 0.132634 0.410086 155 128 99
0.043032 0.133279 0.409422 157 130 101
0.043525 0.134067 0.408148 155 128 99
0.045986 0.132982 0.415609 156 129 99
0.044845 0.132622 0.415051 159 132 102
0.044631 0.132764 0.414446 156 129 99
0.044417 0.132906 0.413841 155 128 98
0.043278 0.132545 0.413288 153 126 96
0.043065 0.132687 0.412685 154 127 97
0.042851 0.132828 0.412082 159 132 102
0.042638 0.132970 0.411478 158 131 102
0.042424 0.133111 0.410875 156 129 100
0.042211 0.133253 0.410272 155 128 99
0.042919 0.133900 0.409608 157 130 101
0.042705 0.134042 0.409003 159 132 103
0.043411 0.134689 0.408334 155 128 99
0.045872 0.133604 0.415796 156 129 99
0.044732 0.133243 0.415237 157 130 100
0.044517 0.133385 0.414632 157 130 100
0.044303 0.133527 0.414027 156 129 99
0.043165 0.133164 0.413474 155 128 98
0.042951 0.133306 0.412870 155 128 98
0.042738 0.133448 0.412267 159 132 102
0.042524 0.133589 0.411664 158 131 101
0.042311 0.133731 0.411061 155 128 98
0.042097 0.133872 0.410457 154 127 98
0.042805 0.134521 0.409794 156 129 100
0.042591 0.134663 0.409189 157 130 101
0.043297 0.135312 0.408520 158 131 102
0.045758 0.134227 0.415982 156 129 99
0.044618 0.133864 0.415423 156 129 99
0.043478 0.133501 0.414866 157 130 100
0.043265 0.133642 0.414263 158 131 101
0.043051 0.133784 0.413659 158 131 101
0.042838 0.133925 0.413056 156 129 99
0.042624 0.134067 0.412453 158 131 101
0.042411 0.134209 0.411850 156 129 99
0.042197 0.134350 0.411246 153 126 96
0.041984 0.134492 0.410643 153 126 97
0.042691 0.135142 0.409980 155 128 99
0.043183 0.135934 0.408707 157 130 101
0.044504 0.134485 0.415609 153 126 96
0.043365 0.134120 0.415051 154 127 97
0.043151 0.134262 0.414448 156 129 99
0.042938 0.134403 0.413845 156 129 99
0.042724 0.134545 0.413242 158 131 101
0.042511 0.134686 0.412638 157 130 100
0.042297 0.134828 0.412035 154 127 97
0.042084 0.134970 0.411432 151 124 94
0.041870 0.135111 0.410829 153 126 97
0.042577 0.135762 0.410166 155 128 99
0.042363 0.135904 0.409561 156 129 100
0.044390 0.135106 0.415795 154 127 97
0.043251 0.134739 0.415237 156 129 99
0.043038 0.134881 0.414634 156 129 99
0.042824 0.135023 0.414030 155 128 98
0.041687 0.134655 0.413479 158 131 101
0.041474 0.134796 0.412877 156 129 99
0.041970 0.135589 0.411617 152 125 95
0.041756 0.135730 0.411014 154 127 98
0.041574 0.135272 0.413664 157 130 100
0.041361 0.135414 0.413062 155 128 98
0.042968 0.136077 0.408101 160 133 104
0.042149 0.136046 0.408956 157 130 101
0.042854 0.136699 0.408287 158 131 102
0.042463 0.136383 0.410352 155 128 99
0.042249 0.136525 0.409747 156 129 100
0.042035 0.136667 0.409142 157 130 101
0.042740 0.137322 0.408474 160 133 104
0.042349 0.137004 0.410538 155 128 99
0.042135 0.137146 0.409933 154 127 98
0.041921 0.137288 0.409328 156 129 100
0.042626 0.137944 0.408660 160 133 104
0.042411 0.138086 0.408054 155 128 99
0.042512 0.138567 0.408847 157 130 101
0.042297 0.138709 0.408240 155 128 99
0.042398 0.139189 0.409033 160 133 104
0.042183 0.139331 0.408427 159 132 103
-0.005665 0.128018 0.392441 161 134 104
0.048421 0.137140 0.385000 184 181 172
0.049052 0.137140 0.385000 184 181 172
0.048296 0.137414 0.384000 187 184 175
0.048925 0.137414 0.384000 185 182 173
0.049554 0.137414 0.384000 184 181 172
0.048296 0.138045 0.384000 188 185 176
0.048925 0.138045 0.384000 187 184 175
0.049554 0.138045 0.384000 186 183 174
0.054984 0.140860 0.390958 160 133 104
0.054760 0.141009 0.390326 162 135 106
0.054537 0.141157 0.389694 163 138 108
0.053404 0.140804 0.389169 165 140 110
0.053181 0.140952 0.388539 165 140 110
0.051223 0.139503 0.391563 161 134 105
0.050092 0.139148 0.391041 165 138 109
0.048962 0.138792 0.390522 165 140 110
0.048741 0.138938 0.389899 164 139 109
0.048520 0.139085 0.389276 163 138 108
0.051106 0.140146 0.391755 165 138 108
0.049974 0.139789 0.391233 165 138 108
0.048844 0.139432 0.390714 166 139 109
0.048624 0.139578 0.390091 164 137 107
0.048403 0.139724 0.389468 165 138 109
0.055835 0.138089 0.398712 158 131 102
0.055612 0.138236 0.398083 157 130 101
0.055389 0.138384 0.397454 159 132 103
0.054104 0.137593 0.399701 161 134 104
0.053882 0.137740 0.399075 156 129 100
0.054577 0.138385 0.398363 155 128 99
0.054355 0.138532 0.397735 159 132 103
0.054133 0.138679 0.397108 161 134 105
0.053911 0.138826 0.396480 161 134 105
0.053689 0.138974 0.395853 159 132 103
0.054380 0.139620 0.395132 158 131 101
0.054158 0.139768 0.394503 160 133 103
0.053935 0.139916 0.393874 164 137 108
0.054624 0.140564 0.393146 164 137 108
0.054401 0.140712 0.392516 161 134 105
0.052356 0.139857 0.392088 159 132 103
0.053986 0.138236 0.399893 158 131 102
0.053765 0.138383 0.399267 155 128 98
0.054459 0.139029 0.398556 154 127 97
0.054237 0.139176 0.397928 158 131 101
0.054015 0.139323 0.397301 161 134 104
0.051964 0.138470 0.396853 160 133 103
0.050829 0.138116 0.396320 157 130 100
0.050608 0.138262 0.395697 158 131 101
0.050388 0.138408 0.395075 161 134 104
0.050167 0.138555 0.394452 165 138 108
0.054506 0.141211 0.393340 164 137 107
0.054282 0.141359 0.392710 161 134 104
0.052238 0.140502 0.392281 162 135 105
0.051846 0.139111 0.397045 159 132 102
0.050712 0.138756 0.396512 157 130 100
0.045644 0.134849 0.416169 154 127 97
0.045530 0.135472 0.416355 154 127 97
-0.013073 0.126858 0.391786 157 130 100
-0.015140 0.126412 0.391662 162 135 105
-0.015327 0.126536 0.391134 163 136 106
-0.008448 0.126925 0.392955 160 133 103
-0.008638 0.127051 0.392418 159 132 102
-0.008549 0.127476 0.393120 158 131 101
-0.008739 0.127602 0.392583 156 129 99
-0.009358 0.125541 0.399645 154 127 97
-0.009546 0.125666 0.399113 154 127 97
-0.009734 0.125791 0.398581 155 128 98
-0.010820 0.125364 0.398152 157 130 100
-0.011007 0.125489 0.397621 157 131 98
-0.011195 0.125613 0.397091 157 131 98
-0.012840 0.125558 0.395080 162 136 103
-0.013027 0.125682 0.394551 161 134 104
-0.013215 0.125806 0.394022 158 131 101
-0.013402 0.125930 0.393493 159 132 102
-0.013589 0.126054 0.392964 159 132 102
-0.013776 0.126178 0.392435 156 129 99
-0.010544 0.125660 0.399376 158 128 100
-0.011629 0.125232 0.398946 159 129 101
-0.011816 0.125356 0.398417 160 131 101
-0.012900 0.124927 0.397991 156 130 97
-0.013086 0.125050 0.397464 159 133 100
-0.013273 0.125174 0.396936 161 135 102
-0.013460 0.125298 0.396409 161 135 102
-0.013647 0.125422 0.395881 159 133 100
-0.013833 0.125545 0.395354 158 132 99
-0.014020 0.125669 0.394826 159 133 100
-0.014207 0.125793 0.394299 159 133 100
-0.014393 0.125917 0.393771 160 133 103
-0.014580 0.126041 0.393244 158 131 101
-0.014767 0.126164 0.392716 154 127 97
-0.014954 0.126288 0.392189 158 131 101
-0.011541 0.125651 0.399637 158 128 100
-0.011729 0.125775 0.399108 160 130 102
-0.012812 0.125344 0.398681 158 131 101
-0.012999 0.125468 0.398153 156 130 97
-0.013186 0.125592 0.397626 158 132 99
-0.013372 0.125716 0.397098 160 134 101
-0.014453 0.125283 0.396678 161 135 102
-0.014640 0.125407 0.396153 160 134 101
-0.014826 0.125530 0.395627 159 133 100
-0.015012 0.125654 0.395101 158 132 99
-0.015198 0.125777 0.394575 159 133 100
-0.015384 0.125901 0.394049 162 135 105
-0.015571 0.126024 0.393523 160 133 103
-0.015757 0.126148 0.392997 156 129 99
-0.015943 0.126271 0.392471 161 134 104
-0.011641 0.126194 0.399800 156 129 99
-0.011828 0.126318 0.399271 157 130 100
-0.013808 0.125330 0.398944 157 130 100
-0.013994 0.125453 0.398418 159 133 100
-0.014180 0.125577 0.397892 157 133 99
-0.014366 0.125700 0.397366 161 135 102
-0.014552 0.125823 0.396840 160 134 101
-0.014739 0.125947 0.396314 154 128 95
-0.014925 0.126070 0.395788 157 131 98
-0.015111 0.126194 0.395262 162 136 103
-0.015297 0.126317 0.394736 161 135 102
-0.015483 0.126441 0.394210 160 134 101
-0.015670 0.126564 0.393685 162 136 103
-0.013721 0.125746 0.399632 158 131 101
-0.013907 0.125870 0.399106 158 131 101
-0.014988 0.125435 0.398682 157 133 99
-0.015174 0.125558 0.398157 156 132 98
-0.015360 0.125681 0.397633 159 133 100
-0.014651 0.126363 0.397002 159 133 100
-0.014838 0.126487 0.396476 156 130 97
-0.015917 0.126050 0.396060 159 133 100
-0.015396 0.126857 0.394898 161 135 102
-0.015582 0.126981 0.394372 159 133 100
-0.015769 0.127104 0.393846 161 135 102
-0.014716 0.125727 0.399892 158 131 101
-0.014901 0.125850 0.399368 157 130 100
-0.015087 0.125973 0.398843 157 130 100
-0.015273 0.126097 0.398319 157 130 100
-0.015458 0.126220 0.397794 157 130 100
-0.015644 0.126343 0.397270 157 130 100
-0.015830 0.126466 0.396745 159 132 102
-0.015000 0.126389 0.399529 156 129 99
-0.015186 0.126512 0.399004 157 130 100
-0.009693 0.124617 0.401335 155 128 98
-0.009881 0.124742 0.400804 155 128 98
-0.010068 0.124866 0.400274 155 128 98
-0.010505 0.124487 0.402120 155 126 96
-0.010693 0.124611 0.401591 157 128 98
-0.010880 0.124735 0.401062 159 129 101
-0.011067 0.124859 0.400533 158 128 100
-0.011254 0.124983 0.400004 157 127 99
-0.011505 0.124478 0.402373 153 124 94
-0.011692 0.124601 0.401846 158 129 99
-0.011879 0.124725 0.401318 160 130 102
-0.012065 0.124849 0.400791 157 127 99
-0.011354 0.125526 0.400166 156 126 98
-0.011605 0.125019 0.402535 155 128 98
-0.012691 0.124589 0.402100 155 128 98
-0.012877 0.124712 0.401574 154 127 97
-0.012165 0.125391 0.400953 153 126 96
-0.011454 0.126069 0.400329 155 128 98
-0.012604 0.125006 0.402788 154 127 97
-0.012790 0.125129 0.402262 154 127 97
-0.012976 0.125252 0.401736 154 127 97
-0.012637 0.126180 0.400060 158 131 101
-0.012703 0.125546 0.402949 154 127 97
-0.013788 0.125112 0.402514 154 127 97
-0.013973 0.125235 0.401990 155 128 98
-0.014159 0.125358 0.401465 156 129 99
-0.013447 0.126039 0.400845 158 131 101
-0.013633 0.126163 0.400320 159 132 102
-0.013701 0.125527 0.403200 153 126 96
-0.013886 0.125650 0.402676 153 126 96
-0.014970 0.125214 0.402243 154 127 97
-0.015155 0.125337 0.401720 157 130 100
-0.015340 0.125460 0.401197 159 132 102
-0.015525 0.125583 0.400674 159 132 102
-0.015710 0.125705 0.400151 157 130 100
-0.013799 0.126066 0.403361 153 126 96
-0.014883 0.125629 0.402927 153 126 96
-0.015966 0.125191 0.402495 154 127 97
-0.014982 0.126165 0.403088 153 126 96
0.000147 0.128666 0.387128 162 133 103
-0.000048 0.128796 0.386577 162 133 103
-0.000243 0.128925 0.386025 161 132 102
-0.000460 0.128434 0.388527 163 136 106
-0.000654 0.128563 0.387976 163 134 104
-0.000849 0.128692 0.387426 162 133 103
-0.000152 0.129362 0.386746 163 134 104
-0.000347 0.129492 0.386195 162 133 103
-0.000563 0.128999 0.388696 163 136 106
-0.000758 0.129128 0.388146 160 133 103
-0.000953 0.129257 0.387595 159 132 102
-0.001147 0.129386 0.387045 162 135 105
-0.001342 0.129515 0.386495 161 134 104
-0.001560 0.129020 0.388989 162 135 105
-0.001754 0.129149 0.388441 158 131 101
-0.001948 0.129278 0.387892 158 131 101
-0.002142 0.129407 0.387343 163 136 106
-0.001446 0.130080 0.386664 162 135 105
-0.001663 0.129584 0.389158 160 133 103
-0.001857 0.129712 0.388609 157 130 100
-0.002051 0.129841 0.388061 158 131 101
-0.003137 0.129424 0.387640 164 139 108
-0.003330 0.129552 0.387093 161 136 105
-0.003524 0.129681 0.386546 163 136 106
-0.001572 0.130018 0.389876 159 132 102
-0.001766 0.130147 0.389327 159 132 102
-0.002852 0.129729 0.388903 156 129 99
-0.003046 0.129857 0.388356 159 132 102
-0.003240 0.129986 0.387809 165 140 109
-0.003433 0.130114 0.387262 161 136 105
-0.004517 0.129694 0.386845 160 133 103
-0.004710 0.129823 0.386300 164 137 107
-0.002180 0.129777 0.391260 157 130 100
-0.002374 0.129905 0.390713 161 134 104
-0.002568 0.130034 0.390166 160 133 103
-0.002761 0.130162 0.389619 153 126 96
-0.002955 0.130291 0.389071 157 132 101
-0.004040 0.129871 0.388650 164 139 108
-0.004233 0.129999 0.388104 160 135 104
-0.004426 0.130127 0.387559 163 138 107
-0.004619 0.130255 0.387013 160 133 103
-0.005701 0.129833 0.386599 161 134 104
-0.005894 0.129960 0.386055 164 137 107
-0.005857 0.128145 0.391900 160 133 103
-0.006048 0.128272 0.391359 160 133 103
-0.006240 0.128399 0.390817 159 132 102
-0.004648 0.129625 0.390032 156 129 99
-0.004841 0.129753 0.389487 161 136 105
-0.005033 0.129881 0.388943 163 138 107
-0.005226 0.130008 0.388399 157 132 101
-0.005418 0.130136 0.387855 158 133 102
-0.005611 0.130264 0.387311 163 136 106
-0.005804 0.130391 0.386767 164 137 107
-0.005996 0.130519 0.386223 165 138 108
-0.006150 0.128828 0.391525 158 131 101
-0.006342 0.128955 0.390984 157 130 100
-0.004750 0.130184 0.390199 159 132 102
-0.004943 0.130311 0.389655 164 137 107
-0.005136 0.130439 0.389111 162 135 105
-0.006218 0.130015 0.388693 155 130 99
-0.006410 0.130142 0.388150 157 132 101
-0.005713 0.130822 0.387478 163 136 107
-0.005906 0.130950 0.386934 164 137 108
-0.006986 0.130524 0.386522 163 136 107
-0.007178 0.130652 0.385980 161 134 105
-0.006320 0.130572 0.388860 156 131 100
-0.006512 0.130699 0.388317 160 135 104
-0.005816 0.131381 0.387646 162 135 106
-0.006008 0.131509 0.387101 162 135 106
-0.007089 0.131081 0.386689 159 132 103
-0.007281 0.131209 0.386147 159 132 103
0.058015 0.134904 0.399549 157 130 100
0.057792 0.135052 0.398919 160 133 103
0.057568 0.135200 0.398288 163 136 106
0.057345 0.135348 0.397658 160 133 103
0.058040 0.135984 0.396938 158 131 101
0.056976 0.135063 0.399825 160 133 103
0.056754 0.135210 0.399196 161 134 104
0.057450 0.135847 0.398482 161 134 104
0.057227 0.135995 0.397851 160 133 103
0.056635 0.135856 0.399390 160 133 103
0.060025 0.138480 0.391282 157 130 100
0.058886 0.138140 0.390747 159 132 102
0.058661 0.138289 0.390110 160 133 103
0.058435 0.138439 0.389473 161 134 104
0.058210 0.138588 0.388837 161 134 104
0.058991 0.138644 0.391579 158 131 101
0.058766 0.138794 0.390942 160 133 103
0.058541 0.138943 0.390306 161 134 104
0.058315 0.139092 0.389669 161 134 104
0.058090 0.139242 0.389033 162 135 105
0.057865 0.139391 0.388396 160 135 104
0.058872 0.139298 0.391775 159 132 102
0.058646 0.139447 0.391138 160 133 103
0.058421 0.139597 0.390502 160 133 103
0.058196 0.139746 0.389865 161 134 104
0.057970 0.139895 0.389228 162 135 105
0.057745 0.140045 0.388592 161 136 105
0.058752 0.139951 0.391971 159 132 102
0.058526 0.140101 0.391334 160 133 103
0.058301 0.140250 0.390697 160 133 103
0.057164 0.139904 0.390165 161 134 104
0.056939 0.140053 0.389530 163 136 106
0.056715 0.140202 0.388895 163 138 107
0.058407 0.140754 0.391530 162 135 105
0.058181 0.140904 0.390893 162 135 105
0.057045 0.140556 0.390361 162 135 106
0.056820 0.140705 0.389726 163 136 107
0.056595 0.140854 0.389091 162 137 107
0.057375 0.140910 0.391826 163 136 106
0.057150 0.141059 0.391191 162 135 105
0.056925 0.141208 0.390556 161 134 105
0.056700 0.141357 0.389921 161 134 105
0.056475 0.141506 0.389286 162 137 107
0.056119 0.141212 0.391488 160 133 104
0.059787 0.137542 0.393293 160 133 103
0.059562 0.137692 0.392656 157 130 100
0.059337 0.137841 0.392020 155 128 98
0.057816 0.136132 0.396306 159 132 102
0.058510 0.136770 0.395582 159 132 102
0.058285 0.136918 0.394949 159 132 102
0.058977 0.137557 0.394220 157 130 100
0.059667 0.138196 0.393489 157 130 100
0.059442 0.138345 0.392852 156 129 99
0.059217 0.138495 0.392216 156 129 99
0.057003 0.136143 0.397221 160 133 103
0.056780 0.136291 0.396590 159 132 102
0.057474 0.136930 0.395869 158 131 101
0.058166 0.137569 0.395144 160 133 104
0.058857 0.138209 0.394416 157 130 101
0.058633 0.138358 0.393781 156 129 99
0.059322 0.138999 0.393048 156 129 99
0.059097 0.139148 0.392411 156 129 99
0.056412 0.136004 0.398761 160 133 103
0.057108 0.136642 0.398045 160 133 103
0.056885 0.136790 0.397415 162 135 105
0.056661 0.136938 0.396784 159 132 102
0.057355 0.137579 0.396063 157 130 100
0.058047 0.138219 0.395338 160 133 104
0.057823 0.138368 0.394705 158 131 102
0.058513 0.139010 0.393976 158 131 101
0.059202 0.139653 0.393244 157 130 100
0.058977 0.139802 0.392607 157 130 100
0.056517 0.136502 0.399583 158 131 101
0.056294 0.136650 0.398954 158 131 101
0.056989 0.137290 0.398239 159 132 102
0.056766 0.137438 0.397609 161 134 104
0.056543 0.137586 0.396978 158 131 102
0.057236 0.138227 0.396257 156 129 100
0.057012 0.138376 0.395625 161 134 105
0.057703 0.139019 0.394900 159 132 103
0.058394 0.139662 0.394171 158 131 101
0.059083 0.140306 0.393440 158 131 101
0.058857 0.140456 0.392803 159 132 102
0.058632 0.140605 0.392166 161 134 104
0.056398 0.137148 0.399777 157 130 100
0.056176 0.137295 0.399148 159 132 102
0.056870 0.137937 0.398433 159 132 102
0.056647 0.138085 0.397803 160 133 103
0.056424 0.138233 0.397172 158 131 102
0.057117 0.138876 0.396452 158 131 102
0.056893 0.139025 0.395820 161 134 105
0.057584 0.139669 0.395095 160 133 104
0.058274 0.140314 0.394367 156 129 99
0.058049 0.140463 0.393731 157 130 100
0.057824 0.140612 0.393096 160 133 103
0.057600 0.140761 0.392461 163 136 106
0.056280 0.137793 0.399970 157 130 100
0.056057 0.137941 0.399341 160 133 103
0.056082 0.139028 0.396736 160 133 104
0.056774 0.139674 0.396014 162 135 106
0.056550 0.139822 0.395382 160 133 104
0.057240 0.140468 0.394656 155 128 98
0.057016 0.140617 0.394022 157 130 100
0.056792 0.140766 0.393389 161 134 105
0.057480 0.141413 0.392657 164 137 108
0.056343 0.141063 0.392122 163 136 107
0.056858 0.135708 0.400019 160 133 103
0.056739 0.136354 0.400212 160 133 103
0.056844 0.136852 0.401035 161 134 104
0.056621 0.137000 0.400406 158 131 101
0.056725 0.137498 0.401228 158 131 101
0.056503 0.137646 0.400599 153 126 96
0.056384 0.138292 0.400793 151 124 94
0.056162 0.138439 0.400164 157 130 100
-0.016129 0.126394 0.391945 163 136 106
-0.017204 0.125958 0.391542 161 134 104
-0.017390 0.126081 0.391017 162 135 105
-0.018192 0.125936 0.391825 166 137 105
-0.018377 0.126058 0.391302 162 133 101
-0.018562 0.126181 0.390779 158 129 97
-0.018747 0.126304 0.390256 159 130 100
-0.018932 0.126427 0.389733 162 133 103
-0.019302 0.126672 0.388687 167 138 108
-0.019487 0.126795 0.388165 167 138 108
-0.018290 0.126472 0.391986 162 133 101
-0.019363 0.126032 0.391586 159 130 98
-0.019548 0.126155 0.391065 158 129 97
-0.019732 0.126277 0.390543 160 131 101
-0.019917 0.126399 0.390022 161 132 102
-0.020101 0.126522 0.389500 163 134 104
-0.020286 0.126644 0.388979 166 137 107
-0.020470 0.126766 0.388458 165 136 106
-0.020349 0.126003 0.391869 159 130 100
-0.020533 0.126125 0.391349 160 131 101
-0.020717 0.126247 0.390829 160 133 103
-0.020015 0.126935 0.390182 158 131 101
-0.021085 0.126491 0.389790 160 133 103
-0.021269 0.126613 0.389270 163 136 106
-0.021453 0.126735 0.388750 161 134 104
-0.020631 0.126659 0.391509 164 135 105
-0.020815 0.126781 0.390989 162 135 105
-0.022068 0.126457 0.390078 161 134 104
-0.022251 0.126579 0.389560 163 136 106
-0.022435 0.126701 0.389041 161 134 104
-0.022618 0.126822 0.388523 159 132 102
-0.021615 0.126624 0.391792 165 136 106
-0.021798 0.126746 0.391274 162 135 105
-0.021982 0.126868 0.390756 159 132 102
-0.022165 0.126989 0.390237 161 134 104
-0.022349 0.127111 0.389719 163 136 106
-0.022532 0.127233 0.389201 161 134 104
-0.022716 0.127354 0.388682 159 132 102
-0.023667 0.126138 0.391682 161 134 104
-0.023850 0.126259 0.391167 159 132 102
-0.016746 0.126127 0.393276 162 133 101
-0.016932 0.126251 0.392752 161 132 100
-0.017117 0.126374 0.392227 165 136 104
-0.016102 0.126174 0.395535 162 136 103
-0.016845 0.126666 0.393437 163 134 102
-0.017920 0.126227 0.393032 163 134 102
-0.018105 0.126350 0.392509 163 134 102
-0.016015 0.126589 0.396221 160 133 103
-0.016201 0.126712 0.395697 161 134 104
-0.016387 0.126835 0.395172 161 134 104
-0.016572 0.126958 0.394648 161 132 102
-0.016758 0.127081 0.394123 161 132 102
-0.017833 0.126641 0.393715 161 132 102
-0.018018 0.126764 0.393193 162 133 103
-0.019092 0.126323 0.392789 162 133 103
-0.019277 0.126445 0.392268 160 131 101
-0.016266 0.126073 0.398583 158 131 101
-0.016451 0.126196 0.398060 157 130 100
-0.016636 0.126319 0.397537 157 130 100
-0.016821 0.126442 0.397014 160 133 103
-0.017006 0.126564 0.396491 160 133 103
-0.017191 0.126687 0.395968 159 132 102
-0.016485 0.127374 0.395333 160 133 103
-0.016671 0.127497 0.394809 161 132 102
-0.017746 0.127055 0.394399 156 127 97
-0.018821 0.126613 0.393992 156 127 97
-0.019006 0.126736 0.393471 161 132 102
-0.019190 0.126858 0.392950 162 133 103
-0.020263 0.126415 0.392549 160 131 101
-0.020447 0.126537 0.392029 161 132 102
-0.016889 0.125803 0.399888 155 128 98
-0.017073 0.125925 0.399367 158 131 101
-0.017258 0.126047 0.398846 158 131 101
-0.017443 0.126170 0.398324 157 130 100
-0.017627 0.126292 0.397803 157 130 100
-0.016919 0.126979 0.397175 160 133 103
-0.017104 0.127101 0.396652 160 133 103
-0.017290 0.127224 0.396129 159 132 102
-0.016584 0.127912 0.395495 160 133 103
-0.017845 0.127592 0.394560 153 124 94
-0.018919 0.127149 0.394153 156 127 97
-0.019104 0.127271 0.393631 161 132 102
-0.019288 0.127393 0.393110 160 131 101
-0.021248 0.126381 0.392829 159 130 100
-0.021431 0.126503 0.392311 162 133 103
-0.018960 0.125332 0.399728 157 130 100
-0.019144 0.125453 0.399209 156 129 99
-0.019327 0.125575 0.398691 156 129 99
-0.017725 0.126827 0.397963 158 131 101
-0.017018 0.127515 0.397336 160 133 103
-0.019878 0.125940 0.397136 160 133 103
-0.020061 0.126062 0.396617 161 134 104
-0.023120 0.125776 0.393228 156 127 97
-0.023302 0.125896 0.392713 160 131 101
-0.023485 0.126017 0.392198 163 134 104
-0.019058 0.125864 0.399887 157 130 100
-0.019241 0.125986 0.399369 154 127 97
-0.019425 0.126107 0.398850 156 129 99
-0.019975 0.126472 0.397295 162 135 105
-0.020159 0.126594 0.396777 164 135 105
-0.016770 0.128035 0.394970 156 127 97
-0.016151 0.125313 0.401974 157 130 100
-0.016335 0.125435 0.401453 158 131 101
-0.016520 0.125558 0.400931 158 131 101
-0.016704 0.125680 0.400410 156 129 99
-0.016064 0.125726 0.402656 155 128 98
-0.016249 0.125848 0.402134 157 130 100
-0.016433 0.125971 0.401613 158 131 101
-0.016618 0.126093 0.401092 157 130 100
-0.017698 0.125652 0.400667 155 128 98
-0.017882 0.125774 0.400147 156 129 99
-0.016347 0.126384 0.402295 157 132 101
-0.016531 0.126506 0.401773 157 132 101
-0.017612 0.126064 0.401347 156 131 100
-0.018691 0.125621 0.400924 156 131 100
-0.018874 0.125742 0.400405 157 132 101
-0.017709 0.126597 0.401507 156 131 100
-0.018788 0.126153 0.401083 157 132 101
-0.018972 0.126274 0.400565 159 134 103
-0.024032 0.126380 0.390652 160 133 103
-0.026345 0.125600 0.389369 158 131 101
-0.026527 0.125720 0.388857 158 131 101
-0.026708 0.125840 0.388345 159 132 102
-0.026601 0.125073 0.391702 160 133 103
-0.026782 0.125193 0.391191 160 133 103
-0.029090 0.124406 0.389921 158 131 101
-0.029270 0.124525 0.389414 157 130 100
-0.029449 0.124644 0.388906 159 132 102
-0.026697 0.125597 0.391859 161 134 104
-0.026878 0.125717 0.391348 160 133 103
-0.029889 0.124233 0.390715 160 133 103
-0.030068 0.124352 0.390209 158 131 101
-0.031129 0.123896 0.389835 157 130 100
-0.031307 0.124014 0.389330 160 133 103
-0.031486 0.124133 0.388825 160 133 103
-0.031665 0.124251 0.388321 161 134 104
-0.029984 0.124753 0.390871 160 131 101
-0.030163 0.124872 0.390364 159 130 100
-0.031224 0.124414 0.389990 161 132 102
-0.026765 0.124023 0.393864 157 128 98
-0.026945 0.124142 0.393355 161 132 102
-0.026240 0.124833 0.392723 161 132 102
-0.026420 0.124953 0.392212 159 132 102
-0.026861 0.124546 0.394021 160 131 101
-0.027041 0.124665 0.393512 165 136 106
-0.028993 0.123639 0.393246 161 132 102
-0.029172 0.123758 0.392740 159 132 102
-0.029088 0.124159 0.393402 164 135 105
-0.029267 0.124278 0.392896 165 136 106
-0.029707 0.121538 0.399941 159 132 102
-0.030776 0.121084 0.399544 159 132 102
-0.030953 0.121202 0.399043 162 135 105
-0.031130 0.121319 0.398543 160 133 103
-0.031307 0.121436 0.398043 160 133 103
-0.031760 0.121024 0.399801 159 132 102
-0.031937 0.121141 0.399303 159 132 102
-0.029802 0.122053 0.400095 160 133 103
-0.032022 0.124488 0.387311 158 131 101
-0.032201 0.124607 0.386806 160 133 103
-0.033165 0.123378 0.389753 162 133 103
-0.033342 0.123496 0.389251 164 135 105
-0.033520 0.123614 0.388749 164 135 105
-0.032117 0.125006 0.387466 163 134 104
-0.032296 0.125125 0.386962 161 132 102
-0.032726 0.123540 0.391412 157 128 98
-0.032904 0.123658 0.390910 158 129 99
-0.033081 0.123776 0.390409 162 133 103
-0.034140 0.123315 0.390040 163 134 104
-0.034317 0.123432 0.389540 162 133 103
-0.033614 0.124129 0.388903 162 133 103
-0.033792 0.124247 0.388402 162 133 103
-0.033969 0.124364 0.387900 163 134 104
-0.033703 0.123476 0.391694 153 124 94
-0.033880 0.123593 0.391194 157 128 98
-0.034057 0.123711 0.390694 163 134 104
-0.034234 0.123828 0.390194 165 136 106
-0.034411 0.123946 0.389694 162 133 103
-0.034588 0.124063 0.389193 163 134 104
-0.033886 0.124762 0.388556 163 134 104
-0.034064 0.124879 0.388054 163 134 104
-0.034679 0.123409 0.391976 153 124 94
-0.034855 0.123526 0.391477 159 130 100
-0.035032 0.123643 0.390979 165 136 106
-0.035208 0.123760 0.390480 166 137 107
-0.035385 0.123877 0.389981 163 134 104
-0.035561 0.123994 0.389483 165 136 106
-0.034949 0.124038 0.391631 160 133 103
-0.035126 0.124155 0.391132 165 138 108
-0.035302 0.124272 0.390633 164 137 107
-0.035479 0.124389 0.390135 162 135 105
-0.035655 0.124506 0.389636 161 134 104
-0.035043 0.124550 0.391784 160 133 103
-0.035219 0.124667 0.391285 163 136 106
-0.035396 0.124784 0.390787 162 135 105
-0.035572 0.124901 0.390288 163 136 106
-0.036193 0.124593 0.391568 160 135 104
-0.036369 0.124709 0.391071 160 135 104
-0.036287 0.125103 0.391721 159 134 103
-0.036463 0.125220 0.391224 161 136 105
-0.032098 0.121510 0.395388 159 130 100
-0.032275 0.121627 0.394888 159 130 100
-0.032726 0.121215 0.396656 160 131 101
-0.032902 0.121332 0.396157 162 133 103
-0.033079 0.121449 0.395658 161 132 102
-0.032369 0.122141 0.395042 161 132 102
-0.032113 0.121258 0.398804 157 130 100
-0.033179 0.120801 0.398414 158 131 101
-0.033355 0.120918 0.397916 153 126 96
-0.033531 0.121034 0.397419 153 126 96
-0.033707 0.121151 0.396922 157 130 100
-0.033883 0.121268 0.396425 160 133 103
-0.034059 0.121384 0.395928 160 133 103
-0.033349 0.122078 0.395313 161 134 104
-0.033526 0.122195 0.394815 162 135 105
-0.033702 0.122312 0.394316 162 135 105
-0.033879 0.122429 0.393817 160 131 101
-0.034055 0.122546 0.393318 162 133 103
-0.032921 0.121078 0.399561 157 130 100
-0.033097 0.121195 0.399064 155 128 98
-0.033273 0.121311 0.398567 157 130 100
-0.033449 0.121428 0.398069 154 127 97
-0.033625 0.121545 0.397572 153 126 96
-0.033801 0.121661 0.397075 156 129 99
-0.033977 0.121778 0.396578 159 132 102
-0.034153 0.121895 0.396081 160 133 103
-0.034329 0.122011 0.395584 160 133 103
-0.034504 0.122128 0.395086 161 134 104
-0.034680 0.122245 0.394589 159 132 102
-0.034856 0.122361 0.394092 159 130 100
-0.035032 0.122478 0.393595 161 132 102
-0.034326 0.123175 0.392973 161 132 102
-0.033014 0.121588 0.399714 157 130 100
-0.033190 0.121705 0.399217 154 127 97
-0.033366 0.121822 0.398719 156 129 99
-0.033542 0.121938 0.398222 157 130 100
-0.033718 0.122055 0.397725 156 129 99
-0.033894 0.122172 0.397228 157 130 100
-0.034070 0.122288 0.396731 159 132 102
-0.034246 0.122405 0.396234 159 132 102
-0.034422 0.122522 0.395737 159 132 102
-0.034598 0.122638 0.395239 159 132 102
-0.034774 0.122755 0.394742 157 130 100
-0.034950 0.122872 0.394245 158 131 101
-0.035126 0.122989 0.393748 159 132 102
-0.035302 0.123105 0.393251 158 131 101
-0.034596 0.123804 0.392628 154 127 97
-0.034772 0.123921 0.392129 154 127 97
-0.035061 0.121058 0.399580 155 128 98
-0.034348 0.121753 0.398979 157 130 100
-0.034523 0.121869 0.398484 158 131 101
-0.034699 0.121986 0.397988 156 129 99
-0.034874 0.122102 0.397492 158 131 101
-0.035050 0.122218 0.396997 160 133 103
-0.034340 0.122916 0.396387 160 133 103
-0.034516 0.123032 0.395889 161 134 104
-0.034692 0.123149 0.395392 161 134 104
-0.034868 0.123266 0.394895 159 132 102
-0.035044 0.123382 0.394398 158 131 101
-0.035220 0.123499 0.393901 157 130 100
-0.035396 0.123616 0.393404 156 129 99
-0.034690 0.124316 0.392781 156 129 99
-0.034866 0.124433 0.392283 156 129 99
-0.035154 0.121565 0.399732 155 129 96
-0.035329 0.121681 0.399238 157 131 98
-0.035504 0.121797 0.398744 157 131 98
-0.035679 0.121913 0.398250 156 130 97
-0.035854 0.122029 0.397756 157 133 99
-0.035143 0.122727 0.397149 159 135 101
-0.035318 0.122843 0.396654 160 136 102
-0.035494 0.122960 0.396158 160 136 102
-0.035669 0.123076 0.395662 160 136 102
-0.035845 0.123192 0.395167 159 135 101
-0.036020 0.123309 0.394671 158 133 102
-0.036196 0.123425 0.394175 154 129 98
-0.035489 0.124126 0.393557 154 129 98
-0.035665 0.124243 0.393059 157 132 101
-0.034960 0.124945 0.392436 158 133 102
-0.036017 0.124476 0.392065 158 133 102
-0.036135 0.121490 0.399989 155 129 96
-0.036310 0.121606 0.399496 158 132 99
-0.036484 0.121722 0.399004 159 133 100
-0.036659 0.121837 0.398511 157 131 98
-0.035947 0.122536 0.397908 158 134 100
-0.036122 0.122652 0.397414 159 135 101
-0.036297 0.122768 0.396920 158 134 100
-0.036472 0.122884 0.396426 157 133 99
-0.036647 0.123000 0.395931 156 132 98
-0.035938 0.123701 0.395319 155 131 97
-0.036114 0.123818 0.394823 159 134 103
-0.036289 0.123934 0.394328 154 129 98
-0.035583 0.124636 0.393709 155 130 99
-0.035759 0.124753 0.393212 160 135 104
-0.036111 0.124987 0.392218 158 133 102
-0.037290 0.121528 0.399753 155 131 97
-0.037464 0.121643 0.399262 158 134 100
-0.037638 0.121758 0.398771 159 135 101
-0.036040 0.123044 0.398060 159 134 103
-0.036215 0.123160 0.397566 158 133 102
-0.036390 0.123275 0.397072 157 130 100
-0.036565 0.123391 0.396578 155 128 98
-0.036740 0.123507 0.396083 157 130 100
-0.038854 0.122565 0.395334 157 132 101
-0.039028 0.122680 0.394843 155 130 99
-0.039329 0.120976 0.399627 157 133 99
-0.039502 0.121090 0.399139 157 133 99
-0.038947 0.123069 0.395485 157 132 101
-0.039121 0.123185 0.394994 156 131 100
-0.032745 0.120961 0.400058 160 133 103
-0.032838 0.121472 0.400211 160 133 103
-0.034711 0.120826 0.400569 159 132 102
-0.034886 0.120942 0.400075 157 130 100
-0.033755 0.120637 0.403685 154 127 97
-0.033930 0.120753 0.403191 151 124 94
-0.034105 0.120869 0.402697 152 126 93
-0.034280 0.120985 0.402203 152 126 93
-0.035345 0.120522 0.401808 158 132 99
-0.035520 0.120638 0.401315 160 134 101
-0.035694 0.120753 0.400823 158 132 99
-0.035868 0.120869 0.400330 157 131 98
-0.032429 0.121375 0.405232 158 132 99
-0.032605 0.121491 0.404736 155 129 96
-0.033673 0.121029 0.404332 155 129 96
-0.033848 0.121145 0.403837 157 130 100
-0.034915 0.120681 0.403437 155 128 98
-0.035089 0.120797 0.402945 154 128 95
-0.034373 0.121493 0.402355 154 128 95
-0.035438 0.121028 0.401959 161 135 102
-0.035612 0.121144 0.401467 162 136 103
-0.035787 0.121259 0.400974 158 132 99
-0.035961 0.121375 0.400482 156 130 97
-0.033241 0.121188 0.405966 158 129 97
-0.033416 0.121304 0.405472 157 128 96
-0.033591 0.121420 0.404978 155 126 94
-0.033766 0.121536 0.404484 156 127 95
-0.033941 0.121652 0.403989 158 129 97
-0.035007 0.121187 0.403589 160 131 99
-0.035182 0.121302 0.403096 151 125 92
-0.035705 0.121649 0.401618 161 135 102
-0.036768 0.121182 0.401227 158 134 100
-0.037831 0.120714 0.400838 157 133 99
-0.038004 0.120829 0.400349 156 132 98
-0.033334 0.121695 0.406118 158 129 97
-0.033509 0.121811 0.405624 157 128 96
-0.033684 0.121927 0.405130 157 128 96
-0.033859 0.122043 0.404636 159 130 98
-0.034926 0.121577 0.404233 160 131 99
-0.035100 0.121693 0.403740 160 131 99
-0.036165 0.121225 0.403342 153 127 94
-0.036339 0.121341 0.402851 159 133 100
-0.036513 0.121456 0.402360 162 136 103
-0.037576 0.120987 0.401968 159 133 100
-0.037749 0.121102 0.401478 156 132 98
-0.038811 0.120632 0.401091 157 133 99
-0.038984 0.120747 0.400603 157 133 99
-0.039156 0.120861 0.400115 156 132 98
-0.033427 0.122203 0.406270 157 128 96
-0.033602 0.122319 0.405776 157 128 96
-0.033777 0.122435 0.405282 158 129 97
-0.033952 0.122551 0.404788 159 130 98
-0.035019 0.122083 0.404384 159 130 98
-0.035193 0.122198 0.403892 158 129 97
-0.036258 0.121729 0.403493 154 128 95
-0.036432 0.121845 0.403002 159 133 100
-0.037495 0.121375 0.402608 161 135 102
-0.037668 0.121490 0.402119 157 131 98
-0.038730 0.121019 0.401729 155 129 96
-0.039791 0.120547 0.401343 157 131 98
-0.039963 0.120661 0.400856 158 134 100
-0.033520 0.122710 0.406422 156 127 95
-0.033695 0.122826 0.405928 156 127 95
-0.033870 0.122942 0.405434 158 129 97
-0.034937 0.122473 0.405029 159 130 98
-0.035111 0.122589 0.404536 159 130 98
-0.036176 0.122118 0.404135 158 129 97
-0.036350 0.122234 0.403644 155 129 96
-0.037414 0.121763 0.403248 157 131 98
-0.037587 0.121877 0.402759 157 131 98
-0.038649 0.121405 0.402367 155 129 96
-0.039710 0.120932 0.401979 155 129 96
-0.033613 0.123217 0.406574 153 127 94
-0.033788 0.123333 0.406080 154 128 95
-0.034855 0.122863 0.405673 156 130 97
-0.035030 0.122979 0.405180 158 132 99
-0.035204 0.123094 0.404687 159 133 100
-0.036269 0.122623 0.404286 159 133 100
-0.036443 0.122738 0.403795 156 130 97
-0.037506 0.122265 0.403399 155 129 96
-0.038568 0.121792 0.403005 155 129 96
-0.039629 0.121318 0.402615 156 130 97
-0.033881 0.123841 0.406232 153 127 94
-0.034948 0.123369 0.405824 155 129 96
-0.035122 0.123484 0.405332 156 130 97
-0.036187 0.123012 0.404929 157 131 98
-0.036361 0.123127 0.404438 157 131 98
-0.037425 0.122653 0.404039 156 130 97
-0.037598 0.122768 0.403549 154 128 95
-0.038660 0.122293 0.403156 154 128 95
-0.039721 0.121817 0.402765 157 131 98
-0.035041 0.123875 0.405976 154 128 95
-0.035215 0.123990 0.405483 155 129 96
-0.036280 0.123516 0.405080 155 129 96
-0.036454 0.123631 0.404589 154 128 95
-0.037517 0.123156 0.404190 153 127 94
-0.037690 0.123270 0.403700 153 127 94
-0.038752 0.122794 0.403306 155 129 96
-0.039812 0.122317 0.402914 157 131 98
-0.039985 0.122431 0.402428 156 130 97
-0.036372 0.124020 0.405231 157 131 98
-0.036546 0.124135 0.404740 155 129 96
-0.043648 0.119580 0.398274 155 128 98
-0.043819 0.119693 0.397792 156 129 99
-0.043990 0.119806 0.397310 159 132 102
-0.044160 0.119919 0.396828 160 133 103
-0.043227 0.119735 0.399868 158 134 100
-0.043398 0.119849 0.399386 158 132 99
-0.044453 0.119372 0.399014 156 130 97
-0.044623 0.119485 0.398534 156 129 99
-0.045676 0.119007 0.398166 158 131 101
-0.045846 0.119119 0.397687 160 133 103
-0.046015 0.119231 0.397208 160 133 103
-0.046185 0.119344 0.396730 157 132 101
-0.046354 0.119456 0.396251 157 132 101
-0.047405 0.118976 0.395892 157 132 101
-0.047574 0.119088 0.395415 158 133 102
-0.045258 0.119161 0.399751 155 129 96
-0.045427 0.119274 0.399272 154 128 95
-0.046480 0.118794 0.398904 156 130 97
-0.046649 0.118906 0.398427 159 133 100
-0.046818 0.119018 0.397949 159 132 102
-0.046987 0.119130 0.397472 158 131 101
-0.047156 0.119242 0.396994 157 133 99
-0.047325 0.119354 0.396517 158 134 100
-0.046401 0.119172 0.399528 155 129 96
-0.047453 0.118691 0.399162 158 132 99
-0.047622 0.118803 0.398686 159 133 100
-0.047790 0.118914 0.398210 158 131 101
-0.047959 0.119026 0.397734 157 130 100
-0.047375 0.119068 0.399784 157 131 98
-0.047543 0.119179 0.399308 160 134 101
-0.047711 0.119291 0.398832 159 133 100
-0.047880 0.119403 0.398356 158 132 99
-0.047464 0.119556 0.399930 159 133 100
-0.047633 0.119668 0.399454 161 135 102
-0.041193 0.120302 0.399989 157 133 99
-0.041365 0.120416 0.399504 158 134 100
-0.041537 0.120530 0.399019 158 132 99
-0.042593 0.120055 0.398645 156 130 97
-0.044331 0.120033 0.396346 157 132 101
-0.044501 0.120146 0.395864 156 131 100
-0.044672 0.120259 0.395382 156 131 100
-0.043962 0.120963 0.394777 157 132 101
-0.044033 0.119527 0.400603 160 134 101
-0.044203 0.119640 0.400123 158 132 99
-0.045178 0.119540 0.400377 156 130 97
-0.046232 0.119060 0.400006 154 128 95
-0.045099 0.119920 0.401003 160 134 101
-0.046153 0.119438 0.400630 156 130 97
-0.046322 0.119550 0.400153 154 128 95
-0.047127 0.119333 0.400882 155 129 96
-0.047296 0.119445 0.400406 155 129 96
-0.046880 0.119598 0.401981 157 133 99
-0.047048 0.119710 0.401505 158 134 100
-0.047217 0.119822 0.401029 155 131 97
-0.040135 0.120775 0.400370 156 132 98
-0.040770 0.120459 0.401593 157 131 98
-0.040941 0.120572 0.401108 157 133 99
-0.042000 0.120098 0.400728 156 132 98
-0.042171 0.120211 0.400244 158 134 100
-0.040689 0.120843 0.402228 157 131 98
-0.041748 0.120367 0.401843 156 130 97
-0.041919 0.120481 0.401360 156 130 97
-0.042977 0.120004 0.400980 157 131 98
-0.040781 0.121341 0.402377 157 131 98
-0.041839 0.120864 0.401992 155 129 96
-0.042010 0.120977 0.401509 154 128 95
-0.043067 0.120499 0.401128 155 129 96
-0.044123 0.120020 0.400751 160 134 101
-0.044044 0.120401 0.401379 155 129 96
-0.044134 0.120894 0.401527 157 131 98
-0.045189 0.120412 0.401151 159 133 100
-0.046969 0.120087 0.402127 158 134 100
-0.054993 0.110419 0.384165 127 116 98
-0.055207 0.110366 0.384665 129 118 100
-0.054788 0.110906 0.384306 128 117 99
-0.055001 0.110852 0.384805 129 118 100
-0.054582 0.111392 0.384446 128 117 99
-0.048375 0.118872 0.396160 159 135 101
-0.048543 0.118984 0.395684 160 136 102
-0.048127 0.119138 0.397258 156 132 98
-0.048296 0.119249 0.396782 157 133 99
-0.048464 0.119361 0.396306 159 135 101
-0.048633 0.119473 0.395830 160 136 102
-0.048048 0.119515 0.397880 159 133 100
-0.049098 0.119030 0.397521 156 132 98
-0.049266 0.119141 0.397046 157 133 99
-0.049434 0.119253 0.396572 158 134 100
-0.049602 0.119364 0.396098 158 134 100
-0.048683 0.119183 0.399090 159 133 100
-0.048851 0.119294 0.398616 158 132 99
-0.049019 0.119406 0.398141 160 134 101
-0.050068 0.118919 0.397783 157 133 99
-0.050235 0.119030 0.397310 158 134 100
-0.051282 0.118542 0.396956 158 134 100
-0.051449 0.118653 0.396484 158 134 100
-0.048605 0.119559 0.399710 160 134 101
-0.048772 0.119670 0.399236 159 133 100
-0.048940 0.119781 0.398761 159 133 100
-0.049989 0.119294 0.398401 159 133 100
-0.051037 0.118805 0.398044 161 137 103
-0.051204 0.118916 0.397572 159 135 101
-0.051370 0.119026 0.397101 158 134 100
-0.051537 0.119137 0.396629 159 135 101
-0.052749 0.118757 0.395810 160 134 101
-0.053792 0.118265 0.395465 159 133 100
-0.054834 0.117773 0.395122 158 132 99
-0.054999 0.117883 0.394655 152 126 91
-0.049911 0.119668 0.399019 155 129 96
-0.050078 0.119779 0.398547 156 130 97
-0.051125 0.119289 0.398189 159 135 101
-0.052172 0.118798 0.397834 158 134 100
-0.052338 0.118908 0.397364 157 133 99
-0.052504 0.119019 0.396894 157 133 99
-0.052671 0.119129 0.396424 159 133 100
-0.053714 0.118636 0.396077 159 133 100
-0.053880 0.118746 0.395609 159 133 100
-0.054922 0.118253 0.395266 159 133 100
-0.055087 0.118362 0.394799 157 131 96
-0.051214 0.119773 0.398334 157 133 99
-0.052260 0.119281 0.397978 157 133 99
-0.053305 0.118787 0.397626 157 133 99
-0.053471 0.118897 0.397158 155 131 97
-0.053637 0.119007 0.396689 156 130 97
-0.054679 0.118513 0.396343 158 132 99
-0.054845 0.118622 0.395876 159 133 100
-0.055010 0.118732 0.395409 159 133 100
-0.055175 0.118842 0.394943 158 132 97
-0.053393 0.119268 0.397770 156 132 98
-0.054437 0.118773 0.397420 154 130 96
-0.054602 0.118883 0.396954 155 129 96
-0.054767 0.118992 0.396487 157 131 98
-0.055809 0.118495 0.396143 159 133 100
-0.055973 0.118605 0.395678 158 132 99
-0.055896 0.118973 0.396286 159 133 100
-0.055984 0.119451 0.396429 159 133 100
-0.048269 0.119336 0.400659 157 131 98
-0.048437 0.119447 0.400185 160 134 101
-0.048022 0.119600 0.401754 157 133 99
-0.048190 0.119712 0.401280 156 132 98
-0.048358 0.119823 0.400805 158 132 99
-0.048526 0.119934 0.400331 159 133 100
-0.048694 0.120046 0.399856 156 130 97
-0.048862 0.120157 0.399382 154 128 95
-0.048951 0.120644 0.399528 151 125 92
-0.050000 0.120154 0.399165 153 127 94
-0.050167 0.120265 0.398692 155 129 96
-0.048111 0.120087 0.401900 157 133 99
-0.048279 0.120199 0.401425 157 133 99
-0.048447 0.120310 0.400951 159 135 101
-0.048615 0.120421 0.400477 158 134 100
-0.048783 0.120533 0.400002 154 128 95
-0.048537 0.120797 0.401097 160 136 102
-0.048705 0.120909 0.400623 159 135 101
-0.056975 0.111179 0.384171 129 118 100
-0.057190 0.111125 0.384674 128 117 99
-0.056280 0.118039 0.397800 154 130 96
-0.056444 0.118148 0.397337 155 129 96
-0.056608 0.118256 0.396873 158 132 99
-0.056061 0.119082 0.395821 158 132 99
-0.056367 0.118515 0.397943 155 131 97
-0.056531 0.118624 0.397479 157 131 98
-0.056695 0.118733 0.397015 159 133 100
-0.057495 0.118490 0.397741 158 132 99
-0.057658 0.118598 0.397278 159 133 100
-0.057582 0.118964 0.397883 158 132 99
-0.057745 0.119073 0.397421 158 132 99
-0.055666 0.111098 0.383738 127 116 98
-0.054574 0.110960 0.383806 126 115 97
-0.054368 0.111446 0.383946 129 118 100
