ply
format ascii 1.0
element vertex 472
property float x
property float y
property float z
property uchar red
property uchar green
property uchar blue
end_header
0.347995 0.096484 0.476854 125 127 122
0.347292 0.096950 0.474868 125 127 122
0.346589 0.097416 0.472883 126 128 123
0.345896 0.099583 0.479920 126 128 123
0.345196 0.100047 0.477941 126 128 123
0.331083 0.103671 0.462361 128 130 129
0.330390 0.104130 0.460406 130 132 131
0.344167 0.098944 0.473373 126 128 123
0.344490 0.099664 0.471451 127 129 126
0.343470 0.100254 0.475897 127 129 126
0.342770 0.100718 0.473920 127 129 126
0.341048 0.100923 0.471886 127 129 126
0.340349 0.101386 0.469912 126 128 127
0.339651 0.101849 0.467939 129 131 130
0.343798 0.101820 0.478481 129 131 128
0.342074 0.102023 0.476440 127 129 126
0.340352 0.102225 0.474404 129 131 130
0.338632 0.102425 0.472374 127 129 128
0.337936 0.102887 0.470407 128 130 129
0.337239 0.103349 0.468440 129 131 130
0.335524 0.103546 0.466422 129 131 130
0.341376 0.103323 0.478951 129 134 130
0.339655 0.103522 0.476914 127 129 128
0.338958 0.103983 0.474947 129 131 130
0.338262 0.104445 0.472979 128 130 129
0.336545 0.104641 0.470955 132 134 133
0.334830 0.104835 0.468937 128 130 129
0.343099 0.103123 0.480994 127 132 128
0.343427 0.104686 0.483574 127 132 128
0.340677 0.104618 0.481454 126 131 127
0.332424 0.105488 0.464966 131 133 132
0.330715 0.105679 0.462963 128 130 129
0.330022 0.106138 0.461007 130 132 131
0.331362 0.107958 0.463610 130 132 129
0.330669 0.108418 0.461652 132 134 131
0.334136 0.105296 0.466975 129 131 130
0.339981 0.105080 0.479487 127 131 130
0.337238 0.105008 0.477385 126 130 129
0.336544 0.105468 0.475424 129 131 130
0.335849 0.105928 0.473463 130 132 131
0.334135 0.106120 0.471443 131 133 132
0.333442 0.106579 0.469485 130 132 131
0.332749 0.107039 0.467527 131 133 132
0.332055 0.107499 0.465568 129 131 130
0.337563 0.106561 0.479950 125 129 128
0.334823 0.106481 0.477852 126 130 129
0.334131 0.106940 0.475897 130 132 131
0.333439 0.107399 0.473942 130 132 131
0.332747 0.107858 0.471987 129 131 130
0.332055 0.108317 0.470031 129 131 130
0.331363 0.108776 0.468076 130 132 131
0.330671 0.109235 0.466121 132 134 133
0.334455 0.108489 0.478454 127 131 130
0.332742 0.108674 0.476433 130 132 131
0.333071 0.109407 0.474543 129 131 130
0.332379 0.109866 0.472588 131 133 132
0.330669 0.110049 0.470576 133 135 134
0.333066 0.110220 0.478985 128 130 127
0.332375 0.110678 0.477033 132 134 131
0.331684 0.111137 0.475081 132 134 131
0.330993 0.111595 0.473129 130 130 128
0.331678 0.111945 0.479515 131 133 130
0.330988 0.112403 0.477566 131 133 130
0.330298 0.112860 0.475617 132 132 130
0.344452 0.105785 0.488128 128 130 127
0.342727 0.105981 0.486074 127 129 126
0.341003 0.106176 0.484027 129 131 128
0.339282 0.106369 0.481985 127 129 126
0.340998 0.107003 0.488483 127 129 126
0.339277 0.107194 0.486437 129 131 128
0.338582 0.107654 0.484476 128 130 127
0.335840 0.107571 0.482364 128 130 127
0.335148 0.108030 0.480409 127 131 130
0.338575 0.108474 0.488917 127 132 128
0.337882 0.108934 0.486958 124 129 125
0.336164 0.109120 0.484921 130 135 131
0.335472 0.109579 0.482966 126 131 127
0.333757 0.109762 0.480938 131 136 132
0.337180 0.110209 0.489433 123 128 122
0.336488 0.110668 0.487478 127 132 126
0.335796 0.111127 0.485522 125 130 124
0.334081 0.111308 0.483490 126 131 125
0.333390 0.111766 0.481538 129 131 128
0.335786 0.111938 0.489948 128 133 127
0.335095 0.112396 0.487995 127 132 126
0.334404 0.112854 0.486043 128 133 127
0.332691 0.113031 0.484013 125 130 124
0.332001 0.113489 0.482064 130 132 129
0.331311 0.113946 0.480115 133 135 132
0.335419 0.113942 0.490548 130 132 129
0.334728 0.114400 0.488596 129 131 128
0.333014 0.114575 0.486562 131 133 130
0.332324 0.115033 0.484613 130 132 129
0.331634 0.115490 0.482663 132 134 131
0.335051 0.115947 0.491148 130 132 131
0.333337 0.116119 0.489110 129 131 130
0.332647 0.116576 0.487161 129 131 130
0.331957 0.117034 0.485212 132 134 133
0.330247 0.117203 0.483186 130 132 129
0.330569 0.118745 0.485731 131 133 132
0.348327 0.098908 0.483956 127 129 124
0.347625 0.099373 0.481973 128 130 125
0.349358 0.100013 0.488531 125 127 124
0.348656 0.100478 0.486548 125 127 124
0.346925 0.100686 0.484488 124 126 121
0.346225 0.101150 0.482509 124 129 123
0.345524 0.101615 0.480529 126 131 125
0.347954 0.101789 0.489056 129 131 128
0.347253 0.102254 0.487077 124 129 125
0.346553 0.102718 0.485097 125 130 126
0.345852 0.103183 0.483118 125 130 126
0.347582 0.103821 0.489665 126 131 127
0.345852 0.104023 0.487603 127 132 128
0.345153 0.104486 0.485627 126 131 127
0.345151 0.105322 0.490101 129 131 128
0.329330 0.106597 0.459052 131 133 132
0.327625 0.106785 0.457061 131 133 132
0.325922 0.106971 0.455076 131 133 132
0.328962 0.108604 0.459653 132 134 131
0.326245 0.108515 0.457625 129 131 128
0.325555 0.108973 0.455675 131 133 130
0.329979 0.109694 0.464165 130 132 129
0.329286 0.110153 0.462210 131 133 130
0.325878 0.110516 0.458224 130 132 129
0.325188 0.110974 0.456275 132 134 131
0.324498 0.111431 0.454326 132 134 131
0.328596 0.111423 0.464719 129 134 130
0.327905 0.111881 0.462767 128 133 127
0.327214 0.112339 0.460815 129 134 128
0.325511 0.112517 0.458824 128 133 127
0.324821 0.112975 0.456874 129 134 128
0.323122 0.113151 0.454893 131 136 130
0.322433 0.113608 0.452946 132 137 131
0.326525 0.113604 0.463322 132 133 128
0.325835 0.114061 0.461372 130 130 128
0.324134 0.114235 0.459384 132 134 131
0.323445 0.114692 0.457437 133 135 132
0.322756 0.115149 0.455491 134 136 133
0.322067 0.115606 0.453545 132 134 131
0.324133 0.115035 0.463828 131 131 129
0.323445 0.115491 0.461885 131 133 130
0.322757 0.115947 0.459942 131 133 130
0.322069 0.116403 0.457999 130 132 131
0.321382 0.116859 0.456055 133 135 134
0.321701 0.117604 0.454144 134 136 135
0.322018 0.118350 0.452226 136 138 137
0.321744 0.116454 0.464331 132 132 130
0.322069 0.117197 0.462438 131 133 132
0.321382 0.117653 0.460498 132 134 133
0.321704 0.118398 0.458596 133 137 136
0.321016 0.118854 0.456653 132 136 135
0.321334 0.119602 0.454742 131 135 136
0.321379 0.118443 0.464927 131 133 130
0.320693 0.118897 0.462989 130 132 129
0.320008 0.119352 0.461052 130 135 131
0.329978 0.110507 0.468624 131 133 132
0.329287 0.110965 0.466671 130 132 129
0.329284 0.111774 0.471119 131 131 129
0.328594 0.112231 0.469169 129 131 128
0.327904 0.112689 0.467220 131 133 128
0.327214 0.113146 0.465271 129 131 126
0.329608 0.113318 0.473667 131 132 127
0.327901 0.113493 0.471659 132 133 128
0.327212 0.113950 0.469713 131 132 127
0.326523 0.114406 0.467767 131 133 128
0.324821 0.114579 0.465771 133 133 131
0.329601 0.114121 0.478097 130 130 128
0.328912 0.114577 0.476150 131 131 129
0.328224 0.115034 0.474204 134 135 130
0.326519 0.115206 0.472198 132 133 128
0.325831 0.115662 0.470255 131 132 127
0.324129 0.115831 0.468258 131 132 127
0.323442 0.116287 0.466318 132 132 130
0.329235 0.116119 0.478695 134 134 132
0.328546 0.116576 0.476749 133 133 131
0.326841 0.116745 0.474739 134 134 132
0.326153 0.117201 0.472796 132 133 128
0.324451 0.117368 0.470795 132 133 128
0.322750 0.117533 0.468801 132 133 128
0.322065 0.117988 0.466864 132 132 130
0.328869 0.118117 0.479294 131 131 129
0.327163 0.118284 0.477280 131 131 129
0.326475 0.118740 0.475337 130 130 128
0.324772 0.118904 0.473332 131 131 129
0.324085 0.119360 0.471392 132 132 130
0.322386 0.119522 0.469397 133 134 129
0.320688 0.119683 0.467407 130 132 127
0.327485 0.119823 0.479821 131 131 129
0.329924 0.115662 0.480641 129 131 128
0.329558 0.117660 0.481240 129 131 128
0.329880 0.119202 0.483785 131 133 130
0.329191 0.119658 0.481839 130 132 129
0.322277 0.121854 0.448974 135 137 136
0.321909 0.123861 0.449575 136 138 135
0.321217 0.124320 0.447620 136 138 135
0.320849 0.126327 0.448221 136 138 135
0.318480 0.127727 0.448776 135 140 136
0.317790 0.128185 0.446827 135 140 136
0.317100 0.128642 0.444878 133 138 134
0.315413 0.128794 0.442915 136 141 137
0.317114 0.129421 0.449352 134 139 135
0.316425 0.129878 0.447406 134 139 135
0.315047 0.130792 0.443514 139 141 138
0.315748 0.131109 0.449926 135 140 136
0.315060 0.131565 0.447983 135 140 136
0.321651 0.120351 0.452825 135 139 140
0.321965 0.121102 0.450903 136 138 137
0.321338 0.120393 0.459194 131 136 132
0.320650 0.120849 0.457251 133 137 136
0.320968 0.121600 0.455341 132 136 135
0.321284 0.122352 0.453425 131 135 134
0.321598 0.123106 0.451503 135 137 136
0.320329 0.120886 0.463585 132 134 129
0.319643 0.121341 0.461648 131 136 130
0.319965 0.122092 0.459751 134 139 133
0.320284 0.122844 0.457848 132 137 133
0.320602 0.123598 0.455940 133 138 134
0.320917 0.124353 0.454025 133 138 134
0.321230 0.125110 0.452104 135 137 134
0.321541 0.125868 0.450176 138 140 137
0.318955 0.122577 0.464134 133 136 129
0.319278 0.123329 0.462244 133 138 132
0.318593 0.123784 0.460307 133 138 132
0.318913 0.124539 0.458408 131 136 130
0.319231 0.125295 0.456503 133 138 132
0.320550 0.126355 0.454624 134 139 135
0.320863 0.127115 0.452704 132 137 133
0.320172 0.127573 0.450752 136 141 137
0.317583 0.124261 0.464680 135 137 132
0.317906 0.125016 0.462795 133 138 134
0.317222 0.125470 0.460861 131 136 132
0.317542 0.126227 0.458966 132 137 133
0.316857 0.126682 0.457029 134 139 135
0.318177 0.127746 0.455158 136 141 137
0.317489 0.128202 0.453214 134 139 135
0.318803 0.129271 0.451325 135 140 136
0.316536 0.126697 0.463343 133 135 134
0.316858 0.127456 0.461455 129 133 132
0.317178 0.128216 0.459561 134 138 137
0.316492 0.128671 0.457624 134 138 137
0.316809 0.129433 0.455721 133 137 136
0.317124 0.130197 0.453812 131 137 133
0.316436 0.130653 0.451869 131 137 133
0.316172 0.128679 0.463937 130 132 129
0.316494 0.129441 0.462050 134 136 133
0.315809 0.129895 0.460116 135 137 134
0.315125 0.130349 0.458182 135 140 136
0.315442 0.131114 0.456283 133 137 136
0.315070 0.132336 0.452438 136 138 133
0.315809 0.130662 0.464531 135 137 132
0.315125 0.131115 0.462600 135 140 136
0.315445 0.131881 0.460711 133 138 134
0.315081 0.133867 0.461306 133 138 132
0.320004 0.120137 0.465473 132 134 129
0.326797 0.120279 0.477878 130 130 128
0.326109 0.120735 0.475935 130 130 128
0.324407 0.120896 0.473929 132 132 130
0.322707 0.121056 0.471929 134 134 132
0.321009 0.121215 0.469936 132 132 130
0.320324 0.121669 0.468002 131 134 127
0.319640 0.122123 0.466068 134 137 130
0.326431 0.122274 0.478475 129 129 127
0.324729 0.122433 0.476466 131 131 129
0.323028 0.122590 0.474462 131 131 129
0.322342 0.123045 0.472525 132 132 130
0.320645 0.123200 0.470531 130 132 129
0.318950 0.123355 0.468543 133 134 129
0.318266 0.123808 0.466611 134 136 131
0.325378 0.124725 0.477130 133 133 131
0.323677 0.124880 0.475122 132 132 130
0.321978 0.125034 0.473121 132 134 131
0.320281 0.125186 0.471126 133 135 132
0.318586 0.125337 0.469136 133 133 131
0.317903 0.125790 0.467205 135 137 134
0.317219 0.126243 0.465274 133 135 132
0.324685 0.125961 0.479599 131 132 127
0.323998 0.126416 0.477659 130 131 126
0.322299 0.126568 0.475654 132 133 128
0.321613 0.127022 0.473717 130 131 126
0.319917 0.127172 0.471721 137 138 133
0.318223 0.127320 0.469730 132 134 131
0.317539 0.127773 0.467799 135 137 134
0.316856 0.128226 0.465868 130 132 129
0.322620 0.128102 0.478187 131 132 127
0.321934 0.128557 0.476250 131 132 127
0.321249 0.129011 0.474313 136 137 132
0.319553 0.129157 0.472316 135 136 131
0.317859 0.129302 0.470324 131 133 128
0.317176 0.129755 0.468393 133 135 130
0.316492 0.130209 0.466462 133 135 130
0.322255 0.130091 0.478783 131 132 127
0.321570 0.130545 0.476846 133 134 129
0.319873 0.130689 0.474844 135 136 131
0.319189 0.131143 0.472910 134 135 130
0.317496 0.131285 0.470918 131 133 128
0.316812 0.131738 0.468987 133 135 130
0.316129 0.132191 0.467056 129 131 126
0.315445 0.132644 0.465125 134 136 131
0.321205 0.132534 0.477441 133 135 130
0.320519 0.132989 0.475504 133 135 130
0.318825 0.133129 0.473505 134 136 131
0.318140 0.133583 0.471571 130 132 127
0.316449 0.133720 0.469581 131 133 128
0.315765 0.134174 0.467650 135 137 132
0.315082 0.134627 0.465719 136 138 135
0.314724 0.129250 0.440969 135 140 136
0.314738 0.130027 0.445442 136 141 137
0.314358 0.131248 0.441567 138 140 137
0.314663 0.132016 0.439630 139 141 138
0.314372 0.132022 0.446039 136 141 137
0.313684 0.132478 0.444096 138 140 137
0.313992 0.133247 0.442166 139 141 138
0.314297 0.134017 0.440229 138 140 137
0.313607 0.134474 0.438280 138 140 139
0.314694 0.133560 0.448580 134 139 135
0.314007 0.134017 0.446637 136 140 139
0.313319 0.134473 0.444694 138 140 139
0.312631 0.134929 0.442751 137 139 138
0.314756 0.131569 0.454346 132 137 133
0.314383 0.132791 0.450498 138 140 137
0.314761 0.132335 0.458777 133 138 134
0.314076 0.132789 0.456843 134 139 135
0.313391 0.133243 0.454909 136 138 133
0.313706 0.134012 0.453005 136 138 135
0.313020 0.134467 0.451068 134 139 135
0.314762 0.133098 0.463194 133 138 132
0.314397 0.134321 0.459372 133 138 132
0.313712 0.134774 0.457438 135 140 134
0.313840 0.138028 0.434985 138 140 139
0.314137 0.138807 0.433028 137 138 140
0.313768 0.140817 0.433630 137 138 140
0.313075 0.141277 0.431672 136 137 139
0.313368 0.142061 0.429707 138 140 139
0.312674 0.142521 0.427746 134 138 137
0.312964 0.143307 0.425772 136 140 139
0.313693 0.143614 0.432272 138 139 141
0.312999 0.144074 0.430310 137 139 138
0.312305 0.144535 0.428349 137 139 138
0.311610 0.144995 0.426388 139 141 140
0.313031 0.144839 0.434835 136 136 136
0.312338 0.145298 0.432877 138 138 138
0.312630 0.146088 0.430914 138 138 138
0.311936 0.146548 0.428952 138 140 139
0.311241 0.147009 0.426991 138 140 139
0.310547 0.147469 0.425029 138 140 139
0.310834 0.148263 0.423051 138 140 139
0.311118 0.149057 0.421067 136 138 137
0.311969 0.147309 0.433479 137 137 137
0.311276 0.147768 0.431521 138 138 138
0.310583 0.148228 0.429562 139 139 139
0.310872 0.149022 0.427594 136 138 137
0.310178 0.149483 0.425633 138 140 139
0.310616 0.148983 0.434081 140 140 140
0.309923 0.149442 0.432126 139 139 139
0.309231 0.149901 0.430171 139 139 139
0.314900 0.135562 0.436338 139 143 142
0.312936 0.135701 0.440818 139 141 140
0.313240 0.136476 0.438880 140 142 141
0.313541 0.137251 0.436935 139 141 140
0.313332 0.135238 0.449154 133 137 136
0.313641 0.136012 0.447235 137 141 140
0.312953 0.136468 0.445292 135 139 138
0.312265 0.136924 0.443349 139 141 140
0.311577 0.137380 0.441405 141 143 142
0.312873 0.138477 0.439479 139 141 140
0.312183 0.138934 0.437530 138 140 139
0.313472 0.140036 0.435586 137 139 138
0.312966 0.137230 0.449751 135 139 138
0.312280 0.137686 0.447811 135 139 138
0.312587 0.138463 0.445889 137 141 140
0.311899 0.138919 0.443946 139 141 140
0.312204 0.139698 0.442016 139 141 140
0.312506 0.140478 0.440079 138 140 139
0.312806 0.141260 0.438136 137 139 138
0.311914 0.139678 0.448408 135 139 138
0.312221 0.140458 0.446487 137 141 140
0.312526 0.141239 0.444560 136 140 139
0.311837 0.141696 0.442614 139 141 140
0.312139 0.142479 0.440678 137 139 138
0.312439 0.143264 0.438737 135 137 136
0.312736 0.144051 0.436789 137 137 137
0.311549 0.141669 0.449004 136 140 139
0.311856 0.142453 0.447085 135 139 138
0.312160 0.143237 0.445159 136 140 139
0.312462 0.144023 0.443227 138 140 137
0.311772 0.144481 0.441278 138 140 139
0.313060 0.145599 0.439345 135 137 136
0.313356 0.146389 0.437396 139 139 139
0.312663 0.146849 0.435437 137 137 137
0.312178 0.143992 0.449626 137 141 140
0.311490 0.144448 0.447682 136 141 137
0.311794 0.145235 0.445758 136 138 135
0.312095 0.146024 0.443827 136 138 135
0.312395 0.146815 0.441890 134 136 133
0.312692 0.147607 0.439947 138 140 139
0.312000 0.148066 0.437992 138 138 138
0.311308 0.148524 0.436036 135 135 135
0.311124 0.146443 0.448280 136 141 137
0.311427 0.147233 0.446356 136 138 135
0.311728 0.148025 0.444426 137 139 134
0.312027 0.148819 0.442490 137 139 136
0.312324 0.149614 0.440548 137 139 138
0.310759 0.148438 0.448878 136 138 135
0.311061 0.149231 0.446955 137 139 134
0.313027 0.135228 0.455504 136 138 135
0.313341 0.136001 0.453601 137 139 136
0.312656 0.136456 0.451663 135 140 136
0.314717 0.135852 0.461901 133 138 134
0.314032 0.136306 0.459967 130 136 132
0.313348 0.136760 0.458033 131 137 133
0.312663 0.137214 0.456099 136 138 135
0.312977 0.137990 0.454196 135 139 138
0.312291 0.138444 0.452259 135 139 138
0.312601 0.139222 0.450348 134 138 137
0.312236 0.141214 0.450945 135 139 138
0.313554 0.143079 0.453512 136 140 139
0.312866 0.143535 0.451569 135 139 138
0.313188 0.145074 0.454110 136 140 139
0.312500 0.145530 0.452166 135 139 138
0.311812 0.145987 0.450223 136 140 139
0.312822 0.147069 0.454707 138 140 139
0.312134 0.147525 0.452764 131 135 134
0.311446 0.147981 0.450821 136 141 137
0.311768 0.149520 0.453362 138 140 137
0.315402 0.135398 0.463835 131 136 132
0.311400 0.149854 0.419077 139 141 140
0.310051 0.151539 0.419705 137 139 138
0.308614 0.156041 0.418948 137 139 136
0.307269 0.157713 0.419575 140 142 139
0.310464 0.150279 0.423656 138 140 139
0.310748 0.151077 0.421672 140 142 141
0.308539 0.150360 0.428215 136 136 134
0.309809 0.151496 0.426236 140 140 138
0.309114 0.151957 0.424275 139 141 138
0.309399 0.152757 0.422295 136 138 137
0.309681 0.153559 0.420310 138 140 139
0.309263 0.150652 0.434681 139 139 139
0.308572 0.151110 0.432729 138 138 138
0.307881 0.151568 0.430777 140 140 140
0.308171 0.152368 0.428817 138 140 137
0.308459 0.153168 0.426850 141 141 139
0.308745 0.153970 0.424878 137 137 135
0.309029 0.154774 0.422900 136 138 135
0.308334 0.155235 0.420935 140 142 139
0.308205 0.153114 0.433330 138 138 138
0.307513 0.153573 0.431377 139 139 139
0.307803 0.154375 0.429418 136 138 135
0.307111 0.154834 0.427463 138 138 136
0.308376 0.155984 0.425481 140 140 138
0.308659 0.156791 0.423504 138 138 136
0.307964 0.157252 0.421539 138 140 137
0.307146 0.155577 0.431978 139 139 137
0.307435 0.156382 0.430019 138 138 136
0.306743 0.156841 0.428064 137 137 135
0.307029 0.157649 0.426097 139 139 137
0.307313 0.158458 0.424123 137 137 135
0.306618 0.158918 0.422162 139 140 135
0.305924 0.159379 0.420201 141 142 137
0.307638 0.160011 0.426688 137 137 135
0.306944 0.160472 0.424726 138 139 134
0.306249 0.160932 0.422765 139 140 135
0.311632 0.150073 0.438593 136 138 137
0.310940 0.150532 0.436638 137 137 137
0.311362 0.150027 0.445026 138 140 135
0.312648 0.151163 0.443105 134 139 135
0.311956 0.151622 0.441150 134 136 135
0.311264 0.152080 0.439194 138 140 139
0.310572 0.152539 0.437239 138 138 138
0.308896 0.152656 0.435282 139 139 139
0.310601 0.153286 0.441739 136 137 132
0.310896 0.154088 0.439796 140 140 138
0.309219 0.154202 0.437835 139 139 137
