ply
format ascii 1.0
element vertex 481
property float x
property float y
property float z
property uchar red
property uchar green
property uchar blue
end_header
0.025279 0.138502 0.398000 185 182 173
0.026583 0.138502 0.398000 184 181 172
0.027887 0.138502 0.398000 184 181 172
0.027887 0.139809 0.398000 185 182 173
0.027887 0.141117 0.398000 185 182 173
0.029967 0.135161 0.395827 164 137 107
0.027930 0.135335 0.396384 160 133 103
-0.000048 0.128796 0.386577 162 133 103
-0.000758 0.129128 0.388146 160 133 103
-0.001147 0.129386 0.387045 162 135 105
-0.001857 0.129712 0.388609 157 130 100
-0.003137 0.129424 0.387640 164 139 108
-0.003524 0.129681 0.386546 163 136 106
-0.002955 0.130291 0.389071 157 132 101
-0.004233 0.129999 0.388104 160 135 104
-0.004619 0.130255 0.387013 160 133 103
-0.005894 0.129960 0.386055 164 137 107
-0.004943 0.130311 0.389655 164 137 107
-0.006218 0.130015 0.388693 155 130 99
-0.005713 0.130822 0.387478 163 136 107
-0.006986 0.130524 0.386522 163 136 107
0.012965 0.128086 0.404785 159 132 102
0.012567 0.128350 0.403660 160 133 103
0.012168 0.128614 0.402535 162 135 105
0.011446 0.128974 0.404087 163 136 106
0.011049 0.129237 0.402965 159 132 102
0.011235 0.130125 0.404432 157 130 100
0.009931 0.129853 0.403393 159 133 100
0.010116 0.130739 0.404856 158 131 101
0.008814 0.130463 0.403819 162 136 103
-0.002180 0.129777 0.391260 157 130 100
-0.002568 0.130034 0.390166 160 133 103
-0.008638 0.127051 0.392418 159 132 102
-0.006342 0.128955 0.390984 157 130 100
-0.010505 0.124487 0.402120 155 126 96
-0.010880 0.124735 0.401062 159 129 101
-0.011254 0.124983 0.400004 157 127 99
-0.011629 0.125232 0.398946 159 129 101
-0.012900 0.124927 0.397991 156 130 97
-0.013273 0.125174 0.396936 161 135 102
-0.013647 0.125422 0.395881 159 133 100
-0.014020 0.125669 0.394826 159 133 100
-0.014393 0.125917 0.393771 160 133 103
-0.014767 0.126164 0.392716 154 127 97
-0.011605 0.125019 0.402535 155 128 98
-0.012877 0.124712 0.401574 154 127 97
-0.011454 0.126069 0.400329 155 128 98
-0.011828 0.126318 0.399271 157 130 100
-0.013994 0.125453 0.398418 159 133 100
-0.014366 0.125700 0.397366 161 135 102
-0.014739 0.125947 0.396314 154 128 95
-0.012703 0.125546 0.402949 154 127 97
-0.013973 0.125235 0.401990 155 128 98
-0.013447 0.126039 0.400845 158 131 101
-0.014716 0.125727 0.399892 158 131 101
-0.013799 0.126066 0.403361 153 126 96
0.013363 0.127823 0.405909 161 134 104
0.013151 0.128977 0.406255 158 131 101
0.011843 0.128710 0.405208 157 130 100
0.012029 0.129599 0.406675 155 128 98
0.011632 0.129862 0.405553 158 131 101
0.011818 0.130750 0.407020 159 132 102
0.010512 0.130477 0.405974 158 131 101
0.028315 0.134118 0.389171 159 132 103
0.028798 0.134913 0.387868 159 132 103
0.027190 0.134816 0.389649 158 131 102
0.029639 0.134356 0.390245 156 131 101
0.028445 0.133984 0.393196 163 138 108
0.027122 0.133744 0.392121 161 136 106
0.026704 0.134020 0.390942 157 132 102
0.027735 0.134401 0.394843 163 138 107
0.025507 0.133637 0.393871 160 135 104
0.024188 0.133392 0.392804 156 131 101
0.023774 0.133666 0.391634 153 128 98
0.023359 0.133941 0.390464 159 134 104
0.024796 0.134044 0.395504 161 136 105
0.022573 0.133272 0.394539 158 133 102
0.022160 0.133545 0.393375 153 128 98
0.020846 0.133294 0.392320 157 132 102
0.020435 0.133566 0.391159 158 133 103
0.020050 0.132617 0.396358 158 133 102
0.022353 0.134467 0.394897 149 124 93
0.021038 0.134213 0.393838 157 132 102
0.020627 0.134486 0.392677 158 133 103
0.030346 0.133927 0.388576 159 132 103
0.037280 0.134911 0.391139 162 135 106
0.035945 0.134687 0.390040 160 133 104
0.042680 0.133534 0.404743 160 135 105
0.041333 0.133314 0.403607 156 131 101
0.040905 0.133598 0.402397 160 133 103
0.038707 0.133943 0.398857 159 132 102
0.038280 0.134227 0.397650 158 131 101
0.037853 0.134510 0.396444 160 133 103
0.036516 0.134284 0.395334 165 138 108
0.036090 0.134567 0.394131 162 135 105
0.034756 0.134339 0.393031 161 134 104
0.033424 0.134110 0.391937 159 132 103
0.032095 0.133880 0.390849 164 137 108
0.041106 0.134556 0.403979 152 127 96
0.039762 0.134333 0.402847 158 131 101
0.038420 0.134108 0.401722 156 129 99
0.037994 0.134390 0.400519 158 131 102
0.036655 0.134163 0.399402 161 134 105
0.036230 0.134445 0.398202 160 133 103
0.035805 0.134726 0.397001 161 134 104
0.034471 0.134496 0.395897 160 133 103
0.034047 0.134777 0.394700 163 136 106
0.032716 0.134545 0.393605 160 133 103
0.031386 0.134312 0.392516 161 134 105
0.030060 0.134077 0.391433 164 137 108
0.033759 0.134931 0.397555 161 134 104
0.032427 0.134696 0.396457 162 135 105
0.031098 0.134460 0.395364 165 138 108
0.030677 0.134739 0.394175 161 134 104
0.044331 0.131327 0.412073 154 127 97
0.043902 0.131611 0.410864 157 130 101
0.044397 0.132395 0.409593 158 131 102
0.043539 0.132964 0.407168 157 132 102
0.043109 0.133249 0.405956 153 128 98
0.044959 0.132001 0.414865 159 132 102
0.044531 0.132285 0.413655 154 127 97
0.043178 0.132067 0.412499 153 126 96
0.042751 0.132351 0.411293 158 131 102
0.042324 0.132634 0.410086 155 128 99
0.043310 0.134209 0.407541 154 129 99
0.042881 0.134494 0.406329 154 129 99
0.041534 0.134272 0.405188 155 130 99
0.044732 0.133243 0.415237 157 130 100
0.044303 0.133527 0.414027 156 129 99
0.042951 0.133306 0.412870 155 128 98
0.042524 0.133589 0.411664 158 131 101
0.042097 0.133872 0.410457 154 127 98
0.042591 0.134663 0.409189 157 130 101
0.044504 0.134485 0.415609 153 126 96
0.043151 0.134262 0.414448 156 129 99
0.042724 0.134545 0.413242 158 131 101
0.042297 0.134828 0.412035 154 127 97
0.043601 0.138488 0.387000 186 183 174
0.044637 0.137772 0.385000 185 182 173
0.042989 0.138053 0.393000 182 179 170
0.042661 0.138280 0.390000 184 181 172
0.044418 0.135725 0.397951 158 131 101
0.041296 0.135576 0.394473 161 134 104
0.039955 0.135356 0.393356 165 138 108
0.040878 0.135798 0.404351 154 127 97
0.039535 0.135571 0.403218 156 131 100
0.038193 0.135343 0.402092 157 132 101
0.037767 0.135626 0.400889 157 132 102
0.036429 0.135395 0.399772 158 133 103
0.035093 0.135164 0.398660 161 134 105
0.040650 0.137040 0.404723 158 131 101
0.040222 0.137324 0.403513 157 132 101
0.037967 0.136579 0.402462 158 133 102
0.037541 0.136861 0.401259 157 132 102
0.036203 0.136628 0.400141 157 132 102
0.034868 0.136393 0.399029 162 135 106
0.033534 0.136157 0.397923 155 128 99
0.031295 0.135401 0.396917 165 138 108
0.039995 0.138566 0.403885 153 128 97
0.038653 0.138332 0.402754 157 132 101
0.040681 0.140327 0.404183 158 133 102
0.043082 0.135454 0.407914 158 131 102
0.042653 0.135739 0.406702 153 126 97
0.042224 0.136023 0.405489 157 130 100
0.041870 0.135111 0.410829 153 126 97
0.042363 0.135904 0.409561 156 129 100
0.042854 0.136699 0.408287 158 131 102
0.042425 0.136984 0.407075 154 127 98
0.041996 0.137268 0.405862 156 129 99
0.041574 0.135272 0.413664 157 130 100
0.042135 0.137146 0.409933 154 127 98
0.042626 0.137944 0.408660 160 133 104
0.042197 0.138229 0.407448 155 128 99
0.041767 0.138513 0.406235 155 128 98
0.040423 0.138282 0.405095 157 130 100
0.042398 0.139189 0.409033 160 133 104
0.042885 0.139991 0.407755 155 128 99
0.042455 0.140277 0.406540 155 128 98
0.041110 0.140043 0.405395 155 129 96
-0.019487 0.126795 0.388165 167 138 108
-0.021085 0.126491 0.389790 160 133 103
-0.021453 0.126735 0.388750 161 134 104
-0.022532 0.127233 0.389201 161 134 104
-0.029270 0.124525 0.389414 157 130 100
-0.015140 0.126412 0.391662 162 135 105
-0.015111 0.126194 0.395262 162 136 103
-0.015483 0.126441 0.394210 160 134 101
-0.016746 0.126127 0.393276 162 133 101
-0.017117 0.126374 0.392227 165 136 104
-0.018377 0.126058 0.391302 162 133 101
-0.018747 0.126304 0.390256 159 130 100
-0.015087 0.125973 0.398843 157 130 100
-0.015458 0.126220 0.397794 157 130 100
-0.015830 0.126466 0.396745 159 132 102
-0.016201 0.126712 0.395697 161 134 104
-0.016572 0.126958 0.394648 161 132 102
-0.017833 0.126641 0.393715 161 132 102
-0.019092 0.126323 0.392789 162 133 103
-0.020349 0.126003 0.391869 159 130 100
-0.020717 0.126247 0.390829 160 133 103
-0.015966 0.125191 0.402495 154 127 97
-0.016335 0.125435 0.401453 158 131 101
-0.016704 0.125680 0.400410 156 129 99
-0.017073 0.125925 0.399367 158 131 101
-0.017443 0.126170 0.398324 157 130 100
-0.016919 0.126979 0.397175 160 133 103
-0.017290 0.127224 0.396129 159 132 102
-0.016770 0.128035 0.394970 156 127 97
-0.018919 0.127149 0.394153 156 127 97
-0.019288 0.127393 0.393110 160 131 101
-0.021431 0.126503 0.392311 162 133 103
-0.021798 0.126746 0.391274 162 135 105
-0.022165 0.126989 0.390237 161 134 104
-0.016531 0.126506 0.401773 157 132 101
-0.018691 0.125621 0.400924 156 131 100
-0.019058 0.125864 0.399887 157 130 100
-0.019425 0.126107 0.398850 156 129 99
-0.020159 0.126594 0.396777 164 135 105
-0.026945 0.124142 0.393355 161 132 102
-0.026420 0.124953 0.392212 159 132 102
-0.026782 0.125193 0.391191 160 133 103
-0.029267 0.124278 0.392896 165 136 106
-0.029984 0.124753 0.390871 160 131 101
0.045779 0.137414 0.384000 185 182 173
0.047037 0.137414 0.384000 187 184 175
0.048296 0.137414 0.384000 187 184 175
0.049554 0.137414 0.384000 184 181 172
0.045779 0.138676 0.384000 186 183 174
0.058435 0.138439 0.389473 161 134 104
0.058196 0.139746 0.389865 161 134 104
0.057745 0.140045 0.388592 161 136 105
0.056595 0.140854 0.389091 162 137 107
0.054537 0.141157 0.389694 163 138 108
0.053181 0.140952 0.388539 165 140 110
0.048403 0.139724 0.389468 165 138 109
0.059787 0.137542 0.393293 160 133 103
0.059337 0.137841 0.392020 155 128 98
0.058886 0.138140 0.390747 159 132 102
0.056754 0.135210 0.399196 161 134 104
0.057227 0.135995 0.397851 160 133 103
0.056780 0.136291 0.396590 159 132 102
0.058166 0.137569 0.395144 160 133 104
0.058633 0.138358 0.393781 156 129 99
0.059097 0.139148 0.392411 156 129 99
0.058646 0.139447 0.391138 160 133 103
0.056517 0.136502 0.399583 158 131 101
0.056989 0.137290 0.398239 159 132 102
0.056543 0.137586 0.396978 158 131 102
0.057012 0.138376 0.395625 161 134 105
0.058394 0.139662 0.394171 158 131 101
0.058857 0.140456 0.392803 159 132 102
0.058407 0.140754 0.391530 162 135 105
0.057045 0.140556 0.390361 162 135 106
0.056725 0.137498 0.401228 158 131 101
0.056280 0.137793 0.399970 157 130 100
0.055835 0.138089 0.398712 158 131 102
0.055389 0.138384 0.397454 159 132 103
0.056774 0.139674 0.396014 162 135 106
0.057240 0.140468 0.394656 155 128 98
0.056792 0.140766 0.393389 161 134 105
0.056343 0.141063 0.392122 163 136 107
0.054984 0.140860 0.390958 160 133 104
0.053765 0.138383 0.399267 155 128 98
0.054237 0.139176 0.397928 158 131 101
0.051964 0.138470 0.396853 160 133 103
0.050608 0.138262 0.395697 158 131 101
0.050167 0.138555 0.394452 165 138 108
0.054282 0.141359 0.392710 161 134 104
0.051106 0.140146 0.391755 165 138 108
0.048844 0.139432 0.390714 166 139 109
0.046723 0.137525 0.396449 160 133 103
0.046286 0.137814 0.395216 158 131 101
-0.043648 0.119580 0.398274 155 128 98
-0.043990 0.119806 0.397310 159 132 102
-0.044033 0.119527 0.400603 160 134 101
-0.031224 0.124414 0.389990 161 132 102
-0.033342 0.123496 0.389251 164 135 105
-0.032296 0.125125 0.386962 161 132 102
-0.034411 0.123946 0.389694 162 133 103
-0.033886 0.124762 0.388556 163 134 104
-0.032098 0.121510 0.395388 159 130 100
-0.031760 0.121024 0.399801 159 132 102
-0.032113 0.121258 0.398804 157 130 100
-0.033355 0.120918 0.397916 153 126 96
-0.033707 0.121151 0.396922 157 130 100
-0.034059 0.121384 0.395928 160 133 103
-0.033526 0.122195 0.394815 162 135 105
-0.033879 0.122429 0.393817 160 131 101
-0.033703 0.123476 0.391694 153 124 94
-0.034057 0.123711 0.390694 163 134 104
-0.032838 0.121472 0.400211 160 133 103
-0.033190 0.121705 0.399217 154 127 97
-0.033542 0.121938 0.398222 157 130 100
-0.033894 0.122172 0.397228 157 130 100
-0.034246 0.122405 0.396234 159 132 102
-0.034598 0.122638 0.395239 159 132 102
-0.034950 0.122872 0.394245 158 131 101
-0.035302 0.123105 0.393251 158 131 101
-0.034772 0.123921 0.392129 154 127 97
-0.035126 0.124155 0.391132 165 138 108
-0.035479 0.124389 0.390135 162 135 105
-0.033755 0.120637 0.403685 154 127 97
-0.034105 0.120869 0.402697 152 126 93
-0.035345 0.120522 0.401808 158 132 99
-0.035694 0.120753 0.400823 158 132 99
-0.035154 0.121565 0.399732 155 129 96
-0.035504 0.121797 0.398744 157 131 98
-0.035854 0.122029 0.397756 157 133 99
-0.035318 0.122843 0.396654 160 136 102
-0.035669 0.123076 0.395662 160 136 102
-0.036020 0.123309 0.394671 158 133 102
-0.035489 0.124126 0.393557 154 129 98
-0.034960 0.124945 0.392436 158 133 102
-0.036193 0.124593 0.391568 160 135 104
-0.033591 0.121420 0.404978 155 126 94
-0.033941 0.121652 0.403989 158 129 97
-0.035182 0.121302 0.403096 151 125 92
-0.036768 0.121182 0.401227 158 134 100
-0.038004 0.120829 0.400349 156 132 98
-0.037464 0.121643 0.399262 158 134 100
-0.036040 0.123044 0.398060 159 134 103
-0.036390 0.123275 0.397072 157 130 100
-0.036740 0.123507 0.396083 157 130 100
-0.038854 0.122565 0.395334 157 132 101
-0.035019 0.122083 0.404384 159 130 98
-0.036258 0.121729 0.403493 154 128 95
-0.037495 0.121375 0.402608 161 135 102
-0.038730 0.121019 0.401729 155 129 96
-0.039963 0.120661 0.400856 158 134 100
-0.041193 0.120302 0.399989 157 133 99
-0.041537 0.120530 0.399019 158 132 99
-0.044331 0.120033 0.396346 157 132 101
-0.044672 0.120259 0.395382 156 131 100
-0.035204 0.123094 0.404687 159 133 100
-0.036443 0.122738 0.403795 156 130 97
-0.038568 0.121792 0.403005 155 129 96
-0.040689 0.120843 0.402228 157 131 98
-0.041919 0.120481 0.401360 156 130 97
-0.037517 0.123156 0.404190 153 127 94
-0.038752 0.122794 0.403306 155 129 96
-0.039985 0.122431 0.402428 156 130 97
-0.033241 0.121188 0.405966 158 129 97
-0.033427 0.122203 0.406270 157 128 96
-0.033777 0.122435 0.405282 158 129 97
-0.033613 0.123217 0.406574 153 127 94
-0.034855 0.122863 0.405673 156 130 97
-0.035041 0.123875 0.405976 154 128 95
-0.036280 0.123516 0.405080 155 129 96
-0.056975 0.111179 0.384171 129 118 100
-0.054788 0.110906 0.384306 128 117 99
-0.045258 0.119161 0.399751 155 129 96
-0.046480 0.118794 0.398904 156 130 97
-0.046818 0.119018 0.397949 159 132 102
-0.047156 0.119242 0.396994 157 133 99
-0.048375 0.118872 0.396160 159 135 101
-0.045099 0.119920 0.401003 160 134 101
-0.046322 0.119550 0.400153 154 128 95
-0.047543 0.119179 0.399308 160 134 101
-0.047880 0.119403 0.398356 158 132 99
-0.049098 0.119030 0.397521 156 132 98
-0.049434 0.119253 0.396572 158 134 100
-0.047048 0.119710 0.401505 158 134 100
-0.048269 0.119336 0.400659 157 131 98
-0.048605 0.119559 0.399710 160 134 101
-0.048940 0.119781 0.398761 159 133 100
-0.051037 0.118805 0.398044 161 137 103
-0.051370 0.119026 0.397101 158 134 100
-0.053792 0.118265 0.395465 159 133 100
-0.054999 0.117883 0.394655 152 126 91
-0.051214 0.119773 0.398334 157 133 99
-0.053305 0.118787 0.397626 157 133 99
-0.053637 0.119007 0.396689 156 130 97
-0.054845 0.118622 0.395876 159 133 100
-0.055175 0.118842 0.394943 158 132 97
-0.056444 0.118148 0.397337 155 129 96
-0.055896 0.118973 0.396286 159 133 100
-0.057495 0.118490 0.397741 158 132 99
-0.048111 0.120087 0.401900 157 133 99
-0.048447 0.120310 0.400951 159 135 101
-0.048783 0.120533 0.400002 154 128 95
-0.050000 0.120154 0.399165 153 127 94
-0.020662 0.097023 0.400907 124 111 92
-0.021415 0.096833 0.402667 125 112 93
-0.021321 0.099403 0.399663 127 114 97
-0.020812 0.098641 0.400411 129 114 95
-0.020299 0.097879 0.401154 129 114 95
-0.020676 0.097784 0.402034 127 112 93
-0.021052 0.097689 0.402915 123 108 89
-0.021429 0.097595 0.403795 124 109 90
-0.020577 0.100361 0.399025 128 115 98
-0.020956 0.100265 0.399912 127 114 97
-0.020448 0.099501 0.400659 127 111 95
-0.019937 0.098736 0.401401 130 115 96
-0.020313 0.098641 0.402282 125 110 91
-0.020690 0.098546 0.403162 123 108 89
-0.021066 0.098451 0.404043 124 109 90
-0.020212 0.101224 0.399274 128 115 98
-0.020591 0.101128 0.400161 128 115 98
-0.020084 0.100360 0.400908 132 116 100
-0.020462 0.100265 0.401791 125 109 93
-0.019951 0.099498 0.402529 125 109 93
-0.020328 0.099403 0.403410 124 108 92
-0.020704 0.099308 0.404290 123 108 89
-0.019343 0.101315 0.400273 129 116 97
-0.019721 0.101220 0.401156 128 113 94
-0.020098 0.101125 0.402039 129 114 95
-0.020476 0.101029 0.402923 123 108 89
-0.019965 0.100260 0.403657 122 109 90
-0.020342 0.100165 0.404538 120 107 88
-0.019357 0.102080 0.401404 128 113 94
-0.019603 0.101117 0.403904 124 111 92
-0.019979 0.101022 0.404785 123 110 91
-0.020188 0.098543 0.405016 124 109 90
-0.019827 0.099397 0.405263 122 109 90
-0.036012 0.105758 0.429120 133 130 123
-0.036399 0.105660 0.430024 135 132 123
-0.036786 0.105562 0.430928 133 130 121
-0.036557 0.107315 0.429604 133 130 121
-0.036027 0.106540 0.430278 133 130 121
-0.036414 0.106442 0.431182 134 131 122
-0.035796 0.108295 0.428951 128 125 116
-0.036184 0.108198 0.429858 132 129 120
-0.036572 0.108100 0.430766 132 129 120
-0.036041 0.107322 0.431436 135 132 123
-0.036336 0.109862 0.429434 131 127 116
-0.036725 0.109764 0.430344 133 129 118
-0.036198 0.108983 0.431020 137 133 122
-0.036586 0.108885 0.431928 136 132 121
-0.035961 0.110747 0.429690 130 126 115
-0.036350 0.110649 0.430600 137 130 120
-0.036739 0.110551 0.431510 136 129 119
-0.036213 0.109768 0.432183 136 129 119
-0.074695 0.114220 0.400993 122 111 93
-0.037158 0.104683 0.430674 132 129 120
-0.079633 0.113603 0.400584 123 108 89
-0.080082 0.113490 0.401634 117 106 86
-0.079614 0.112774 0.402561 118 107 89
-0.080062 0.112662 0.403607 117 105 89
-0.078288 0.114019 0.400762 120 107 90
-0.078736 0.113906 0.401808 118 105 86
-0.079183 0.113793 0.402855 123 110 91
-0.079631 0.113680 0.403901 118 105 88
-0.080078 0.113567 0.404948 118 107 89
-0.076946 0.114428 0.400938 124 111 94
-0.078305 0.114924 0.402102 124 111 92
-0.078753 0.114811 0.403149 118 105 88
-0.079200 0.114698 0.404195 121 108 91
-0.076962 0.115331 0.402275 120 107 90
-0.077409 0.115218 0.403318 124 111 94
-0.077855 0.115106 0.404362 122 109 92
-0.076979 0.116234 0.403611 122 109 92
-0.077425 0.116121 0.404655 120 107 90
-0.076084 0.116520 0.404819 125 112 95
-0.084131 0.112388 0.407772 110 101 84
-0.084581 0.112274 0.408824 108 99 82
-0.085031 0.112161 0.409876 103 91 75
-0.082326 0.112924 0.406881 113 104 87
-0.083698 0.113412 0.408067 112 103 86
-0.084148 0.113299 0.409120 109 100 83
-0.084598 0.113185 0.410172 108 97 79
-0.081894 0.113946 0.407176 114 105 88
-0.082343 0.113833 0.408225 111 102 85
-0.083715 0.114323 0.409415 110 101 86
-0.084165 0.114209 0.410468 111 102 87
-0.079648 0.114586 0.405242 119 108 90
-0.080095 0.114473 0.406288 117 106 88
-0.080543 0.114360 0.407335 116 107 90
-0.081911 0.114854 0.408520 112 103 86
-0.082360 0.114741 0.409569 112 103 86
-0.083732 0.115234 0.410764 109 102 84
-0.078301 0.114993 0.405405 120 109 91
-0.078747 0.114881 0.406449 120 109 91
-0.080112 0.115378 0.407629 117 106 88
-0.080559 0.115265 0.408675 113 105 86
-0.081928 0.115762 0.409864 114 106 87
-0.077872 0.116009 0.405698 124 113 95
-0.078318 0.115896 0.406742 120 109 89
-0.078764 0.115784 0.407785 118 107 87
-0.080129 0.116284 0.408969 118 107 87
-0.076529 0.116408 0.405859 124 113 93
-0.076974 0.116296 0.406900 121 110 90
